<?xml version="1.0" encoding="UTF-8"?>
<svg xmlns="http://www.w3.org/2000/svg" xmlns:xlink="http://www.w3.org/1999/xlink" version="1.1" x="0px" y="0px" viewBox="0 0 500 500" style="background: transparent;" xml:space="preserve">
<g id="Background">
	
</g>
<g id="Objects">
	<g>
		<path style="fill:#362056;" d="M56.68,372.981c0,0,72.953-42.179,188.494-41.359c115.542,0.817,182.974,33.579,182.974,33.579    s-35.673,78.102-191.255,74.94C77.392,436.9,56.68,372.981,56.68,372.981z"/>
		<g>
			<path style="fill:#7744A8;" d="M403.648,277.169c-5.727,4.236-15.38,11.979-21.821,4.121     c-5.551-6.768,0.963-24.767,10.044-25.505c0.416-0.034,0.341-0.648-0.077-0.569c-9.333,1.781-16.372,17.009-12.533,25.448     c5.122,11.262,19.635,4.212,25.233-2.397C404.967,277.708,404.332,276.663,403.648,277.169z"/>
			<path style="fill:#7744A8;" d="M403.919,286.366c0.271,0.895,1.662,0.518,1.404-0.388c-0.86-3.021,3.271-2.671,4.372-1.052     c0.598,0.88,0.83,1.988,0.889,3.029c0.104,1.889-0.412,3.689-1.318,5.293c-0.581,0.709-1.108,1.456-1.578,2.215     c-0.498,0.806,0.694,1.77,1.333,1.029c0.396-0.458,0.773-0.975,1.126-1.529c1.781-2.188,3.986-3.612,6.452-5.165     c0.63-0.396,0.225-1.368-0.504-1.195c-1.504,0.357-2.865,1.074-4.09,1.997c0.619-2.647,0.344-5.409-1.642-7.384     C407.898,280.769,402.77,282.579,403.919,286.366z"/>
			<path style="fill:#7744A8;" d="M407.927,267.106c0.791-0.397,1.6-0.747,2.419-1.075c0.591,3.975,1.068,8.346,4.292,11.075     c0.48,0.407,1.265-0.104,0.91-0.702c-1.929-3.253-3.105-6.976-3.922-10.857c1.44-0.504,2.915-0.903,4.429-1.173     c2.121-0.379,4.264-0.299,6.383-0.527c0.884,3.931,2.068,7.768,3.793,11.238c0.456,0.918,1.73,0.238,1.562-0.658     c-1.501-7.999-4.272-15.707-5.649-23.784c-0.176-1.027-1.977-0.8-1.839,0.249c0.476,3.623,0.996,7.431,1.757,11.192     c-3.481-0.537-7.335,0.428-10.751,1.865c-0.982-5.319-1.389-10.859-2.158-15.863c-0.143-0.918-1.52-0.522-1.391,0.383     c0.763,5.34,1.542,10.677,2.352,16.008c-1.012,0.47-1.975,0.972-2.86,1.475C406.498,266.381,407.162,267.489,407.927,267.106z"/>
			<path style="fill:#7744A8;" d="M435.552,270.787c1.638,0.897,2.856,2.2,3.346,4.038c0.191,0.718,0.682,4.611-1.751,3.076     c-0.72-0.454-0.952-1.827-1.315-2.588c-0.291-0.609-1.235-0.29-1.233,0.334c0.007,1.721,0.672,3.712,2.417,4.385     c1.477,0.568,2.964-0.065,3.54-1.537c0.656-1.679,0.256-3.914-0.488-5.482c-0.464-0.978-1.128-1.879-1.942-2.596     c-0.344-0.302-3.344-2.191-3.127-2.343c0.228-0.156,0.343-0.368,0.375-0.589c0.007,0.002,0.013,0.008,0.021,0.009     c2.755,0.379,5.985-0.065,8.415-1.411c0.579-0.32,0.321-1.258-0.337-1.246c-2.618,0.049-5.52,0.527-8.078,1.138     c-0.272,0.065-0.45,0.287-0.523,0.542c-0.216-0.104-0.475-0.115-0.743,0.07C431.815,268.182,433.97,269.921,435.552,270.787z"/>
		</g>
		<g>
			<g>
				<g>
					<g>
						<path style="fill:#E1E5E5;" d="M227.232,240.876c0,0,5.933-4.215,17.523-0.08c-0.294,4.511-0.72,6.401-0.72,6.401        l-2.013-0.115v62.16c-0.067,5.407-5.588,5.166-5.588,5.166c-2.953,0-5.139-3.249-5.16-5.142l-0.695-62.278l-2.706-0.191        L227.232,240.876z"/>
						<path style="fill:#9FCCCE;" d="M228.405,241.067c0,0,7.682-2.725,15.629,0.282        C239.961,242.798,231.319,243.323,228.405,241.067z"/>
						<path style="fill:#E05151;" d="M232.405,264.502c0,0,0.469,40.747,0.54,42.223c0.091,1.899,0.277,5.074,3.573,5.074        c0.047,0,0.087-0.011,0.133-0.012l-0.745-47.025L232.405,264.502z"/>
						<path style="fill:#C63D39;" d="M240.607,306.615l-0.531-41.821l-4.164-0.025l0.74,47.019c2.07-0.061,3.121-1.47,3.574-2.466        C240.577,308.551,240.618,307.163,240.607,306.615z"/>
						<path style="fill:#F76D6D;" d="M233.672,266.273l1.45,0.303l0.242,43.851c0,0-1.208-1.21-1.531-4.738        C233.511,302.16,233.672,266.273,233.672,266.273z"/>
						<path style="fill:#B7D1D4;" d="M232.405,264.775l-0.307-17.743c0,0,4.777,0.68,7.696,0.255        c0.266,6.036,0.304,17.657,0.304,17.657S234.886,265.569,232.405,264.775z"/>
						<polygon style="fill:#CCE4E5;" points="233.352,248.776 235.181,248.776 235.112,264.091 233.222,263.877       "/>
					</g>
					<g>
						<path style="fill:#E1E5E5;" d="M266.668,180.535c0,0,5.932-4.215,17.522-0.08c-0.293,4.512-0.72,6.401-0.72,6.401        l-2.014-0.115v62.16c-0.066,5.407-5.588,5.167-5.588,5.167c-2.953,0-5.139-3.25-5.16-5.142l-0.695-62.279l-2.706-0.19        L266.668,180.535z"/>
						<path style="fill:#9FCCCE;" d="M267.84,180.726c0,0,7.683-2.726,15.631,0.282C279.396,182.457,270.755,182.981,267.84,180.726        z"/>
						<path style="fill:#E05151;" d="M271.841,204.161c0,0,0.47,40.747,0.54,42.223c0.092,1.899,0.278,5.073,3.573,5.073        c0.048,0,0.088-0.01,0.134-0.011l-0.744-47.026L271.841,204.161z"/>
						<path style="fill:#C63D39;" d="M280.043,246.274l-0.531-41.822l-4.164-0.026l0.74,47.02c2.07-0.062,3.121-1.47,3.573-2.466        C280.012,248.21,280.054,246.822,280.043,246.274z"/>
						<path style="fill:#F76D6D;" d="M273.106,205.933l1.451,0.303l0.241,43.851c0,0-1.208-1.21-1.53-4.738        C272.946,241.819,273.106,205.933,273.106,205.933z"/>
						<path style="fill:#B7D1D4;" d="M271.84,204.435l-0.306-17.743c0,0,4.776,0.68,7.696,0.255        c0.265,6.035,0.304,17.657,0.304,17.657S274.321,205.227,271.84,204.435z"/>
						<polygon style="fill:#CCE4E5;" points="272.788,188.435 274.616,188.435 274.548,203.749 272.656,203.536       "/>
					</g>
				</g>
				<g>
					<path style="fill:#535959;" d="M286.69,356.845l-26.895-5.952l-2.418-173.232c-0.02-1.347-1.116-2.425-2.458-2.425       c-0.013,0-0.023,0-0.036,0.001c-1.357,0.019-2.443,1.135-2.425,2.493l2.417,173.221l-27.146,8.077       c-1.302,0.389-2.043,1.758-1.656,3.06c0.317,1.068,1.296,1.759,2.356,1.759c0.232,0,0.468-0.033,0.703-0.103l26.868-7.995       c0.393,0.266,0.864,0.422,1.373,0.422c0.012,0,0.023,0,0.034,0c0.521-0.008,1-0.178,1.393-0.459l26.827,5.938       c1.326,0.294,2.64-0.544,2.934-1.87C288.854,358.453,288.018,357.14,286.69,356.845z"/>
					<polygon style="fill:#6C7575;" points="229.977,248.926 258.347,248.926 258.477,254.705 229.961,254.532      "/>
					<polygon style="fill:#616868;" points="252.894,246.427 259.418,246.377 259.418,266.69 253.339,266.84      "/>
					<polygon style="fill:#6C7575;" points="255.554,190.352 282.522,190.352 282.646,196.131 255.539,195.958      "/>
					<polygon style="fill:#616868;" points="252.004,187.852 258.528,187.803 258.528,208.117 252.449,208.266      "/>
					<path style="fill:#6C7575;" d="M261.041,174.314c0,3.592-2.912,6.503-6.503,6.503c-3.592,0-6.504-2.912-6.504-6.503       c0-3.591,2.912-6.503,6.504-6.503C258.129,167.811,261.041,170.723,261.041,174.314z"/>
				</g>
			</g>
			<g>
				<g>
					<g>
						<polygon style="fill:#7F5326;" points="288.142,364.737 271.687,376.456 357.652,381.351 374.445,368.198       "/>
						<polygon style="fill:#93612B;" points="357.652,381.351 357.69,333.736 374.377,317.115 374.445,368.198       "/>
						<g>
							<path style="fill:#5E3C1E;" d="M305.085,372.48c0,1.29-2.531,2.335-5.655,2.335c-3.123,0-5.654-1.045-5.654-2.335         c0-1.289,2.531-2.335,5.654-2.335C302.554,370.146,305.085,371.191,305.085,372.48z"/>
							<path style="fill:#5E3C1E;" d="M331.546,372.792c0,1.289-2.532,2.334-5.656,2.334c-3.122,0-5.655-1.045-5.655-2.334         s2.533-2.335,5.655-2.335C329.014,370.457,331.546,371.503,331.546,372.792z"/>
							<path style="fill:#5E3C1E;" d="M356.449,373.518c0,1.29-2.532,2.335-5.655,2.335c-3.123,0-5.655-1.045-5.655-2.335         c0-1.289,2.532-2.335,5.655-2.335C353.917,371.183,356.449,372.228,356.449,373.518z"/>
						</g>
						<polygon style="fill:#93612B;" points="286.71,314.471 269.794,331.317 271.687,376.456 288.142,364.737       "/>
					</g>
					<g>
						<g>
							<path style="fill:#E1E5E5;" d="M345.285,321.604l0.323,45.176c0.022,2.953,2.422,5.336,5.374,5.336         c2.968,0,5.375-2.406,5.375-5.375V321.52c-1.628,1.18-3.522,2.066-6.124,2.029         C348.612,323.525,346.61,322.447,345.285,321.604z"/>
							<path style="fill:#EF6141;" d="M347.259,331.485c0,0-0.049,33.773,0.021,35.007c0.092,1.587,0.279,4.24,3.574,4.24         c0.047,0,0.087-0.009,0.134-0.009l-0.624-39.031L347.259,331.485z"/>
							<path style="fill:#E55124;" d="M354.942,366.399L354,331.935l-3.636-0.242l0.624,39.031c2.069-0.053,3.12-1.229,3.573-2.061         C354.912,368.018,354.954,366.858,354.942,366.399z"/>
							<path style="fill:#F77D69;" d="M348.009,333.308l1.449,0.242l0.24,35.041c0,0-1.209-0.967-1.531-3.786         C347.845,361.984,348.009,333.308,348.009,333.308z"/>
						</g>
						<g>
							<path style="fill:#E1E5E5;" d="M320.229,321.604l0.323,45.176c0.021,2.953,2.42,5.336,5.373,5.336         c2.969,0,5.375-2.406,5.375-5.375V321.52c-1.628,1.18-3.521,2.066-6.124,2.029         C323.555,323.525,321.555,322.447,320.229,321.604z"/>
							<path style="fill:#CC56C1;" d="M322.203,331.485c0,0-0.051,33.773,0.02,35.007c0.092,1.587,0.278,4.24,3.574,4.24         c0.047,0,0.086-0.009,0.133-0.009l-0.623-39.031L322.203,331.485z"/>
							<path style="fill:#B74BB2;" d="M329.886,366.399l-0.942-34.465l-3.636-0.242l0.623,39.031         c2.071-0.053,3.121-1.229,3.574-2.061C329.854,368.018,329.897,366.858,329.886,366.399z"/>
							<path style="fill:#E073DB;" d="M322.95,333.308l1.45,0.242l0.241,35.041c0,0-1.208-0.967-1.53-3.786         C322.79,361.984,322.95,333.308,322.95,333.308z"/>
						</g>
						<g>
							<path style="fill:#E1E5E5;" d="M294.144,321.604l0.323,45.176c0.022,2.953,2.421,5.336,5.375,5.336         c2.968,0,5.373-2.406,5.373-5.375V321.52c-1.627,1.18-3.521,2.066-6.123,2.029         C297.472,323.525,295.47,322.447,294.144,321.604z"/>
							<path style="fill:#25C1BC;" d="M296.118,331.485c0,0-0.049,33.773,0.022,35.007c0.091,1.587,0.277,4.24,3.573,4.24         c0.047,0,0.087-0.009,0.133-0.009l-0.624-39.031L296.118,331.485z"/>
							<path style="fill:#17AFAF;" d="M303.802,366.399l-0.941-34.465l-3.638-0.242l0.624,39.031         c2.07-0.053,3.121-1.229,3.574-2.061C303.771,368.018,303.812,366.858,303.802,366.399z"/>
							<path style="fill:#37D3CB;" d="M296.867,333.308l1.449,0.242l0.241,35.041c0,0-1.208-0.967-1.53-3.786         C296.705,361.984,296.867,333.308,296.867,333.308z"/>
						</g>
					</g>
				</g>
				<g>
					<polygon style="fill:#AF752F;" points="286.71,314.471 374.377,317.115 357.69,333.736 269.793,331.317      "/>
					<g>
						<g>
							<path style="fill:#E1E5E5;" d="M309.324,269.122c0,0,0.146-1.761,0.44-8.802c-11.59-6.456-20.834,0-20.834,0l0.587,8.948         l4.255,0.294l0.372,52.042c1.325,0.843,3.327,1.921,4.948,1.944c2.603,0.037,4.496-0.85,6.123-2.029v-51.81L309.324,269.122z         "/>
							<path style="fill:#B7D1D4;" d="M295.37,297.332l-0.077-27.7c0,0,4.777,1.062,7.696,0.397         c0.266,9.421,0.17,27.602,0.17,27.602S296.376,298.626,295.37,297.332z"/>
							<path style="fill:#9FCCCE;" d="M290.839,260.32c0,0,8.509-4.256,17.313,0.439         C303.639,263.022,294.065,263.841,290.839,260.32z"/>
							<path style="fill:#17AFAF;" d="M303.309,322.647c0,0,0.3-12.434-0.149-25.017c-1.283,0.202-2.989,0.161-4.479,0.056         l0.413,25.862C301.395,323.667,303.309,322.647,303.309,322.647z"/>
							<path style="fill:#25C1BC;" d="M295.37,297.332c0,0,0,20.372,0.299,25.015c1.12,0.828,2.316,1.145,3.424,1.202l-0.413-25.862         C296.864,297.557,295.37,297.332,295.37,297.332z"/>
							<polygon style="fill:#CCE4E5;" points="296.547,272.353 298.376,272.353 298.307,296.26 296.416,295.926        "/>
							<polygon style="fill:#37D3CB;" points="296.448,299.733 297.813,299.929 297.911,321.761 296.546,321.371        "/>
						</g>
						<g>
							<path style="fill:#E1E5E5;" d="M335.408,269.122c0,0,0.148-1.761,0.44-8.802c-11.591-6.456-20.833,0-20.833,0l0.587,8.948         l4.254,0.294l0.373,52.042c1.325,0.843,3.325,1.921,4.947,1.944c2.603,0.037,4.496-0.85,6.124-2.029v-51.81L335.408,269.122z         "/>
							<path style="fill:#B7D1D4;" d="M321.453,297.332l-0.076-27.7c0,0,4.776,1.062,7.695,0.397         c0.266,9.421,0.17,27.602,0.17,27.602S322.459,298.626,321.453,297.332z"/>
							<path style="fill:#9FCCCE;" d="M316.922,260.32c0,0,8.51-4.256,17.313,0.439C329.723,263.022,320.15,263.841,316.922,260.32z         "/>
							<path style="fill:#B74BB2;" d="M329.393,322.647c0,0,0.3-12.434-0.15-25.017c-1.282,0.202-2.988,0.161-4.479,0.056         l0.413,25.862C327.479,323.667,329.393,322.647,329.393,322.647z"/>
							<path style="fill:#CC56C1;" d="M321.453,297.332c0,0,0,20.372,0.3,25.015c1.119,0.828,2.316,1.145,3.424,1.202l-0.413-25.862         C322.947,297.557,321.453,297.332,321.453,297.332z"/>
							<polygon style="fill:#CCE4E5;" points="322.631,272.353 324.46,272.353 324.39,296.26 322.5,295.926        "/>
							<polygon style="fill:#E073DB;" points="322.532,299.733 323.896,299.929 323.994,321.761 322.63,321.371        "/>
						</g>
						<g>
							<path style="fill:#E1E5E5;" d="M360.465,269.122c0,0,0.146-1.761,0.44-8.802c-11.591-6.456-20.834,0-20.834,0l0.587,8.948         l4.255,0.294l0.372,52.042c1.325,0.843,3.327,1.921,4.948,1.944c2.603,0.037,4.496-0.85,6.124-2.029v-51.81L360.465,269.122z         "/>
							<path style="fill:#B7D1D4;" d="M346.511,297.332l-0.077-27.7c0,0,4.777,1.062,7.696,0.397         c0.265,9.421,0.17,27.602,0.17,27.602S347.517,298.626,346.511,297.332z"/>
							<path style="fill:#9FCCCE;" d="M341.979,260.32c0,0,8.509-4.256,17.313,0.439         C354.779,263.022,345.207,263.841,341.979,260.32z"/>
							<path style="fill:#E55124;" d="M354.449,322.647c0,0,0.3-12.434-0.149-25.017c-1.282,0.202-2.988,0.161-4.479,0.056         l0.413,25.862C352.536,323.667,354.449,322.647,354.449,322.647z"/>
							<path style="fill:#EF6141;" d="M346.511,297.332c0,0,0,20.372,0.299,25.015c1.12,0.828,2.316,1.145,3.424,1.202         l-0.413-25.862C348.004,297.557,346.511,297.332,346.511,297.332z"/>
							<polygon style="fill:#CCE4E5;" points="347.688,272.353 349.517,272.353 349.447,296.26 347.558,295.926        "/>
							<polygon style="fill:#F77D69;" points="347.589,299.733 348.954,299.929 349.051,321.761 347.686,321.371        "/>
						</g>
					</g>
				</g>
			</g>
			<g>
				<g>
					<path style="fill:#CCE4E5;" d="M183.505,294.075c-30.945-20.182-75.075-1.345-75.075-1.345       C142.873,309.683,183.505,294.075,183.505,294.075z"/>
					<path style="fill:#E7F3F3;" d="M108.431,292.73c0,0,5.651,44.938,9.149,82.34c30.945,18.029,64.581,1.614,64.581,1.614       s1.614-33.904,1.345-82.609C183.505,294.075,142.873,309.683,108.431,292.73z"/>
					<path style="fill:#CCE4E5;" d="M111.867,298.032c1.671,14.733,2.484,24.297,2.484,24.297l32.81-0.527l1.42-17.917       C138.602,303.848,126.343,302.365,111.867,298.032z"/>
					<path style="fill:#B7D1D4;" d="M180.218,297.728c0,0-10.837,6.234-31.638,6.156l-1.42,17.917l33.115-0.564L180.218,297.728z"/>
					<g>
						<path style="fill:#DB3B3B;" d="M114.351,322.329c0,0,1.614,11.84,5.651,50.589c27.177,16.414,59.199,1.884,59.199,1.884        s0.269-16.415,1.076-53.549C180.276,321.253,150.677,338.475,114.351,322.329z"/>
						<path style="fill:#C43737;" d="M114.351,322.329c36.327,16.146,65.926-1.076,65.926-1.076        C151.215,310.221,114.351,322.329,114.351,322.329z"/>
						<g>
							<polygon style="fill:#ED7E7E;" points="120.677,329.17 135.41,332.208 136.321,365.319 122.499,363.346        "/>
							<polygon style="fill:#ED7E7E;" points="122.955,367.598 135.866,370.028 136.018,376.256 124.17,372.763        "/>
						</g>
						<g>
							<g>
								<path style="fill:#D34444;" d="M137.459,322.64c0.061,1.035-2.211,2.01-5.074,2.177c-2.863,0.167-5.232-0.537-5.293-1.573          c-0.06-1.035,2.211-2.01,5.074-2.177C135.03,320.899,137.399,321.604,137.459,322.64z"/>
								<path style="fill:#D34444;" d="M156.026,322.222c0.096,1.645-3.135,3.171-7.216,3.408c-4.081,0.238-7.467-0.902-7.562-2.547          c-0.096-1.645,3.135-3.171,7.216-3.408C152.544,319.436,155.931,320.577,156.026,322.222z"/>
								<path style="fill:#D34444;" d="M168.618,321.82c0.05,0.853-1.391,1.63-3.219,1.737c-1.827,0.105-3.349-0.499-3.398-1.352          c-0.05-0.854,1.392-1.631,3.219-1.736C167.047,320.362,168.568,320.967,168.618,321.82z"/>
							</g>
							<g>
								<path style="fill:#C43737;" d="M134.625,350.525c0,1.749-1.418,3.168-3.168,3.168c-1.749,0-3.167-1.419-3.167-3.168          c0-1.749,1.418-3.168,3.167-3.168C133.207,347.357,134.625,348.776,134.625,350.525z"/>
								<path style="fill:#C43737;" d="M131.005,361.462c0,1.092-0.886,1.978-1.978,1.978c-1.092,0-1.977-0.886-1.977-1.978          c0-1.094,0.886-1.979,1.977-1.979C130.12,359.483,131.005,360.368,131.005,361.462z"/>
								<path style="fill:#C43737;" d="M148.781,356.333c1.742-0.163,3.286,1.117,3.45,2.858c0.163,1.742-1.116,3.286-2.858,3.449          c-1.742,0.163-3.287-1.116-3.45-2.858C145.76,358.04,147.04,356.496,148.781,356.333z"/>
								<path style="fill:#C43737;" d="M169.257,366.778c0,1.748-1.418,3.168-3.168,3.168s-3.167-1.42-3.167-3.168          c0-1.75,1.418-3.168,3.167-3.168S169.257,365.028,169.257,366.778z"/>
								<path style="fill:#C43737;" d="M166.331,347.792c0,1.308-1.06,2.368-2.369,2.368s-2.369-1.061-2.369-2.368          c0-1.309,1.06-2.37,2.369-2.37S166.331,346.483,166.331,347.792z"/>
								<path style="fill:#C43737;" d="M143.612,365.411c0,2.266-1.838,4.103-4.105,4.103s-4.104-1.838-4.104-4.103          c0-2.268,1.837-4.104,4.104-4.104S143.612,363.144,143.612,365.411z"/>
							</g>
						</g>
					</g>
					<polygon style="fill:#DAEFEF;" points="120.677,303.651 133.891,305.778 134.043,315.804 121.892,318.081      "/>
					<path style="fill:#9FCCCE;" d="M114.056,292.914c0,0,12.923-5.518,33.541-6.243c20.618-0.727,30.782,7.114,30.782,7.114       S142.804,305.691,114.056,292.914z"/>
				</g>
				<g>
					<g>
						<path style="fill:#FFFFFF;" d="M133.04,316.674c-10.932,0-16.8-1.913-17.044-1.995c-0.257-0.086-0.396-0.364-0.311-0.622        c0.085-0.258,0.364-0.397,0.622-0.313c0.059,0.02,5.98,1.946,16.734,1.946c0.272,0,0.492,0.22,0.492,0.492        C133.532,316.453,133.312,316.674,133.04,316.674z"/>
					</g>
					<g>
						<path style="fill:#FFFFFF;" d="M128.099,325.567c-6.577,0-10.936-1.803-11.154-1.895c-0.251-0.107-0.368-0.395-0.262-0.645        c0.106-0.25,0.392-0.368,0.644-0.264c0.063,0.027,6.331,2.608,14.999,1.564c0.276-0.035,0.515,0.16,0.548,0.43        c0.032,0.269-0.16,0.514-0.43,0.547C130.913,325.49,129.458,325.567,128.099,325.567z"/>
					</g>
					<g>
						<path style="fill:#FFFFFF;" d="M127.19,333.413c-5.473,0-9.085-1.638-9.275-1.725c-0.247-0.114-0.354-0.406-0.24-0.653        c0.114-0.247,0.406-0.354,0.653-0.24c0.057,0.027,5.739,2.592,13.501,1.229c0.265-0.055,0.523,0.132,0.57,0.4        c0.046,0.267-0.132,0.522-0.399,0.569C130.281,333.294,128.667,333.413,127.19,333.413z"/>
					</g>
					<g>
						<path style="fill:#FFFFFF;" d="M127.373,342.077c-4.406,0-7.938-1.153-8.141-1.221c-0.258-0.087-0.397-0.364-0.311-0.623        c0.086-0.256,0.363-0.397,0.622-0.31c0.067,0.023,6.697,2.184,12.951,0.555c0.259-0.073,0.531,0.087,0.6,0.351        c0.069,0.263-0.088,0.531-0.352,0.6C130.916,341.904,129.079,342.077,127.373,342.077z"/>
					</g>
				</g>
			</g>
			<g>
				<g>
					<path style="fill:#E7F3F3;" d="M186.318,174.503c0,0,4.905-4.566,17.759-4.566c12.854,0,19.958,3.382,19.958,3.382       l1.184,17.759l-5.92,0.845l2.706,62.918c0,0,56.49,67.823,58.182,78.985c1.273,8.398-1.352,14.884-11.669,18.943       c-10.317,4.059-77.633,16.067-117.549,0.338c-12.008-7.103-8.288-16.744-5.75-21.818c2.537-5.074,52.939-76.279,52.939-76.279       l-3.044-61.734l-6.258-0.845L186.318,174.503z"/>
					<path style="fill:#9FCCCE;" d="M189.193,174.673c0,0,3.552-3.045,15.391-3.045c11.839,0,17.083,2.706,17.083,2.706       S204.077,179.916,189.193,174.673z"/>
					<g>
						<path style="fill:#CCE4E5;" d="M199.51,258.225c0,0-13.254,18.85-26.221,37.777c6.551-2.702,21.222-6.993,45.08-4.994        l-5.04-30.243C209.716,260.931,205.007,260.438,199.51,258.225z"/>
						<path style="fill:#B7D1D4;" d="M221.16,259.07c0,0-2.886,1.466-7.831,1.694l5.04,30.243        c9.064,0.761,19.448,2.424,31.225,5.435C235.778,278.214,221.16,259.07,221.16,259.07z"/>
						<polygon style="fill:#DAEFEF;" points="184.77,289.524 200.915,262.686 206.786,263.944 201.753,286.799       "/>
					</g>
					<g>
						<path style="fill:#CCE4E5;" d="M198.327,194.292c0,0,2.368,46.004,3.213,59.366c4.882,2.17,9.46,2.063,12.678,1.499        l-5.725-60.832C203.305,194.511,198.327,194.292,198.327,194.292z"/>
						<path style="fill:#B7D1D4;" d="M216.085,193.615c-2.141,0.405-4.896,0.612-7.593,0.71l5.725,60.832        c2.801-0.492,4.574-1.33,4.574-1.33S216.593,212.727,216.085,193.615z"/>
						<polygon style="fill:#DAEFEF;" points="204.074,251.949 208.364,252.486 202.823,196.172 200.677,196.709       "/>
					</g>
					<g>
						<g>
							<path style="fill:#7FBA37;" d="M218.369,291.008c-23.858-1.999-38.529,2.292-45.08,4.994c0,0,14.297,7.584,39.335,6.883         C213.079,295.148,218.369,291.009,218.369,291.008z"/>
							<path style="fill:#78A833;" d="M218.369,291.008c0,0.001-5.29,4.141-5.745,11.877c10.518-0.295,22.917-2.042,36.97-6.442         C237.817,293.432,227.433,291.769,218.369,291.008z"/>
						</g>
						<g>
							<path style="fill:#B3E744;" d="M173.289,296.002c-11.935,17.42-23.627,34.907-24.519,37.825         c-1.86,6.089-1.522,13.023,8.288,17.252c6.635,2.86,36.02,7.265,67.008,5.16l-11.775-53.347         C187.459,303.519,173.289,296.002,173.289,296.002z"/>
							<path style="fill:#A4CE3E;" d="M273.591,328.585c-1.239-2.014-12.332-16.752-23.997-32.143         c-14.201,4.447-26.715,6.185-37.303,6.45l11.775,53.347c14.827-1.007,30.021-3.502,43.267-8.374         C279.342,341.439,276.297,332.982,273.591,328.585z"/>
						</g>
						<g>
							<path style="fill:#CDEF9C;" d="M174.964,300.844c0,0,12.8,5.12,20.195,5.12c-7.111,13.084-16.498,29.582-16.498,29.582         s-14.507-3.129-19.911-9.387C165.577,314.212,174.964,300.844,174.964,300.844z"/>
							<path style="fill:#CDEF9C;" d="M156.759,330.142c0,0,10.24,8.25,19.342,8.818c-2.004,3.692-4.284,7.355-4.284,7.355         s-15.627-2.805-18.756-9.348C155.622,332.702,156.759,330.142,156.759,330.142z"/>
						</g>
						<g>
							<g>
								<path style="fill:#93C947;" d="M199.954,295.702c0,1.171-2.623,2.119-5.859,2.119c-3.236,0-5.86-0.948-5.86-2.119          c0-1.171,2.623-2.12,5.86-2.12C197.331,293.582,199.954,294.531,199.954,295.702z"/>
								<ellipse style="fill:#93C947;" cx="212.546" cy="296.45" rx="8.353" ry="3.366"/>
								<path style="fill:#93C947;" d="M235.112,296.823c0,0.965-1.674,1.746-3.74,1.746s-3.74-0.781-3.74-1.746          c0-0.964,1.674-1.744,3.74-1.744S235.112,295.859,235.112,296.823z"/>
							</g>
							<g>
								<path style="fill:#9BBA38;" d="M254.418,321.858c0,1.779-1.443,3.223-3.223,3.223c-1.779,0-3.222-1.443-3.222-3.223          s1.443-3.222,3.222-3.222C252.975,318.637,254.418,320.079,254.418,321.858z"/>
								<g>
									<path style="fill:#9BBA38;" d="M238.521,328.626c0,2.669-2.164,4.833-4.834,4.833c-2.669,0-4.833-2.164-4.833-4.833           c0-2.67,2.164-4.834,4.833-4.834C236.357,323.792,238.521,325.956,238.521,328.626z"/>
									<path style="fill:#9BBA38;" d="M253.558,333.674c0,1.897-1.538,3.438-3.436,3.438c-1.899,0-3.438-1.54-3.438-3.438           c0-1.898,1.538-3.436,3.438-3.436C252.019,330.237,253.558,331.775,253.558,333.674z"/>
									<path style="fill:#9BBA38;" d="M238.736,343.663c0,1.838-1.491,3.329-3.329,3.329c-1.839,0-3.33-1.491-3.33-3.329           c0-1.84,1.491-3.33,3.33-3.33C237.245,340.333,238.736,341.823,238.736,343.663z"/>
								</g>
							</g>
							<g>
								<path style="fill:#A4CE3E;" d="M205.439,323.362c0,1.898-1.539,3.438-3.437,3.438c-1.898,0-3.437-1.539-3.437-3.438          s1.539-3.436,3.437-3.436C203.901,319.926,205.439,321.464,205.439,323.362z"/>
								<path style="fill:#A4CE3E;" d="M200.284,339.796c0,2.314-1.875,4.19-4.189,4.19c-2.313,0-4.188-1.876-4.188-4.19          s1.875-4.189,4.188-4.189C198.409,335.606,200.284,337.482,200.284,339.796z"/>
								<path style="fill:#A4CE3E;" d="M215.536,348.926c0,1.543-1.251,2.793-2.793,2.793c-1.542,0-2.792-1.25-2.792-2.793          s1.251-2.793,2.792-2.793C214.286,346.133,215.536,347.383,215.536,348.926z"/>
								<path style="fill:#A4CE3E;" d="M183.313,344.63c0,1.66-1.347,3.007-3.008,3.007c-1.661,0-3.007-1.347-3.007-3.007          c0-1.662,1.346-3.008,3.007-3.008C181.967,341.622,183.313,342.968,183.313,344.63z"/>
							</g>
						</g>
					</g>
				</g>
				<path style="fill:#6D6D6D;" d="M272.118,396.761c-5.121-19.494-9.273-32.483-11.117-38.004c0.597-0.588,0.97-1.403,0.97-2.308      c0-1.788-1.451-3.239-3.239-3.239c-1.384,0-2.557,0.872-3.021,2.093c-4.052,0.765-12.682,2.232-24.112,3.27      c-0.539-0.432-1.21-0.706-1.953-0.722c-0.983-0.02-1.863,0.409-2.471,1.089c-10.438,0.787-22.785,1.147-35.898,0.358      c-0.579-0.746-1.465-1.242-2.482-1.263c-0.905-0.019-1.729,0.337-2.328,0.924c-8.018-0.652-16.261-1.757-24.48-3.473      c-0.439-1.23-1.593-2.126-2.977-2.154c-1.789-0.036-3.268,1.384-3.305,3.171c-0.018,0.854,0.303,1.63,0.83,2.22l-6.544,36.45      c-0.001,0.001-0.006,0.004-0.007,0.005c-0.672,0.462-0.844,1.38-0.383,2.053c0.287,0.418,0.751,0.642,1.224,0.641      c1.794,0.886,13.942,6.692,31.472,10.617c0.138,0.066,0.285,0.117,0.445,0.138c0.063,0.008,0.126,0.011,0.188,0.011      c0.005,0,0.01-0.003,0.015-0.003c1.963,0.432,3.99,0.838,6.077,1.211c7.399,1.322,16.098,2.307,25.596,2.307      c16.99,0,36.532-3.17,55.734-13.186c0.021,0.001,0.044,0.011,0.065,0.011c0.44,0,0.877-0.196,1.168-0.571      c0.059-0.076,0.107-0.157,0.15-0.24C272.093,397.803,272.252,397.274,272.118,396.761z M232.786,361.417      c10.868-1.02,19.146-2.406,23.25-3.173c0.483,0.724,1.254,1.235,2.147,1.389c1.712,5.122,5.505,16.972,10.24,34.718      c-5.033-3.186-16.449-9.362-33.365-12.478l-3.743-18.051C232.128,363.305,232.682,362.431,232.786,361.417z M226.469,361.936      c0.265,0.973,0.961,1.764,1.885,2.143l3.579,17.264c-6.854-1.064-14.533-1.607-22.988-1.27      c-7.939,0.321-15.05,1.124-21.368,2.197l2.282-17.968c0.921-0.344,1.634-1.096,1.938-2.04      C204.418,362.983,216.298,362.671,226.469,361.936z M159.345,359.772c0.932-0.117,1.745-0.617,2.258-1.357      c8.038,1.666,16.089,2.752,23.937,3.412c0.153,0.886,0.667,1.648,1.388,2.131l-2.396,18.86      c-15.904,3.038-26.257,7.728-31.188,10.378L159.345,359.772z M181.684,405.234c-13.434-3.098-23.378-7.197-27.561-9.079      c4.327-2.368,14.344-7.1,30.014-10.23L181.684,405.234z M184.578,405.875l2.607-20.522c6.429-1.143,13.719-2,21.879-2.329      c8.681-0.35,16.541,0.285,23.521,1.463l4.705,22.689C217.827,410.714,199.34,408.993,184.578,405.875z M235.719,385.063      c16.282,3.243,27.225,9.326,31.618,12.126c-9.05,4.528-18.188,7.554-27.151,9.419L235.719,385.063z"/>
			</g>
			<g>
				<path style="fill:#999999;" d="M146.05,298.715c-0.547,0-1.074-0.306-1.329-0.831c-0.613-1.265-14.889-31.249-3.082-55.936      c1.314-2.749,2.648-5.019,3.971-6.889c-2.197-3.123-3.745-7.159-4.111-12.111c-1.017-13.724,5.902-26.597,13.211-33.268      c1.101-1.005,2.225-1.886,3.358-2.639c-1.662-6.982-0.476-15.234,6.813-22.049c9.313-8.705,21.272-11.875,30.471-8.071      c6.953,2.874,11.111,9.403,11.41,17.913c0.029,0.815-0.608,1.498-1.423,1.526c-0.831,0.021-1.498-0.608-1.526-1.423      c-0.26-7.411-3.665-12.841-9.588-15.29c-8.133-3.362-18.858-0.417-27.328,7.499c-6.742,6.301-7.178,13.274-6.145,18.362      c3.025-1.45,6.062-1.978,8.906-1.502c7.572,1.262,10.41,5.829,10.542,9.681c0.147,4.271-2.762,8.088-6.916,9.076      c-3.976,0.95-9.379-3.032-12.834-9.465c-0.556-1.036-1.056-2.139-1.483-3.292c-0.76,0.55-1.517,1.168-2.267,1.853      c-8.021,7.321-13.062,20.015-12.257,30.87c0.294,3.977,1.442,7.268,3.085,9.877c6.435-7.378,12.301-5.973,14.303-5.164      c4.531,1.831,7.193,6.878,5.811,11.023c-1.104,3.313-4.816,5.083-9.454,4.501c-3.638-0.453-7.514-2.295-10.623-5.534      c-1.128,1.677-2.222,3.611-3.263,5.787c-11.186,23.391,2.932,53.077,3.075,53.373c0.356,0.733,0.049,1.616-0.684,1.973      C146.485,298.667,146.266,298.715,146.05,298.715z M149.354,235.024c2.665,2.954,6.039,4.623,9.197,5.017      c3.184,0.399,5.651-0.588,6.29-2.506c0.875-2.626-1.087-6.131-4.117-7.354C157.094,228.711,153.094,230.494,149.354,235.024z       M161.54,188.411c0.52,1.523,1.1,2.729,1.511,3.493c2.922,5.444,7.298,8.519,9.549,7.992c2.794-0.665,4.75-3.233,4.651-6.105      c-0.12-3.479-3.139-6.048-8.078-6.872C166.784,186.521,164.177,187.044,161.54,188.411z"/>
			</g>
			<g>
				<path style="fill:#DB3B3B;" d="M129.49,259.202c0,4.778-3.873,8.652-8.651,8.652c-4.778,0-8.652-3.874-8.652-8.652      c0-4.778,3.874-8.651,8.652-8.651C125.617,250.551,129.49,254.424,129.49,259.202z"/>
				<path style="fill:#DB3B3B;" d="M162.079,260.356c0,2.708-2.195,4.902-4.902,4.902c-2.708,0-4.903-2.194-4.903-4.902      c0-2.708,2.195-4.902,4.903-4.902C159.884,255.454,162.079,257.648,162.079,260.356z"/>
				<path style="fill:#DB3B3B;" d="M134.682,231.805c0,2.39-1.937,4.326-4.326,4.326c-2.389,0-4.326-1.937-4.326-4.326      c0-2.389,1.937-4.326,4.326-4.326C132.745,227.479,134.682,229.416,134.682,231.805z"/>
			</g>
			<g>
				<path style="fill:#93C947;" d="M241.677,150.621c0,3.266-2.647,5.912-5.913,5.912c-3.265,0-5.912-2.646-5.912-5.912      c0-3.265,2.647-5.912,5.912-5.912C239.03,144.709,241.677,147.356,241.677,150.621z"/>
				<path style="fill:#93C947;" d="M214.856,143.267c0,3.982-3.228,7.21-7.21,7.21s-7.21-3.228-7.21-7.21      c0-3.982,3.229-7.21,7.21-7.21S214.856,139.285,214.856,143.267z"/>
				<path style="fill:#93C947;" d="M231.583,127.405c0,2.389-1.937,4.326-4.326,4.326c-2.389,0-4.326-1.937-4.326-4.326      c0-2.39,1.937-4.326,4.326-4.326C229.646,123.08,231.583,125.016,231.583,127.405z"/>
			</g>
		</g>
		<g>
			<g>
				<path style="fill:#7744A8;" d="M74.96,231.781c0.183-0.093,0.367-0.185,0.538-0.297c0.615-0.401,0.491-1.294-0.199-1.524      c-0.275-0.092-0.56-0.154-0.849-0.195c-0.901-3.682-1.646-7.414-1.964-11.342c-0.065-0.808-1.309-0.831-1.277,0      c0.141,3.686,0.353,7.583,0.844,11.452c-1.407,0.262-2.819,0.791-4.028,1.219c-2.02,0.715-3.955,1.616-5.814,2.667      c-0.133-0.462-0.266-0.922-0.387-1.38c-1.452-5.526-2.797-11.076-4.021-16.657c-0.273-1.247-2.169-0.717-1.911,0.527      c1.166,5.594,2.427,11.169,3.871,16.697c0.184,0.703,0.36,1.423,0.535,2.149c-0.243,0.49-0.057,1.093,0.341,1.425      c0.941,3.944,1.942,8.039,3.853,11.46c0.307,0.55,1.296,0.336,1.239-0.335c-0.336-3.899-1.656-7.798-2.845-11.63      c1.982-1.113,4.036-2.05,6.224-2.715c1.052-0.319,2.213-0.477,3.34-0.711c0.695,4.216,1.782,8.333,3.549,12.035      c0.573,1.201,2.349,0.33,2.072-0.873C77.133,239.667,75.984,235.737,74.96,231.781z"/>
				<path style="fill:#7744A8;" d="M88.265,247.081c-0.42,0.118-0.81,0.285-1.189,0.47c0.543-3.054,0.92-6.441-0.814-8.843      c-1.58-2.189-5.606-1.723-5.43,1.391c0.086,1.52,2.472,1.524,2.371,0c0.977-0.015,1.517,0.332,1.619,1.04      c0.132,0.456,0.213,0.924,0.244,1.402c0.072,0.659,0.093,1.329,0.092,1.991c-0.003,1.873-0.241,3.503-1.193,5.143      c-0.683,1.177,0.703,2.648,1.9,1.9c1.244-0.776,2.56-1.449,3.518-2.577C90.089,248.165,89.436,246.752,88.265,247.081z"/>
				<path style="fill:#7744A8;" d="M96.151,218.097c-0.831,0.525-0.511,1.862,0.506,1.87c3.304,0.024,6.671,0.386,9.258,2.695      c3.561,3.18,3.205,8.229,0.357,11.74c-1.337,1.649-3.122,2.936-5.19,3.506c-3.515,0.968-7.254-0.698-7.95-4.523      c-0.769-4.227,1.564-8.912,4.028-12.172c0.311-0.411-0.38-0.945-0.716-0.553c-3.378,3.947-7.459,11.728-3.861,16.741      c3.224,4.492,10.164,3.059,13.783-0.034c4.124-3.525,5.649-9.35,3.045-14.227C106.974,218.578,101.021,215.016,96.151,218.097z"/>
			</g>
			<g>
				<g>
					<polygon style="fill:#7744A8;" points="351.929,134.585 324.052,171.49 290.167,161.239 289.341,163.969 322.565,174.021        318.934,209.512 321.771,209.803 325.551,172.881 326.205,173.375 352.861,138.085 395.136,156.122 396.256,153.498      "/>
					<g>
						<circle style="fill:#7744A8;" cx="290.908" cy="163.47" r="6.351"/>
						<path style="fill:#7744A8;" d="M361.632,136.335c0,5.102-4.135,9.237-9.236,9.237s-9.238-4.135-9.238-9.237        c0-5.102,4.137-9.237,9.238-9.237S361.632,131.233,361.632,136.335z"/>
						<circle style="fill:#7744A8;" cx="319.197" cy="209.657" r="6.351"/>
						<path style="fill:#7744A8;" d="M330.167,172.708c0,2.71-2.197,4.907-4.908,4.907c-2.71,0-4.906-2.197-4.906-4.907        c0-2.71,2.196-4.908,4.906-4.908C327.97,167.8,330.167,169.997,330.167,172.708z"/>
						<path style="fill:#7744A8;" d="M400.602,154.81c0,2.711-2.197,4.908-4.907,4.908c-2.71,0-4.907-2.197-4.907-4.908        c0-2.71,2.197-4.907,4.907-4.907C398.405,149.902,400.602,152.1,400.602,154.81z"/>
					</g>
				</g>
				<g>
					<g>
						<path style="fill:#7744A8;" d="M294.74,100.418l14.134-41.975l32.57,29.419L294.74,100.418z M310.188,63.476l-11.044,32.803        l36.499-9.812L310.188,63.476z"/>
					</g>
					<g>
						<path style="fill:#7744A8;" d="M302.939,98.348c0,3.313-2.686,5.998-5.997,5.998c-3.314,0-5.998-2.685-5.998-5.998        c0-3.312,2.685-5.997,5.998-5.997C300.254,92.351,302.939,95.036,302.939,98.348z"/>
						<path style="fill:#7744A8;" d="M344.623,86.353c0,3.313-2.685,5.998-5.997,5.998c-3.313,0-5.998-2.685-5.998-5.998        c0-3.312,2.686-5.997,5.998-5.997C341.938,80.355,344.623,83.041,344.623,86.353z"/>
						<path style="fill:#7744A8;" d="M315.534,61.763c0,3.312-2.685,5.998-5.998,5.998c-3.311,0-5.997-2.686-5.997-5.998        c0-3.313,2.685-5.998,5.997-5.998C312.85,55.765,315.534,58.45,315.534,61.763z"/>
					</g>
				</g>
				<path style="fill:#7744A8;" d="M184.802,90.601c5.397-5.173,11.687-12.31,11.669-19.198c-0.002-0.859-1.243-0.831-1.315,0      c-0.416,4.783-4.952,9.439-7.947,12.858c-1.313,1.501-2.691,2.952-4.115,4.356c-1.946-2.175-4.161-4.38-6.575-6.411      c-0.005-0.15-0.008-0.298-0.013-0.447c0.921-0.853,1.845-1.703,2.789-2.542c0.177-0.157-0.059-0.473-0.257-0.332      c-0.869,0.617-1.721,1.257-2.565,1.908c-0.283-7.874-1.006-15.807-2.916-23.3c-0.202-0.793-1.015-0.825-1.49-0.421      c-0.183-0.253-0.703-0.253-0.766,0.122c-1.096,6.494-1.959,13.034-2.648,19.591c-4.374-2.346-9.071-3.726-13.802-3.307      c-1.193,0.106-1.553,1.808-0.293,2.167c5.041,1.44,9.522,2.826,13.716,4.941c-0.256,2.701-0.484,5.402-0.686,8.105      c-1.762,1.792-3.449,3.658-5.064,5.586c-1.682-1.754-3.239-3.631-4.586-5.645c-1.745-2.606-8.086-13.074-3.242-15.303      c0.601-0.277,0.168-1.33-0.456-1.08c-7.728,3.106,3.425,18.508,6.121,21.788c0.381,0.464,0.78,0.933,1.196,1.404      c-2.96,3.648-5.662,7.502-8.09,11.494c-0.427,0.702,0.659,1.329,1.097,0.641c2.474-3.884,5.145-7.546,7.988-11.046      c1.309,1.407,2.756,2.818,4.31,4.179c-3.446,1.966-6.96,3.83-10.425,5.916c-0.722,0.434-0.236,1.49,0.558,1.324      c3.424-0.717,6.75-2.032,9.932-3.717c0.144,5.964,1.006,11.905,3.562,16.97c0.341,0.676,1.192,0.625,1.694,0.219      c2.963-2.402,2.975-8.774,3.467-12.309c0.095-0.685,0.16-1.371,0.24-2.057c3.716,1.982,7.631,3.287,11.467,3.388      c3.363,0.089,5.912-1.94,5.979-5.426c0.097-5.039-5.245-10.409-8.217-14.039C185.015,90.854,184.907,90.728,184.802,90.601z       M177.659,87.207c1.152,1.096,2.247,2.249,3.315,3.427c-0.917,0.843-1.845,1.672-2.795,2.472      c-0.505,0.425-1.024,0.814-1.54,1.216c0.006-0.683,0.022-1.366,0.02-2.049c-0.007-1.99-0.021-4.002-0.051-6.024      C176.959,86.56,177.31,86.874,177.659,87.207z M171.367,101.596c0.94-0.616,1.863-1.258,2.771-1.919      c-0.048,1.169-0.111,2.337-0.19,3.504C173.07,102.678,172.209,102.149,171.367,101.596z M168.811,99.574      c0.048-3.69,0.279-7.327,0.476-10.707c1.53-1.612,3.111-3.185,4.721-4.738c0.029,0.022,0.058,0.045,0.087,0.067      c0.056,1.815,0.104,3.632,0.136,5.449c0.039,2.15,0.042,4.301,0.007,6.452C172.467,97.337,170.654,98.484,168.811,99.574z       M171.923,59.227c1.132,6.94,1.713,13.931,2.021,20.944c-1.245-0.924-2.532-1.788-3.852-2.572      C170.611,71.467,171.248,65.347,171.923,59.227z M173.136,83.502c-1.273,1.091-2.514,2.221-3.725,3.384      c0.109-1.833,0.235-3.664,0.373-5.494C170.919,82.025,172.034,82.728,173.136,83.502z M163.546,95.331      c1.258-1.51,2.554-2.986,3.877-4.438c-0.169,2.404-0.342,4.924-0.439,7.496c-0.524-0.426-1.043-0.858-1.545-1.298      C164.791,96.525,164.163,95.936,163.546,95.331z M172.814,112.81c-0.258,1.502-0.409,4.007-1.185,5.726      c-1.956-4.632-2.653-9.974-2.794-15.366c0.196-0.115,0.391-0.235,0.586-0.353c1.384,1.072,2.829,2.083,4.318,2.997      C173.518,108.157,173.214,110.49,172.814,112.81z M188.627,100.362c0.892,1.16,1.591,2.432,2.096,3.816      c-1.061,3.498-2.951,4.663-5.668,3.496c-3.039-0.711-6.023-1.851-8.876-3.29c0.195-2.179,0.315-4.363,0.388-6.55      c1.794-1.416,3.511-2.886,5.136-4.354c0.316-0.287,0.648-0.588,0.982-0.895c1.079,1.274,2.129,2.572,3.136,3.9      C186.78,97.748,187.768,99.025,188.627,100.362z"/>
				<g>
					<path style="fill:#7744A8;" d="M103.075,148.193c-0.322-0.454-1.005-0.181-0.896,0.378c0.814,4.194,3.187,8.448,5.132,12.324       c-1.934-1.825-4.379-3.153-6.454-4.817c-2.354-1.889-4.609-3.967-6.43-6.386c-0.096-0.127-0.245-0.139-0.359-0.09       c-0.251-0.892-0.486-1.787-0.698-2.686c-0.141-0.598-1.044-0.344-0.916,0.252c1.498,7.016,2.935,15.308,6.477,21.619       c0.265,0.472,0.946,0.142,0.842-0.355c-1.258-6.013-3.647-11.861-5.405-17.828c2.996,4.522,7.649,9.093,12.558,11.352       c0.319,0.147,0.66-0.034,0.767-0.299c0.03,0.061,0.063,0.124,0.092,0.184c0.277,0.568,1.255,0.168,1.032-0.435       C107.219,157.107,105.75,151.961,103.075,148.193z"/>
					<path style="fill:#7744A8;" d="M120.552,154.95c-0.884-2.275-1.686-4.578-2.453-6.896c-0.253-0.767-1.465-0.444-1.218,0.336       c0.61,1.923,1.183,4.049,1.839,6.16c-2.543,0.407-4.909,1.45-7.254,2.484c-0.097-0.332-0.193-0.651-0.293-0.935       c-0.752-2.151-1.505-4.303-2.257-6.455c-0.23-0.654-1.273-0.376-1.046,0.288c1.078,3.151,2.156,6.301,3.235,9.453       c0.489,1.43,0.666,3.413,2.212,4.019c0.449,0.176,0.723-0.454,0.441-0.757c-0.972-1.048-1.523-2.902-1.993-4.567       c2.432-0.917,4.974-1.291,7.479-1.929c0.748,2.192,1.626,4.308,2.806,6.084c0.364,0.547,1.174,0.2,1.046-0.441       C122.623,159.44,121.422,157.189,120.552,154.95z"/>
					<path style="fill:#7744A8;" d="M130.914,156.501c-0.76-0.41-1.824-0.24-2.834,0.052c0.295-1.225,0.085-2.55-1.016-3.303       c-1.552-1.061-3.778,0.917-2.201,2.285c0.681,0.59,1.638-0.339,0.998-0.999c0.208,0.214,0.399,0.147,0.541,0.517       c0.097,0.253,0.126,0.543,0.111,0.811c-0.033,0.588-0.298,1.111-0.695,1.534c-0.591,0.631,0.002,1.571,0.817,1.403       c0.815-0.168,1.632-0.331,2.454-0.461c0.773-0.122,1.402-0.1,1.975-0.674C131.392,157.338,131.338,156.729,130.914,156.501z"/>
				</g>
				<g>
					<path style="fill:#7744A8;" d="M357.615,202.307c-0.823,0.292-0.675,1.449,0.204,1.511c12.006,0.844,17.545,19.747,6.47,26.044       c-13.913,7.91-18.165-20.052-8.517-26.162c0.242-0.153,0.023-0.532-0.225-0.384c-11.081,6.581-7.484,35.072,8.31,28.708       c6.725-2.71,9.268-10.446,7.871-17.111C370.477,208.942,364.931,199.718,357.615,202.307z"/>
					<path style="fill:#7744A8;" d="M382.102,226.833c-1.118,0.133-2.168,0.569-3.25,0.904c0.287-0.318,0.615-0.61,0.809-0.843       c0.469-0.566,0.865-1.197,1.067-1.91c0.362-1.282,0.044-2.665-0.984-3.55c-1.835-1.581-5.047,0.148-4.024,2.584       c0.479,1.139,2.341,0.71,1.914-0.527c-0.25-0.722,0.659-0.501,0.891-0.124c0.29,0.473-0.005,1.164-0.245,1.585       c-0.352,0.615-0.93,1.1-1.364,1.658c-0.701,0.903-1.005,1.79-0.777,2.925c0.091,0.456,0.621,0.856,1.085,0.827       c1.993-0.126,4.354-0.548,5.62-2.238C383.213,227.63,382.719,226.759,382.102,226.833z"/>
				</g>
			</g>
		</g>
	</g>
</g>
<g id="Designed_by_Freepik">
	<g id="XMLID_31_">
		<g id="XMLID_156_">
			<g id="XMLID_175_">
				<path id="XMLID_183_" style="fill:#F9FBFC;" d="M260.103,469.624c-0.432,0.443-0.803,0.931-1.107,1.453l-0.466-0.241      c-0.066-0.297-0.349-0.502-0.659-0.466c-0.33,0.039-0.567,0.339-0.528,0.67c0.039,0.331,0.339,0.567,0.67,0.528      c0.065-0.007,0.127-0.025,0.184-0.052l0.451,0.234c-0.251,0.554-0.433,1.139-0.539,1.743l0.746,0.132      c0.23-1.306,0.85-2.507,1.792-3.473L260.103,469.624z"/>
				<path id="XMLID_182_" style="fill:#F9FBFC;" d="M265.592,467.322c-0.171,0-0.341,0.006-0.51,0.017l-0.073-0.626      c0.188-0.149,0.296-0.389,0.266-0.645c-0.046-0.393-0.402-0.674-0.796-0.628c-0.393,0.046-0.674,0.402-0.628,0.796      c0.03,0.254,0.189,0.461,0.405,0.564l0.073,0.624c-0.714,0.116-1.403,0.332-2.06,0.647l0.327,0.684      c0.934-0.447,1.941-0.674,2.995-0.674c0.496,0,0.992,0.053,1.475,0.158l0.161-0.741      C266.692,467.381,266.143,467.322,265.592,467.322z"/>
				<path id="XMLID_181_" style="fill:#F9FBFC;" d="M272.194,469.869c0.331-0.04,0.566-0.341,0.525-0.672      c-0.04-0.331-0.342-0.566-0.673-0.525c-0.309,0.038-0.535,0.304-0.529,0.608l-0.416,0.363c-0.418-0.431-0.89-0.813-1.408-1.14      l-0.403,0.642c1.134,0.715,2.02,1.727,2.563,2.925l0.69-0.313c-0.251-0.554-0.567-1.071-0.942-1.545l0.402-0.351      C272.064,469.874,272.129,469.878,272.194,469.869z"/>
				<path id="XMLID_180_" style="fill:#F9FBFC;" d="M265.044,477.53c-0.386,0.023-0.774,0.035-1.157,0.035      c-0.88,0-1.732-0.06-2.479-0.179c-0.39-0.063-0.846-0.155-1.27-0.293c1.046,1.861,3.069,3.125,5.388,3.125      c2.855,0,5.263-1.916,5.95-4.503c-0.682,0.449-1.506,0.825-2.459,1.122C267.839,477.206,266.463,477.445,265.044,477.53z"/>
				<path id="XMLID_176_" style="fill:#F9FBFC;" d="M265.592,468.838c-3.353,0-6.08,2.667-6.08,5.944      c0,0.425,0.047,0.849,0.138,1.261c0.673,0.482,2.706,0.891,5.348,0.731c2.879-0.174,5.297-0.958,6.672-2.159      c-0.006-0.194-0.021-0.39-0.045-0.581C271.243,471.072,268.65,468.838,265.592,468.838z M263.433,475.353      c-1.021,0-1.85-0.83-1.85-1.85c0-1.021,0.829-1.851,1.85-1.851c1.02,0,1.85,0.83,1.85,1.851      C265.282,474.523,264.452,475.353,263.433,475.353z M268.17,474.445c-0.75,0-1.36-0.61-1.36-1.36s0.61-1.36,1.36-1.36      s1.36,0.61,1.36,1.36S268.92,474.445,268.17,474.445z"/>
			</g>
			<path id="XMLID_173_" style="fill:#F9FBFC;" d="M281.595,470.705c-0.294-0.115-0.805-0.309-1.382-0.236     c-0.551,0.068-0.844,0.34-0.844,1.006v0.866h2.228v1.718h-2.228v5.454h-1.932v-5.454h-1.34v-1.718h1.34v-0.888     c0-1.681,0.896-2.783,2.568-2.783c0.642,0,1.157,0.121,1.59,0.308L281.595,470.705z"/>
			<path id="XMLID_171_" style="fill:#F9FBFC;" d="M286.298,474.037c-0.177-0.029-0.358-0.046-0.526-0.046     c-0.895,0-1.51,0.548-1.51,1.613v3.908h-1.932v-7.172h1.872v0.784c0.452-0.673,1.141-0.977,2.021-0.977     c0.414,0,0.848,0.127,1.094,0.337L286.298,474.037z"/>
			<path id="XMLID_168_" style="fill:#F9FBFC;" d="M293.965,475.916c0,0.222-0.015,0.488-0.037,0.651h-5.084     c0.207,1.036,0.933,1.487,1.843,1.487c0.621,0,1.295-0.252,1.814-0.688l1.132,1.243c-0.814,0.748-1.85,1.089-3.057,1.089     c-2.198,0-3.723-1.495-3.723-3.753c0-2.258,1.481-3.797,3.626-3.797C292.544,472.148,293.958,473.681,293.965,475.916z      M288.851,475.25h3.175c-0.177-0.918-0.732-1.436-1.562-1.436C289.554,473.814,289.021,474.361,288.851,475.25z"/>
			<path id="XMLID_165_" style="fill:#F9FBFC;" d="M301.618,475.916c0,0.222-0.015,0.488-0.037,0.651h-5.085     c0.208,1.036,0.933,1.487,1.844,1.487c0.621,0,1.295-0.252,1.814-0.688l1.132,1.243c-0.815,0.748-1.85,1.089-3.057,1.089     c-2.198,0-3.723-1.495-3.723-3.753c0-2.258,1.48-3.797,3.626-3.797C300.197,472.148,301.611,473.681,301.618,475.916z      M296.504,475.25h3.176c-0.178-0.918-0.733-1.436-1.563-1.436C297.207,473.814,296.674,474.361,296.504,475.25z"/>
			<path id="XMLID_162_" style="fill:#F9FBFC;" d="M309.964,475.923c0,2.154-1.495,3.775-3.472,3.775     c-0.962,0-1.643-0.378-2.108-0.933v3.708h-1.925v-10.133h1.888v0.792c0.466-0.585,1.154-0.984,2.139-0.984     C308.469,472.148,309.964,473.77,309.964,475.923z M304.287,475.923c0,1.133,0.747,1.977,1.843,1.977     c1.14,0,1.851-0.881,1.851-1.977c0-1.095-0.711-1.976-1.851-1.976C305.034,473.947,304.287,474.791,304.287,475.923z"/>
			<path id="XMLID_159_" style="fill:#F9FBFC;" d="M313.067,469.994c0,0.696-0.54,1.229-1.236,1.229     c-0.695,0-1.229-0.532-1.229-1.229c0-0.695,0.533-1.243,1.229-1.243C312.527,468.751,313.067,469.299,313.067,469.994z      M312.809,479.513h-1.932v-7.172h1.932V479.513z"/>
			<path id="XMLID_157_" style="fill:#F9FBFC;" d="M316.032,474.895l2.701-2.554h2.368l-3.479,3.375l3.501,3.797h-2.376     l-2.716-2.901v2.901h-1.932v-10.658h1.932V474.895z"/>
		</g>
		<g id="XMLID_32_">
			<path id="XMLID_153_" style="fill:#F9FBFC;" d="M184.413,479.447v-1.055c-0.527,0.719-1.392,1.231-2.388,1.231     c-1.846,0-3.149-1.406-3.149-3.706c0-2.256,1.289-3.721,3.149-3.721c0.952,0,1.816,0.469,2.388,1.245v-3.765h1.099v9.77H184.413z      M184.413,477.529v-3.208c-0.396-0.615-1.245-1.143-2.124-1.143c-1.421,0-2.27,1.172-2.27,2.739s0.85,2.725,2.27,2.725     C183.168,478.643,184.018,478.145,184.413,477.529z"/>
			<path id="XMLID_150_" style="fill:#F9FBFC;" d="M186.932,475.903c0-2.051,1.465-3.706,3.486-3.706     c2.139,0,3.398,1.67,3.398,3.794v0.278h-5.728c0.088,1.333,1.025,2.446,2.549,2.446c0.806,0,1.626-0.323,2.183-0.893l0.527,0.718     c-0.703,0.703-1.655,1.084-2.813,1.084C188.44,479.624,186.932,478.115,186.932,475.903z M190.403,473.105     c-1.509,0-2.256,1.274-2.314,2.358h4.644C192.718,474.409,192.015,473.105,190.403,473.105z"/>
			<path id="XMLID_148_" style="fill:#F9FBFC;" d="M194.607,478.51l0.571-0.79c0.469,0.542,1.362,1.011,2.328,1.011     c1.085,0,1.671-0.513,1.671-1.216c0-1.714-4.38-0.659-4.38-3.281c0-1.099,0.951-2.036,2.636-2.036     c1.202,0,2.052,0.454,2.623,1.025l-0.514,0.762c-0.424-0.513-1.2-0.894-2.109-0.894c-0.966,0-1.567,0.483-1.567,1.113     c0,1.553,4.38,0.527,4.38,3.281c0,1.186-0.951,2.139-2.782,2.139C196.307,479.624,195.324,479.272,194.607,478.51z"/>
			<path id="XMLID_145_" style="fill:#F9FBFC;" d="M201.477,470.63c0-0.41,0.337-0.747,0.732-0.747c0.41,0,0.747,0.337,0.747,0.747     c0,0.41-0.337,0.732-0.747,0.732C201.814,471.362,201.477,471.04,201.477,470.63z M201.667,479.447v-7.074h1.1v7.074H201.667z"/>
			<path id="XMLID_142_" style="fill:#F9FBFC;" d="M204.582,481.264l0.557-0.82c0.586,0.704,1.289,0.968,2.3,0.968     c1.172,0,2.271-0.571,2.271-2.124v-1.012c-0.513,0.719-1.377,1.261-2.373,1.261c-1.846,0-3.149-1.377-3.149-3.662     c0-2.271,1.289-3.677,3.149-3.677c0.952,0,1.802,0.469,2.373,1.245v-1.069h1.099v6.87c0,2.344-1.641,3.075-3.369,3.075     C206.237,482.318,205.417,482.084,204.582,481.264z M209.709,477.412v-3.091c-0.381-0.615-1.231-1.143-2.109-1.143     c-1.421,0-2.27,1.128-2.27,2.695c0,1.553,0.85,2.695,2.27,2.695C208.478,478.569,209.328,478.027,209.709,477.412z"/>
			<path id="XMLID_140_" style="fill:#F9FBFC;" d="M217.413,479.447v-4.628c0-1.245-0.63-1.641-1.582-1.641     c-0.864,0-1.685,0.527-2.094,1.099v5.17h-1.099v-7.074h1.099v1.025c0.497-0.586,1.464-1.201,2.519-1.201     c1.479,0,2.256,0.747,2.256,2.285v4.965H217.413z"/>
			<path id="XMLID_137_" style="fill:#F9FBFC;" d="M219.933,475.903c0-2.051,1.465-3.706,3.486-3.706     c2.139,0,3.398,1.67,3.398,3.794v0.278h-5.728c0.088,1.333,1.025,2.446,2.549,2.446c0.806,0,1.626-0.323,2.183-0.893l0.527,0.718     c-0.703,0.703-1.655,1.084-2.813,1.084C221.441,479.624,219.933,478.115,219.933,475.903z M223.404,473.105     c-1.509,0-2.256,1.274-2.314,2.358h4.644C225.719,474.409,225.016,473.105,223.404,473.105z"/>
			<path id="XMLID_134_" style="fill:#F9FBFC;" d="M233.351,479.447v-1.055c-0.527,0.719-1.392,1.231-2.389,1.231     c-1.846,0-3.148-1.406-3.148-3.706c0-2.256,1.288-3.721,3.148-3.721c0.952,0,1.817,0.469,2.389,1.245v-3.765h1.098v9.77H233.351z      M233.351,477.529v-3.208c-0.396-0.615-1.245-1.143-2.124-1.143c-1.421,0-2.27,1.172-2.27,2.739s0.85,2.725,2.27,2.725     C232.105,478.643,232.954,478.145,233.351,477.529z"/>
			<path id="XMLID_38_" style="fill:#F9FBFC;" d="M239.692,479.447v-9.77h1.099v3.765c0.571-0.776,1.421-1.245,2.388-1.245     c1.845,0,3.149,1.465,3.149,3.721c0,2.3-1.305,3.706-3.149,3.706c-0.996,0-1.86-0.513-2.388-1.231v1.055H239.692z      M242.899,478.643c1.436,0,2.286-1.157,2.286-2.725s-0.85-2.739-2.286-2.739c-0.863,0-1.727,0.527-2.108,1.143v3.208     C241.172,478.145,242.036,478.643,242.899,478.643z"/>
			<path id="XMLID_33_" style="fill:#F9FBFC;" d="M247.528,481.221c0.161,0.073,0.425,0.117,0.601,0.117     c0.483,0,0.806-0.161,1.055-0.747l0.469-1.069l-2.959-7.149h1.186l2.358,5.801l2.344-5.801h1.201l-3.545,8.511     c-0.425,1.024-1.143,1.421-2.08,1.435c-0.234,0-0.601-0.043-0.806-0.102L247.528,481.221z"/>
		</g>
	</g>
</g>
</svg>