<?xml version="1.0" encoding="UTF-8"?>
<svg xmlns="http://www.w3.org/2000/svg" xmlns:xlink="http://www.w3.org/1999/xlink" version="1.1" id="Layer_1" x="0px" y="0px" viewBox="0 0 450 450" style="background: transparent;" xml:space="preserve">

<g>
	<path style="fill:#002840;" d="M192.071,74.735c0.284,1.591,0.742,3.969,1.393,7.134c0.301,1.06,0.607,2.112,0.914,3.155   c0.228,1.399-0.132,2.326-1.083,2.778c-0.599,0.288-1.171,0.309-1.708,0.066c-0.461-0.205-0.803-0.545-1.032-1.022   c-0.665-1.405-1.184-3.256-1.549-5.562c-0.549-3.45-0.87-5.355-0.957-5.717c-0.385-1.453-0.762-2.911-1.139-4.37   c-0.487-2.022-0.648-3.446-0.485-4.276c0.167-0.827,0.593-1.405,1.285-1.734c0.789-0.379,1.561-0.256,2.31,0.366   c0.71,0.587,1.817,1.952,3.324,4.092c1.462,2.08,3.19,4.244,5.185,6.494c-0.237-3.042-0.667-6.307-1.281-9.788l-0.697-3.334   c-0.123-1.461,0.304-2.427,1.283-2.894c0.943-0.449,1.986-0.066,3.133,1.153c0.465,0.489,1.19,1.477,2.163,2.958   c2.262,3.451,4.398,6.313,6.418,8.584c2.051,2.309,3.126,3.58,3.24,3.814c0.242,0.513,0.24,1.04,0.001,1.578   c-0.229,0.492-0.587,0.855-1.065,1.083c-0.946,0.45-1.967,0.109-3.069-1.025l-2.233-2.796c-1.158-1.364-2.672-3.389-4.551-6.078   c0.164,1.348,0.391,3.479,0.673,6.396l0.357,2.761c0.131,1.1,0.165,2.035,0.109,2.804c-0.071,1.026-0.521,1.738-1.345,2.128   c-0.818,0.386-1.667,0.204-2.559-0.55l-1.879-2.068C195.492,78.963,193.773,76.921,192.071,74.735z"/>
	<path style="fill:#002840;" d="M221.338,56.395c-0.779,0.373-1.555,0.238-2.321-0.41c-0.352-0.307-0.636-0.458-0.851-0.453   c-0.159-0.001-0.519,0.132-1.073,0.4c-1.092,0.518-1.941,1.968-2.565,4.346c-0.867,3.333-0.811,6.03,0.177,8.102   c0.45,0.943,1.153,1.602,2.102,1.977c0.96,0.374,1.882,0.35,2.761-0.067c0.86-0.413,1.621-1.049,2.295-1.923   c0.231-0.313,0.687-1.053,1.365-2.215c0.461-0.771,0.868-1.243,1.212-1.405c0.522-0.249,1.053-0.271,1.6-0.063   c0.506,0.192,0.865,0.52,1.088,0.981c0.24,0.508,0.229,1.063-0.039,1.658c-1.428,3.146-3.374,5.309-5.84,6.483   c-1.949,0.931-3.932,1.007-5.953,0.227c-1.939-0.761-3.347-2.065-4.231-3.92c-1.385-2.903-1.526-6.471-0.428-10.704   c0.934-3.598,2.53-5.927,4.78-7c0.38-0.182,0.735-0.334,1.056-0.456c0.316-0.121,0.606-0.214,0.867-0.271   c0.203-0.553,0.574-0.959,1.109-1.217c0.884-0.419,1.673-0.171,2.361,0.742c0.493,0.657,0.977,1.47,1.44,2.441   c0.205,0.433,0.266,0.891,0.185,1.365C222.326,55.641,221.964,56.099,221.338,56.395z"/>
	<g>
		<path style="fill:#002840;" d="M231.586,46.383c-0.137,0.062-0.355,0.14-0.666,0.233c-0.305,0.087-0.518,0.162-0.645,0.222    l-2.395,1.13c-0.203,0.099-0.502,0.271-0.895,0.525c-0.395,0.25-0.697,0.425-0.91,0.526c-0.059,0.026-0.153,0.059-0.274,0.093    c-0.129,0.034-0.219,0.063-0.277,0.09c-0.49,0.233-0.916,0.192-1.278-0.121c-0.228-0.199-0.459-0.56-0.711-1.08    c-0.487-1.01-0.663-1.97-0.537-2.867c0.095-0.689,0.408-1.485,0.928-2.38c0.503-0.833,1.005-1.662,1.504-2.483    c0.559-1.035,0.649-1.946,0.271-2.736c-0.099-0.208-0.365-0.33-0.804-0.369c-0.438-0.043-0.821,0.017-1.145,0.167    c-0.573,0.276-1.064,0.822-1.462,1.643c-0.4,0.818-0.717,1.283-0.956,1.395c-0.288,0.139-0.575,0.192-0.856,0.15    c-0.354-0.045-0.603-0.222-0.75-0.529c-0.16-0.331-0.158-0.678-0.003-1.046c0.382-0.894,0.75-1.589,1.113-2.091    c0.521-0.718,1.159-1.258,1.912-1.616c0.938-0.45,1.903-0.604,2.891-0.47c1.135,0.152,1.915,0.685,2.348,1.596    c0.441,0.92,0.605,1.805,0.49,2.654c-0.086,0.674-0.373,1.422-0.855,2.252c-0.475,0.752-0.951,1.501-1.428,2.248    c-0.712,1.164-0.894,2.194-0.557,3.092c0.276-0.181,0.698-0.433,1.251-0.759c1.127-0.613,1.941-1.033,2.443-1.273    c0.465-0.221,0.973-0.34,1.525-0.359c0.684-0.018,1.113,0.168,1.305,0.559c0.133,0.284,0.148,0.576,0.051,0.882    C232.109,45.994,231.9,46.229,231.586,46.383z"/>
	</g>
</g>
<g>
	<path style="fill:#002840;" d="M363.234,229.678c2.426-9.396,1.553-17.119-3.201-20.824c-5.604-4.369-15.313-2.125-25.631,4.846   c-0.994-1.004-1.992-1.949-2.99-2.826c0.543-1.527,0.492-3.264-0.293-4.824c-1.525-3.025-5.219-4.244-8.242-2.719   c-0.541,0.271-1.02,0.615-1.44,1.008c-4.185-1.742-8.07-1.978-11.262-0.369c-0.365,0.186-0.715,0.396-1.053,0.625   c-0.109,0.07-0.209,0.152-0.314,0.229c-0.229,0.168-0.451,0.34-0.666,0.525c-0.111,0.098-0.219,0.197-0.328,0.299   c-0.201,0.191-0.398,0.393-0.586,0.6c-0.096,0.105-0.191,0.209-0.283,0.318c-0.213,0.252-0.416,0.516-0.609,0.791   c-0.057,0.078-0.115,0.148-0.168,0.229c-0.252,0.371-0.49,0.762-0.713,1.17c-0.012,0.023-0.021,0.047-0.033,0.066   c-0.207,0.385-0.398,0.789-0.58,1.205c-0.043,0.1-0.082,0.199-0.121,0.299c-0.15,0.361-0.289,0.729-0.42,1.111   c-0.035,0.107-0.072,0.215-0.105,0.324c-0.135,0.412-0.256,0.838-0.369,1.275c-0.018,0.072-0.039,0.143-0.057,0.215   c-0.398,1.615-0.656,3.383-0.777,5.281c-0.002,0.021-0.002,0.043-0.004,0.066c-0.039,0.623-0.061,1.262-0.07,1.91   c0,0.016,0,0.033,0,0.049c-0.033,2.689,0.189,5.6,0.662,8.674c-6.603,2.332-11.891,5.396-15.225,8.9   c-0.039,0.041-0.072,0.086-0.111,0.127c-0.326,0.35-0.639,0.699-0.924,1.055c-0.076,0.094-0.137,0.191-0.211,0.287   c-0.236,0.305-0.471,0.613-0.678,0.926c-0.102,0.154-0.182,0.313-0.277,0.467c-0.154,0.258-0.318,0.512-0.453,0.771   c-0.148,0.285-0.268,0.576-0.391,0.863c-0.057,0.135-0.129,0.266-0.182,0.4c-0.141,0.371-0.252,0.746-0.352,1.121   c-0.016,0.055-0.039,0.111-0.053,0.166c-0.105,0.43-0.182,0.861-0.23,1.297c-0.002,0.004-0.002,0.008-0.002,0.012   c-0.049,0.438-0.068,0.881-0.057,1.324c0.008,0.354,0.037,0.705,0.084,1.051c0.018,0.125,0.045,0.246,0.066,0.369   c0.039,0.225,0.076,0.445,0.129,0.664c0.035,0.148,0.084,0.297,0.127,0.445c0.057,0.189,0.109,0.381,0.176,0.568   c0.057,0.16,0.123,0.32,0.188,0.479c0.07,0.172,0.141,0.346,0.219,0.516c0.078,0.166,0.164,0.332,0.248,0.496   c0.084,0.16,0.168,0.318,0.26,0.477c0.098,0.172,0.203,0.34,0.313,0.508c0.094,0.148,0.19,0.295,0.291,0.441   c0.121,0.174,0.248,0.348,0.377,0.52c0.104,0.135,0.209,0.27,0.32,0.404c0.143,0.178,0.291,0.354,0.445,0.529   c0.109,0.123,0.223,0.244,0.338,0.369c0.168,0.18,0.34,0.361,0.521,0.539c0.111,0.109,0.227,0.217,0.34,0.324   c0.199,0.188,0.4,0.375,0.609,0.561c0.105,0.088,0.213,0.176,0.318,0.266c0.236,0.197,0.473,0.395,0.721,0.588   c0.078,0.063,0.162,0.121,0.242,0.182c0.287,0.219,0.576,0.436,0.881,0.647c0.002,0.002,0.004,0.002,0.004,0.004   c1.492,1.039,3.188,2.01,5.063,2.902c-0.127,0.08-0.246,0.166-0.363,0.254c-0.041,0.029-0.082,0.057-0.123,0.088   c-0.101,0.078-0.197,0.162-0.293,0.25c-0.053,0.043-0.103,0.086-0.154,0.133c-0.086,0.082-0.168,0.168-0.248,0.256   c-0.053,0.055-0.107,0.109-0.156,0.166c-0.074,0.084-0.145,0.174-0.215,0.264c-0.049,0.063-0.098,0.125-0.145,0.189   c-0.064,0.09-0.123,0.18-0.184,0.273c-0.043,0.068-0.088,0.139-0.131,0.209c-0.053,0.092-0.104,0.185-0.152,0.281   c-0.039,0.074-0.078,0.15-0.113,0.227c-0.043,0.096-0.084,0.189-0.123,0.285c-0.033,0.082-0.066,0.162-0.094,0.246   c-0.035,0.096-0.066,0.191-0.096,0.289c-0.027,0.086-0.051,0.174-0.072,0.26c-0.025,0.096-0.049,0.191-0.066,0.291   c-0.02,0.09-0.035,0.182-0.051,0.273c-0.014,0.096-0.029,0.19-0.039,0.287c-0.012,0.096-0.018,0.191-0.023,0.289   c-0.006,0.094-0.012,0.188-0.014,0.283c-0.002,0.1,0.002,0.199,0.006,0.301c0.002,0.09,0.004,0.182,0.012,0.275   c0.008,0.104,0.021,0.209,0.035,0.313c0.012,0.088,0.022,0.176,0.037,0.264c0.02,0.111,0.047,0.223,0.072,0.332   c0.02,0.08,0.035,0.162,0.057,0.242c0.033,0.123,0.078,0.246,0.119,0.367c0.023,0.068,0.043,0.135,0.068,0.201   c0.072,0.188,0.154,0.375,0.246,0.557c0.094,0.188,0.197,0.367,0.307,0.539c0.051,0.08,0.107,0.152,0.162,0.23   c0.063,0.088,0.121,0.178,0.188,0.264c0.082,0.104,0.172,0.201,0.26,0.301c0.043,0.049,0.084,0.1,0.129,0.147   c0.113,0.117,0.233,0.227,0.354,0.336c0.023,0.02,0.045,0.043,0.068,0.064c0.145,0.125,0.293,0.238,0.447,0.35   c0.002,0.002,0.004,0.002,0.006,0.004c0.473,0.336,0.988,0.6,1.529,0.791v0.002c0.027,1.197,0.137,2.334,0.33,3.4   c0.002,0.01,0.004,0.017,0.006,0.025c0.096,0.521,0.211,1.021,0.348,1.508c0.01,0.037,0.021,0.074,0.033,0.111   c0.133,0.455,0.281,0.898,0.451,1.324c0.008,0.022,0.016,0.047,0.025,0.07c0.172,0.422,0.363,0.828,0.572,1.215   c0.037,0.07,0.076,0.137,0.115,0.205c0.201,0.357,0.414,0.701,0.648,1.027c0.018,0.025,0.035,0.053,0.053,0.078   c0.246,0.334,0.512,0.647,0.793,0.947c0.066,0.07,0.133,0.139,0.201,0.207c0.291,0.293,0.594,0.574,0.922,0.83   c0.324,0.252,0.664,0.477,1.016,0.688c0.109,0.063,0.225,0.119,0.336,0.182c0.25,0.135,0.504,0.266,0.768,0.379   c0.131,0.061,0.266,0.113,0.402,0.166c0.262,0.104,0.529,0.195,0.803,0.277c0.133,0.041,0.264,0.082,0.398,0.119   c0.322,0.086,0.65,0.154,0.986,0.213c0.09,0.018,0.178,0.039,0.27,0.053c0.443,0.07,0.898,0.119,1.363,0.145   c0.025,0.002,0.049,0.002,0.072,0.002c0.438,0.021,0.883,0.023,1.338,0.01c0.109-0.006,0.219-0.014,0.328-0.02   c0.385-0.018,0.773-0.051,1.17-0.096c0.117-0.014,0.236-0.027,0.353-0.043c0.422-0.055,0.852-0.125,1.285-0.209   c0.082-0.016,0.162-0.029,0.244-0.045c1.621-0.328,3.318-0.848,5.074-1.545c0.037-0.014,0.076-0.029,0.113-0.045   c0.559-0.225,1.123-0.467,1.693-0.727c0.033-0.016,0.066-0.029,0.1-0.045c2.435-1.119,4.961-2.557,7.525-4.291   c0.002,0,0.002-0.002,0.002-0.002c0.016,0.016,0.029,0.027,0.043,0.041c2.158,2.172,4.334,4.055,6.482,5.611   c0.051,0.035,0.1,0.07,0.148,0.105c0.488,0.35,0.975,0.684,1.459,0.998c0.049,0.033,0.1,0.066,0.148,0.1   c1.58,1.018,3.137,1.852,4.654,2.484c0.084,0.037,0.166,0.066,0.25,0.1c0.404,0.164,0.805,0.313,1.203,0.449   c0.115,0.039,0.232,0.076,0.348,0.113c0.377,0.121,0.752,0.225,1.123,0.318c0.105,0.027,0.215,0.057,0.32,0.082   c0.443,0.104,0.883,0.188,1.316,0.252c0.021,0.004,0.045,0.01,0.068,0.012c0.463,0.065,0.918,0.105,1.367,0.123   c0.092,0.004,0.182,0,0.273,0.002c0.34,0.008,0.678,0.002,1.01-0.02c0.139-0.008,0.275-0.023,0.414-0.037   c0.283-0.029,0.565-0.068,0.842-0.117c0.143-0.025,0.285-0.053,0.426-0.084c0.281-0.063,0.557-0.139,0.828-0.225   c0.121-0.037,0.244-0.07,0.365-0.113c0.383-0.137,0.762-0.291,1.129-0.477c6.35-3.199,8.49-12.932,6.598-25.246   c1.172-0.412,2.299-0.85,3.385-1.307c1.727,0.98,3.895,1.109,5.803,0.148c2.096-1.059,3.322-3.154,3.371-5.348   c4.27-3.328,6.684-7.176,6.584-11.227C377.906,238.6,372.227,233.313,363.234,229.678z M354.135,213.691   c5.685,4.43,4.781,15.682-1.34,28.117c-0.799-1.852-1.66-3.713-2.598-5.572c-1.621-3.219-3.367-6.258-5.193-9.109   c4.459,0.67,8.529,1.707,12.061,3.031c0.191-0.828,0.342-1.637,0.471-2.436c-4.193-1.203-8.865-2.109-13.875-2.633   c-2.398-3.539-4.92-6.74-7.49-9.539C343.463,211.498,350.078,210.525,354.135,213.691z M354.006,250.225   c0.762,2.523,1.355,4.98,1.779,7.338c-2.691,1.029-5.666,1.914-8.871,2.609c0.357-0.445,0.715-0.887,1.068-1.342   C350.203,255.984,352.207,253.1,354.006,250.225z M308.064,245.74c0.293,0.768,0.598,1.539,0.914,2.313   c0.016,0.037,0.029,0.076,0.047,0.113c0.287,0.701,0.588,1.404,0.895,2.111c0.051,0.113,0.098,0.225,0.148,0.338   c0.279,0.631,0.568,1.262,0.863,1.895c0.078,0.168,0.152,0.336,0.233,0.504c0.365,0.771,0.742,1.545,1.131,2.318   c0.445,0.885,0.902,1.75,1.365,2.609c0.066,0.123,0.135,0.244,0.203,0.367c0.447,0.822,0.902,1.633,1.365,2.428   c-0.01,0-0.018,0-0.025-0.002c-0.529-0.098-1.049-0.197-1.564-0.305c-0.039-0.008-0.076-0.018-0.115-0.023   c-0.504-0.105-1.002-0.217-1.496-0.33c-0.043-0.012-0.084-0.022-0.125-0.031c-0.49-0.115-0.973-0.234-1.449-0.359   c-0.041-0.012-0.08-0.021-0.121-0.033c-0.477-0.127-0.947-0.256-1.41-0.391c-0.035-0.01-0.07-0.023-0.105-0.033   c-0.467-0.137-0.928-0.277-1.379-0.426c-0.027-0.008-0.053-0.016-0.08-0.025c-0.459-0.15-0.91-0.303-1.353-0.461   c-0.016-0.006-0.031-0.014-0.047-0.018c-0.453-0.162-0.898-0.332-1.334-0.504c-0.443-0.176-0.877-0.353-1.303-0.541   c0.15-0.531,0.315-1.068,0.488-1.609c0.076-0.234,0.156-0.471,0.236-0.705c0.193-0.566,0.395-1.133,0.611-1.707   c0.07-0.189,0.145-0.379,0.219-0.568c0.219-0.563,0.451-1.127,0.693-1.697c0.08-0.188,0.158-0.375,0.24-0.563   c0.291-0.664,0.598-1.336,0.92-2.01c0.08-0.166,0.164-0.336,0.246-0.504C307.322,247.178,307.682,246.461,308.064,245.74z    M301.074,256.193c-0.053-0.025-0.103-0.057-0.158-0.086c-0.31-0.164-0.617-0.328-0.916-0.498c-0.158-0.09-0.309-0.182-0.461-0.273   c-0.199-0.117-0.398-0.236-0.592-0.355c-0.158-0.1-0.313-0.201-0.467-0.303c-0.176-0.117-0.352-0.232-0.523-0.352   c-0.152-0.105-0.299-0.211-0.445-0.318c-0.164-0.119-0.324-0.238-0.48-0.359c-0.141-0.109-0.281-0.219-0.416-0.328   c-0.152-0.123-0.299-0.248-0.445-0.375c-0.127-0.109-0.256-0.221-0.381-0.334c-0.145-0.133-0.283-0.268-0.424-0.402   c-0.109-0.109-0.221-0.213-0.326-0.322c-0.168-0.17-0.322-0.346-0.477-0.52c-0.1-0.113-0.199-0.227-0.295-0.342   c-0.17-0.205-0.336-0.412-0.49-0.623c-0.076-0.104-0.145-0.213-0.217-0.316c-0.105-0.156-0.211-0.311-0.31-0.469   c-0.07-0.113-0.133-0.23-0.199-0.348c-0.086-0.15-0.17-0.303-0.248-0.455c-0.059-0.119-0.115-0.238-0.168-0.357   c-0.072-0.154-0.137-0.311-0.197-0.467c-0.049-0.119-0.094-0.238-0.135-0.359c-0.057-0.162-0.105-0.326-0.152-0.492   c-0.031-0.115-0.064-0.229-0.092-0.344c-0.045-0.184-0.076-0.369-0.107-0.555c-0.018-0.098-0.037-0.195-0.051-0.295   c-0.037-0.285-0.063-0.572-0.07-0.861c-0.008-0.322,0.002-0.641,0.033-0.961c0.006-0.086,0.027-0.172,0.037-0.258   c0.029-0.23,0.057-0.463,0.105-0.689c0.016-0.076,0.041-0.146,0.057-0.219c0.059-0.242,0.115-0.48,0.195-0.719   c0.027-0.088,0.068-0.174,0.1-0.262c0.08-0.223,0.158-0.445,0.256-0.664c0.041-0.094,0.096-0.186,0.141-0.281   c0.102-0.209,0.199-0.42,0.318-0.627c0.068-0.125,0.154-0.248,0.228-0.371c0.109-0.174,0.211-0.35,0.328-0.523   c0.082-0.119,0.18-0.238,0.268-0.357c0.127-0.172,0.248-0.346,0.387-0.518c0.094-0.115,0.201-0.229,0.299-0.342   c0.146-0.174,0.289-0.346,0.449-0.516c0.111-0.119,0.238-0.236,0.355-0.355c0.158-0.162,0.313-0.324,0.482-0.482   c0.131-0.121,0.273-0.24,0.41-0.361c0.172-0.152,0.336-0.305,0.516-0.455c0.156-0.129,0.326-0.256,0.49-0.385   c0.172-0.135,0.34-0.273,0.52-0.406c0.18-0.133,0.371-0.262,0.557-0.395c0.18-0.125,0.352-0.252,0.537-0.375   c0.201-0.137,0.416-0.268,0.627-0.398c0.182-0.115,0.355-0.234,0.543-0.348c0.252-0.15,0.516-0.297,0.777-0.445   c0.156-0.09,0.307-0.182,0.469-0.27c0.301-0.166,0.613-0.324,0.926-0.486c0.133-0.066,0.26-0.137,0.395-0.203   c0.363-0.184,0.738-0.357,1.117-0.533c0.09-0.041,0.174-0.084,0.266-0.125c0,0,0,0.002,0,0.004   c0.357,1.854,0.803,3.754,1.332,5.693c0.006,0.02,0.012,0.041,0.018,0.061c0.533,1.943,1.15,3.922,1.855,5.928   c0,0.002,0.002,0.004,0.002,0.006C304.66,247.793,302.6,252.098,301.074,256.193z M324.228,273.662   c-1.865,1.072-3.688,1.943-5.438,2.6c-0.06,0.023-0.121,0.043-0.184,0.065c-0.363,0.135-0.727,0.262-1.082,0.375   c-0.105,0.035-0.207,0.063-0.311,0.094c-0.313,0.096-0.621,0.188-0.928,0.268c-0.127,0.033-0.252,0.063-0.377,0.094   c-0.279,0.068-0.557,0.131-0.828,0.188c-0.141,0.029-0.277,0.053-0.416,0.078c-0.254,0.045-0.508,0.088-0.756,0.121   c-0.146,0.02-0.291,0.037-0.438,0.055c-0.234,0.027-0.469,0.049-0.699,0.064c-0.148,0.01-0.297,0.018-0.443,0.023   c-0.221,0.008-0.439,0.012-0.654,0.01c-0.148-0.002-0.297-0.004-0.443-0.01c-0.209-0.01-0.412-0.023-0.615-0.043   c-0.145-0.014-0.291-0.025-0.434-0.043c-0.197-0.025-0.391-0.063-0.584-0.098c-0.139-0.025-0.279-0.049-0.416-0.078   c-0.191-0.045-0.375-0.1-0.561-0.15c-0.131-0.039-0.262-0.072-0.389-0.115c-0.188-0.064-0.369-0.139-0.549-0.213   c-0.115-0.047-0.236-0.092-0.35-0.145c-0.193-0.088-0.379-0.191-0.563-0.295c-0.094-0.053-0.189-0.096-0.281-0.152   c-0.271-0.164-0.533-0.342-0.785-0.539c-0.357-0.279-0.684-0.586-0.988-0.918c-0.137-0.147-0.25-0.313-0.373-0.469   c-0.158-0.195-0.318-0.385-0.459-0.596c-0.137-0.203-0.252-0.426-0.375-0.645c-0.103-0.184-0.213-0.367-0.305-0.56   c-0.115-0.24-0.213-0.494-0.313-0.748c-0.053-0.137-0.105-0.273-0.154-0.414c0.006-0.002,0.01-0.004,0.016-0.006   c0.18-0.092,0.354-0.191,0.52-0.297c0.059-0.037,0.113-0.078,0.172-0.117c0.103-0.072,0.209-0.145,0.309-0.221   c0.064-0.051,0.127-0.105,0.189-0.158c0.086-0.07,0.168-0.143,0.248-0.217c0.064-0.063,0.127-0.127,0.189-0.189   c0.07-0.072,0.139-0.143,0.205-0.217c0.063-0.072,0.125-0.146,0.184-0.221c0.057-0.07,0.111-0.141,0.164-0.213   c0.061-0.084,0.121-0.168,0.178-0.254c0.043-0.066,0.084-0.133,0.123-0.199c0.059-0.096,0.115-0.193,0.17-0.293   c0.029-0.057,0.055-0.113,0.084-0.17c0.055-0.113,0.109-0.229,0.16-0.344c0.014-0.035,0.023-0.068,0.037-0.102   c0.516-1.293,0.59-2.75,0.145-4.137c0.012,0.004,0.021,0.006,0.031,0.008c0.957,0.262,1.939,0.506,2.939,0.736   c0.041,0.008,0.08,0.017,0.121,0.027c1.023,0.232,2.068,0.447,3.135,0.643c0.014,0.004,0.027,0.004,0.041,0.006   c2.168,0.398,4.42,0.723,6.744,0.965c1.303,1.924,2.645,3.748,4.01,5.461c0.006,0.008,0.012,0.016,0.018,0.023   c0.438,0.549,0.879,1.086,1.32,1.611c0.018,0.02,0.033,0.041,0.051,0.063C324.238,273.656,324.232,273.66,324.228,273.662z    M323.984,261.799c-0.748-0.049-1.492-0.103-2.227-0.172c-0.006-0.008-0.01-0.016-0.016-0.024c-0.396-0.6-0.785-1.213-1.172-1.834   c-0.123-0.197-0.242-0.4-0.365-0.6c-0.27-0.443-0.537-0.891-0.803-1.342c-0.133-0.228-0.266-0.459-0.398-0.688   c-0.262-0.461-0.522-0.926-0.779-1.395c-0.113-0.209-0.23-0.416-0.344-0.629c-0.363-0.678-0.723-1.361-1.074-2.057   c-0.299-0.592-0.588-1.184-0.867-1.773c-0.09-0.186-0.172-0.371-0.26-0.557c-0.188-0.402-0.377-0.807-0.559-1.211   c-0.102-0.227-0.197-0.453-0.297-0.68c-0.158-0.361-0.318-0.723-0.469-1.084c-0.103-0.24-0.199-0.482-0.299-0.725   c-0.142-0.344-0.283-0.686-0.42-1.029c-0.098-0.25-0.191-0.498-0.289-0.748c-0.127-0.332-0.254-0.666-0.377-0.996   c-0.094-0.254-0.184-0.506-0.275-0.758c-0.115-0.324-0.23-0.65-0.342-0.975c-0.088-0.256-0.172-0.51-0.256-0.762   c-0.105-0.318-0.209-0.635-0.309-0.951c-0.082-0.258-0.162-0.516-0.24-0.771c-0.094-0.309-0.186-0.617-0.275-0.922   c-0.074-0.26-0.148-0.518-0.219-0.773c-0.084-0.301-0.166-0.602-0.244-0.902c-0.068-0.26-0.137-0.518-0.201-0.773   c-0.072-0.293-0.143-0.584-0.211-0.873c-0.063-0.26-0.125-0.52-0.182-0.775c-0.063-0.283-0.123-0.564-0.18-0.846   c-0.057-0.26-0.111-0.521-0.162-0.779c-0.053-0.27-0.1-0.537-0.15-0.807c-0.047-0.262-0.096-0.523-0.139-0.785   c-0.043-0.258-0.082-0.512-0.121-0.77c-0.039-0.264-0.082-0.529-0.117-0.789c-0.033-0.242-0.061-0.48-0.09-0.721   c-0.033-0.268-0.068-0.539-0.096-0.805c-0.023-0.211-0.039-0.422-0.06-0.633c-0.025-0.287-0.055-0.574-0.076-0.855   c-0.01-0.137-0.014-0.27-0.023-0.404c-0.078-1.209-0.104-2.377-0.076-3.498c0.002-0.07,0.002-0.145,0.004-0.215   c0.01-0.324,0.031-0.641,0.049-0.957c0.008-0.115,0.012-0.232,0.022-0.348c0.021-0.299,0.051-0.59,0.08-0.881   c0.014-0.123,0.023-0.25,0.039-0.373c0.031-0.283,0.072-0.557,0.113-0.832c0.02-0.123,0.037-0.25,0.057-0.373   c0.045-0.266,0.096-0.527,0.148-0.789c0.023-0.119,0.047-0.24,0.072-0.359c0.057-0.256,0.117-0.506,0.182-0.752   c0.031-0.113,0.059-0.229,0.09-0.34c0.068-0.246,0.143-0.484,0.219-0.719c0.033-0.105,0.068-0.213,0.103-0.314   c0.08-0.234,0.166-0.463,0.254-0.686c0.039-0.098,0.078-0.191,0.117-0.289c0.094-0.221,0.191-0.438,0.293-0.648   c0.043-0.088,0.086-0.174,0.129-0.258c0.107-0.211,0.219-0.416,0.334-0.617c0.043-0.074,0.09-0.148,0.135-0.223   c0.123-0.201,0.248-0.396,0.381-0.586c0.043-0.063,0.088-0.123,0.135-0.184c0.139-0.191,0.281-0.377,0.43-0.553   c0.041-0.051,0.086-0.096,0.127-0.143c0.16-0.182,0.322-0.357,0.492-0.525c0.033-0.031,0.066-0.059,0.1-0.09   c0.184-0.176,0.373-0.344,0.572-0.502c0.443-0.352,0.916-0.662,1.424-0.92c1.359-0.684,2.867-0.971,4.482-0.9   c0.02,0.883,0.225,1.775,0.648,2.617c1.525,3.025,5.217,4.242,8.242,2.719c0.555-0.279,1.045-0.633,1.473-1.039   c6.596,4.76,13.488,13.172,18.814,23.744c1.152,2.285,2.176,4.568,3.078,6.828c-2.098,3.941-4.693,7.963-7.764,11.902   c-1.576,2.021-3.207,3.926-4.865,5.709l0,0h-0.002l0,0c-0.008,0.002-0.014,0.002-0.023,0.002c-1.193,0.135-2.406,0.246-3.637,0.332   c-0.033,0.002-0.066,0.004-0.098,0.004c-1.227,0.086-2.469,0.146-3.727,0.176c-0.771,0.02-1.537,0.025-2.299,0.023   c-0.264,0-0.525-0.004-0.787-0.006c-0.514-0.006-1.025-0.016-1.535-0.029c-0.27-0.008-0.539-0.016-0.81-0.027   c-0.541-0.02-1.076-0.045-1.609-0.074C324.4,261.822,324.191,261.813,323.984,261.799z M331.102,268.932   c-0.766,0.609-1.529,1.191-2.293,1.742c0,0.002,0,0.002,0,0.002c-0.004-0.004-0.008-0.006-0.01-0.01   c-1.068-1.152-2.125-2.383-3.166-3.691c-0.002-0.002-0.004-0.006-0.006-0.01c0.012,0,0.025,0,0.039,0   c0.912,0.033,1.832,0.051,2.758,0.059c0.133,0.002,0.262,0.004,0.395,0.004c0.977,0.002,1.961-0.002,2.953-0.027   c0.576-0.014,1.145-0.039,1.717-0.063c-0.754,0.66-1.508,1.289-2.262,1.891C331.185,268.863,331.143,268.898,331.102,268.932z    M350.471,280.197c-0.506,0.256-1.037,0.449-1.582,0.598l-0.002-0.004c-1.125,0.303-2.328,0.379-3.59,0.25   c-0.016-0.002-0.031-0.004-0.049-0.006c-0.291-0.031-0.588-0.076-0.887-0.129c-0.033-0.008-0.068-0.012-0.1-0.02   c-0.287-0.055-0.574-0.117-0.865-0.191c-0.049-0.012-0.098-0.025-0.146-0.037c-0.281-0.076-0.563-0.16-0.848-0.25   c-0.06-0.022-0.123-0.041-0.184-0.063c-0.275-0.092-0.553-0.193-0.832-0.301c-0.07-0.029-0.145-0.059-0.217-0.088   c-0.272-0.111-0.545-0.229-0.82-0.354c-0.08-0.035-0.158-0.074-0.238-0.111c-0.272-0.129-0.545-0.262-0.818-0.404   c-0.086-0.043-0.17-0.09-0.254-0.135c-0.272-0.145-0.543-0.295-0.818-0.455c-0.086-0.049-0.174-0.101-0.26-0.152   c-0.275-0.166-0.551-0.334-0.83-0.512c-0.08-0.051-0.16-0.106-0.24-0.158c-0.285-0.188-0.572-0.377-0.859-0.578   c-0.068-0.049-0.137-0.1-0.207-0.148c-0.299-0.215-0.6-0.434-0.902-0.662c-0.047-0.035-0.092-0.072-0.139-0.107   c-0.326-0.25-0.652-0.506-0.98-0.773c-0.004-0.004-0.008-0.006-0.014-0.012c-0.359-0.293-0.721-0.598-1.08-0.914   c0.732-0.586,1.467-1.195,2.199-1.826c0.018-0.014,0.033-0.029,0.051-0.043c1.445-1.246,2.887-2.576,4.318-3.986   c0.074-0.074,0.148-0.147,0.221-0.219c0.695-0.691,1.389-1.395,2.078-2.121c5.385-0.656,10.412-1.727,14.912-3.125   C357.041,271.496,355.066,277.883,350.471,280.197z M367.723,250.068c-1.6-0.674-3.471-0.672-5.141,0.17   c-2.262,1.139-3.512,3.484-3.367,5.859c-0.455,0.219-0.924,0.432-1.402,0.641c-0.662-2.789-1.51-5.666-2.539-8.6   c3.15-5.338,5.547-10.609,7.111-15.516c5.035,2.857,8.09,6.482,8.193,10.502C370.637,245.559,369.617,247.906,367.723,250.068z"/>
	<path style="fill:#002840;" d="M327.021,255.674c0.141,0.045,0.283,0.076,0.424,0.117c0.217,0.063,0.432,0.131,0.652,0.18   c0.145,0.035,0.291,0.051,0.438,0.078c0.221,0.043,0.439,0.09,0.662,0.119c0.158,0.02,0.318,0.023,0.478,0.037   c0.213,0.018,0.426,0.043,0.641,0.051c0.207,0.006,0.418-0.008,0.627-0.012c0.168-0.004,0.334,0.002,0.5-0.01   c1.51-0.1,3.021-0.498,4.457-1.221c5.732-2.889,8.039-9.879,5.15-15.615c-2.893-5.734-9.883-8.041-15.615-5.152   c-1.433,0.723-2.654,1.703-3.633,2.854c-1.42,1.674-2.322,3.713-2.637,5.857c-0.012,0.07-0.029,0.139-0.037,0.207   c-0.022,0.174-0.027,0.35-0.043,0.525c-0.016,0.197-0.039,0.396-0.047,0.596c-0.002,0.061,0.006,0.123,0.004,0.186   c-0.01,0.689,0.033,1.381,0.148,2.072c0.004,0.025,0.012,0.049,0.018,0.074c0.06,0.352,0.133,0.701,0.228,1.051   c0.086,0.318,0.195,0.637,0.31,0.953c0.02,0.051,0.031,0.104,0.051,0.156c0.141,0.365,0.301,0.729,0.482,1.088   c1.082,2.15,2.742,3.818,4.697,4.91c0.061,0.033,0.125,0.061,0.188,0.094c0.268,0.143,0.535,0.283,0.815,0.404   c0.096,0.043,0.193,0.072,0.289,0.111C326.52,255.486,326.768,255.59,327.021,255.674z"/>
	<path style="fill:#002840;" d="M321.693,227.049c0.027-0.029,0.055-0.059,0.082-0.088c2.883-0.379,5.887-0.623,8.984-0.699   c4.109-0.102,8.074,0.088,11.814,0.525c-0.459-0.662-0.922-1.299-1.391-1.924c-3.373-0.27-6.867-0.385-10.465-0.295   c-2.373,0.059-4.693,0.209-6.965,0.422c3.424-3.301,6.92-6.08,10.313-8.207c-0.592-0.559-1.182-1.084-1.777-1.592   c-3.801,2.785-7.648,6.178-11.377,10.105c-1.021,0.125-2.029,0.266-3.023,0.418c-0.045,0.008-0.088,0.014-0.131,0.021   c-0.91,0.143-1.809,0.297-2.693,0.463c-0.131,0.025-0.26,0.049-0.391,0.072c-0.793,0.152-1.574,0.316-2.346,0.486   c-0.184,0.041-0.371,0.078-0.555,0.119c-0.912,0.209-1.814,0.426-2.695,0.658c0.061,0.709,0.143,1.439,0.234,2.172   c2.965-0.957,6.217-1.742,9.678-2.324c-1.523,1.699-3.021,3.482-4.482,5.354c-1.281,1.646-2.469,3.303-3.609,4.967   c0.189,0.705,0.412,1.428,0.629,2.145c1.318-2.029,2.754-4.063,4.318-6.07c0.596-0.766,1.205-1.506,1.816-2.238   c0.277-0.332,0.555-0.66,0.836-0.984c0.27-0.314,0.543-0.619,0.815-0.926C320.1,228.744,320.893,227.879,321.693,227.049z"/>
</g>
<path style="fill:#002840;" d="M91.159,231.551c-0.218,0.18-0.476,0.334-0.768,0.465c-2.178,0.951-4.103,2.111-5.791,3.473  c-0.822,0.666-1.651,1.449-2.495,2.34c-0.84,0.898-1.689,1.91-2.536,3.039c1.179,1.461,2.885,3.674,5.114,6.633  c0.578-0.541,2.567-2.477,5.958-5.818c1.936-1.904,3.181-3.084,3.741-3.537c0.651-0.527,1.375-0.771,2.167-0.73  c0.796,0.037,1.471,0.398,2.022,1.082c1.059,1.311,0.957,2.619-0.297,3.922c-0.829,0.777-2.05,1.947-3.678,3.516  c-1.421,1.443-3.603,3.553-6.545,6.348c1.054,1.461,1.926,2.617,2.618,3.479c1.743,2.156,2.858,3.283,3.349,3.371  c0.24,0.047,0.988-0.439,2.255-1.463c0.684-0.551,1.7-1.4,3.049-2.543c1.345-1.146,2.358-1.99,3.041-2.541  c0.222-0.178,0.521-0.475,0.892-0.887c0.378-0.412,0.671-0.703,0.881-0.875c0.637-0.512,1.327-0.768,2.072-0.771  c0.848-0.014,1.571,0.352,2.163,1.088c0.997,1.234,0.948,2.492-0.141,3.771c-0.933,1.1-3.131,3.045-6.598,5.846  c-3.588,2.898-6.314,4.303-8.189,4.215c-2.059-0.1-4.527-1.924-7.395-5.479c-1.196-1.477-2.872-3.777-5.046-6.904  c-2.171-3.125-3.847-5.422-5.029-6.885c-0.311-0.389-0.829-0.908-1.543-1.572c-0.72-0.672-1.236-1.193-1.547-1.576  c-1.347-1.674-1.254-3.129,0.286-4.375c0.481-0.391,1.039-0.611,1.668-0.668c1.018-1.35,2.037-2.57,3.063-3.658  c1.014-1.09,2.038-2.043,3.059-2.871c2.776-2.242,5.25-3.711,7.431-4.414c1.319-0.43,2.39-0.146,3.207,0.869  c0.463,0.572,0.673,1.238,0.633,1.998C92.203,230.293,91.843,231.004,91.159,231.551z"/>
<path style="fill:#002840;" d="M338.203,132.752c-0.184-0.097-0.361-0.229-0.533-0.392c-1.258-1.213-2.588-2.196-3.988-2.961  c-0.684-0.372-1.449-0.716-2.293-1.04c-0.846-0.319-1.773-0.612-2.779-0.871c-0.662,1.212-1.688,2.995-3.074,5.343  c0.531,0.241,2.406,1.049,5.633,2.417c1.84,0.781,2.99,1.295,3.457,1.549c0.541,0.296,0.91,0.719,1.105,1.27  c0.199,0.55,0.142,1.112-0.168,1.679c-0.594,1.088-1.512,1.387-2.75,0.901c-0.762-0.346-1.902-0.848-3.424-1.514  c-1.381-0.561-3.43-1.452-6.158-2.667c-0.697,1.127-1.238,2.046-1.629,2.758c-0.977,1.792-1.43,2.867-1.352,3.225  c0.035,0.176,0.576,0.548,1.629,1.123c0.566,0.31,1.43,0.762,2.586,1.359c1.158,0.592,2.018,1.043,2.584,1.354  c0.184,0.101,0.469,0.22,0.853,0.357c0.387,0.141,0.666,0.259,0.842,0.353c0.527,0.29,0.897,0.687,1.108,1.192  c0.248,0.573,0.203,1.168-0.131,1.777c-0.561,1.025-1.43,1.346-2.605,0.964c-1.01-0.325-2.951-1.273-5.83-2.844  c-2.979-1.625-4.701-3.085-5.168-4.383c-0.512-1.429,0.035-3.621,1.647-6.569c0.668-1.229,1.762-3.017,3.277-5.374  c1.516-2.355,2.607-4.14,3.268-5.355c0.178-0.321,0.385-0.818,0.637-1.491c0.254-0.679,0.463-1.176,0.637-1.496  c0.76-1.387,1.775-1.731,3.057-1.035c0.4,0.217,0.707,0.535,0.922,0.947c1.205,0.313,2.32,0.663,3.35,1.055  c1.025,0.384,1.963,0.811,2.813,1.273c2.307,1.257,4,2.527,5.092,3.812c0.662,0.776,0.771,1.586,0.311,2.427  c-0.26,0.475-0.654,0.806-1.182,0.991C339.352,133.109,338.768,133.065,338.203,132.752z"/>
<g>
	<path style="fill:#FFFFFF;" d="M136.674,270.38c-0.661-0.673-1.318-1.306-1.983-1.918c-7.164,4.837-14.539,11.431-21.332,19.479   c-1.555,1.845-3.002,3.706-4.396,5.578c0.189,0.824,0.413,1.668,0.631,2.507c1.615-2.288,3.364-4.57,5.263-6.821   C121.805,280.97,129.48,274.513,136.674,270.38z"/>
	<path style="fill:#2CAB83;" d="M135.636,271.34c-0.66-0.671-1.319-1.305-1.983-1.917c-7.164,4.837-14.539,11.43-21.331,19.478   c-1.556,1.846-3.003,3.707-4.396,5.579c0.188,0.823,0.413,1.667,0.631,2.506c1.615-2.288,3.364-4.571,5.262-6.821   C120.766,281.93,128.443,275.473,135.636,271.34z"/>
	<path style="fill:#FFFFFF;" d="M167.037,262.379c-6.284-5.304-17.612-3.141-29.853,4.464c0.649,0.709,1.292,1.472,1.934,2.228   c8.628-4.376,16.333-5.213,20.888-1.366c8.713,7.351,2.627,28.895-13.594,48.123c-16.22,19.225-36.435,28.852-45.15,21.5   c-6.704-5.658-4.618-19.726,4.084-34.671c-0.308-0.913-0.574-1.81-0.854-2.707c-12.365,19.207-15.857,37.979-7.291,45.21   c10.356,8.739,34.388-2.704,53.677-25.566C170.161,296.736,177.395,271.119,167.037,262.379z"/>
	<path style="fill:#2CAB83;" d="M165.999,263.339c-6.284-5.303-17.612-3.141-29.854,4.464c0.65,0.708,1.292,1.472,1.936,2.229   c8.626-4.376,16.332-5.212,20.886-1.367c8.712,7.351,2.628,28.895-13.594,48.123c-16.22,19.225-36.435,28.851-45.151,21.501   c-6.704-5.659-4.618-19.726,4.084-34.671c-0.309-0.914-0.575-1.812-0.855-2.708c-12.366,19.208-15.857,37.98-7.291,45.21   c10.355,8.74,34.388-2.702,53.676-25.565C169.124,297.697,176.357,272.079,165.999,263.339z"/>
	<path style="fill:#FFFFFF;" d="M109.64,254.503c-12.331,5.627-12.264,32.246,0.151,59.451   c12.414,27.21,32.478,44.708,44.807,39.082c12.33-5.626,12.262-32.248-0.153-59.455C142.031,266.374,121.97,248.875,109.64,254.503   z M152.795,344.397c-10.374,4.732-27.249-9.983-37.689-32.867c-10.442-22.883-10.499-45.272-0.127-50.008   c10.372-4.729,27.245,9.986,37.685,32.87C163.107,317.275,163.164,339.666,152.795,344.397z"/>
	<path style="fill:#FF5944;" d="M108.602,255.462c-12.331,5.628-12.265,32.247,0.151,59.453   c12.414,27.209,32.478,44.708,44.807,39.082c12.331-5.627,12.262-32.248-0.152-59.454   C140.992,267.334,120.932,249.836,108.602,255.462z M151.757,345.359c-10.373,4.73-27.248-9.985-37.689-32.869   c-10.442-22.882-10.499-45.271-0.126-50.008c10.371-4.73,27.245,9.989,37.685,32.871   C162.07,318.236,162.125,340.626,151.757,345.359z"/>
	<path style="fill:#FFFFFF;" d="M167.933,290.022c5.709,3.53,9.819,7.773,9.756,12.434c-0.159,11.4-20.678,20.358-45.829,20.012   c-25.156-0.351-45.414-9.872-45.262-21.272c0.083-5.961,4.604-10.743,13.563-14.39c-0.15-0.986-0.269-2.093-0.379-3.054   c-13.765,4.264-21.701,11.041-21.813,19.266c-0.186,13.553,23.902,24.875,53.807,25.29c29.908,0.415,54.302-10.236,54.489-23.788   c0.097-6.975-6.907-13.528-17.157-18.134C168.777,287.493,168.349,288.884,167.933,290.022z"/>
	<path style="fill:#FFFFFF;" d="M147.326,280.397c0.496,0.796,1.002,1.589,1.485,2.416c5.14,0.976,9.027,2.328,13.056,4.023   c0.259-0.95,0.457-1.998,0.641-2.915C157.7,282.337,153.117,281.228,147.326,280.397z"/>
	<path style="fill:#FFFFFF;" d="M144.276,282.06c-0.499-0.784-1.012-1.481-1.528-2.225c-3.883-0.46-6.129-0.553-10.291-0.607   c-9.063-0.125-17.606,0.78-25.14,2.461c0.038,0.819,0.1,1.67,0.171,2.52c7.19-2.023,15.751-3.151,24.94-3.024   C137.183,281.25,139.974,281.388,144.276,282.06z"/>
	<path style="fill:#FD9405;" d="M146.288,281.357c0.497,0.799,1.002,1.59,1.486,2.418c5.139,0.975,9.81,2.357,13.839,4.051   c0.259-0.949,0.47-1.877,0.653-2.793C157.457,283.448,152.079,282.189,146.288,281.357z"/>
	<path style="fill:#FFFFFF;" d="M101.555,322.762c1.628,3.566,0.054,7.775-3.51,9.4c-3.567,1.63-7.778,0.058-9.405-3.508   c-1.626-3.564-0.054-7.774,3.514-9.402C95.718,317.624,99.928,319.197,101.555,322.762z"/>
	<path style="fill:#FFFFFF;" d="M133.748,257.844c1.626,3.563,0.053,7.774-3.511,9.402c-3.565,1.628-7.779,0.054-9.404-3.511   c-1.627-3.565-0.056-7.775,3.512-9.402C127.908,252.706,132.121,254.277,133.748,257.844z"/>
	<path style="fill:#FF5944;" d="M100.516,323.723c1.629,3.566,0.055,7.775-3.509,9.399c-3.568,1.63-7.777,0.058-9.405-3.509   c-1.626-3.563-0.055-7.773,3.514-9.4C94.68,318.586,98.89,320.156,100.516,323.723z"/>
	<path style="fill:#FD9405;" d="M167.624,290.893c5.709,3.533,9.089,7.863,9.026,12.523c-0.158,11.401-20.677,20.36-45.829,20.012   c-25.156-0.35-45.414-9.871-45.261-21.271c0.083-5.96,5.759-11.231,14.718-14.877c-0.151-0.988-0.296-1.967-0.407-2.927   c-13.764,4.264-22.829,11.401-22.94,19.625c-0.187,13.553,23.901,24.876,53.806,25.291c29.908,0.414,54.302-10.237,54.489-23.788   c0.097-6.976-6.246-13.347-16.495-17.951C168.399,288.635,168.04,289.754,167.624,290.893z"/>
	<path style="fill:#FD9405;" d="M145.021,283.281c-0.499-0.784-0.906-1.538-1.423-2.282c-3.883-0.461-8.019-0.755-12.181-0.81   c-9.063-0.124-16.596,0.563-24.13,2.242c0.039,0.821,0.151,1.601,0.224,2.45c7.19-2.022,14.69-2.862,23.879-2.732   C136.145,282.212,140.719,282.608,145.021,283.281z"/>
	<path style="fill:#FFFFFF;" d="M177.532,313.829c1.626,3.564,0.053,7.771-3.51,9.397c-3.57,1.63-7.777,0.061-9.404-3.506   c-1.627-3.564-0.056-7.775,3.514-9.404C171.694,308.691,175.904,310.265,177.532,313.829z"/>
	<path style="fill:#2CAB83;" d="M176.493,314.789c1.627,3.563,0.054,7.773-3.509,9.399c-3.571,1.628-7.777,0.059-9.405-3.507   c-1.626-3.563-0.055-7.776,3.515-9.404C170.656,309.651,174.868,311.225,176.493,314.789z"/>
	<path style="fill:#FD9405;" d="M132.71,258.805c1.627,3.563,0.054,7.774-3.51,9.401c-3.566,1.628-7.778,0.056-9.404-3.51   c-1.627-3.563-0.055-7.776,3.511-9.402C126.871,253.667,131.083,255.238,132.71,258.805z"/>
	<path style="fill:#FFFFFF;" d="M143.734,296.825c-3.084-6.755-11.06-9.73-17.815-6.65c-6.76,3.086-9.74,11.061-6.656,17.82   c3.083,6.754,11.059,9.73,17.82,6.648C143.838,311.559,146.816,303.584,143.734,296.825z M129.066,306.955   c-3.145,1.434-6.856,0.049-8.29-3.093c-1.434-3.145-0.047-6.854,3.097-8.291c3.142-1.434,6.853-0.049,8.288,3.097   C133.593,301.81,132.208,305.519,129.066,306.955z"/>
	<path style="fill:#2CAB83;" d="M142.697,297.789c-3.086-6.759-11.061-9.734-17.816-6.654c-6.759,3.086-9.74,11.061-6.656,17.82   c3.083,6.756,11.059,9.73,17.821,6.648C142.8,312.52,145.778,304.545,142.697,297.789z"/>
	<path style="fill:#FFFFFF;" d="M141.398,300.021c-0.99,2.141-4.926,2.425-8.79,0.634c-3.864-1.789-6.194-4.976-5.201-7.113   c0.99-2.137,4.926-2.421,8.788-0.632C140.061,294.699,142.392,297.885,141.398,300.021z"/>
	<path style="fill:#F2E5DA;" d="M124.881,291.135c-6.759,3.086-9.74,11.061-6.656,17.82c3.083,6.756,11.059,9.73,17.821,6.648   L124.881,291.135z"/>
	<path style="fill:#F2E5DA;" d="M132.631,337.101c2.705-2.064,5.417-4.371,8.097-6.899c0.473-0.436,0.943-0.875,1.414-1.323   c0.391-0.031,0.775-0.071,1.163-0.108l-2.942-6.55c-2.758,0.197-5.597,0.288-8.502,0.248c-3.945-0.055-7.771-0.336-11.415-0.815   c-1.905-3.143-3.702-6.533-5.34-10.123c-2.449-5.367-4.319-10.704-5.625-15.796c0.01-0.015,0.021-0.027,0.032-0.041   c0.029,0.11,0.054,0.221,0.084,0.333c1.615-2.288,3.364-4.57,5.263-6.821c2.029-2.404,4.124-4.638,6.246-6.726   c0.448-0.038,0.907-0.065,1.362-0.098l-1.284-2.857c-0.038,0.037-0.078,0.071-0.116,0.107c-4.847,0.406-9.465,1.102-13.75,2.058   c0.011,0.238,0.028,0.483,0.043,0.725c-0.012,0.004-0.023,0.005-0.035,0.008c-0.46-8.275,1.065-14.973,4.581-18.669   c0.53-0.426,1.101-0.784,1.703-1.09l-3.71-8.26c-0.084,0.037-0.173,0.06-0.257,0.099c-1.34,0.611-2.524,1.483-3.572,2.565   c-5.499,4.525-7.596,14.395-6.289,26.687c-8.98,2.781-15.459,6.64-18.922,11.267c-2.482,2.754-3.881,5.773-3.924,8.957   c-0.086,6.246,4.992,12.016,13.41,16.464c-0.198,0.179-0.381,0.368-0.555,0.565c-2.602,1.961-3.592,5.523-2.185,8.605   c0.793,1.74,2.204,3,3.852,3.651c-0.095,5.571,1.409,10.071,4.707,12.855c6.284,5.305,17.607,3.165,29.848-4.439   c9.74,10.618,20.069,15.73,27.55,12.316c0.3-0.137,0.59-0.292,0.874-0.454l-3.798-8.456   C145.422,346.107,138.984,343.064,132.631,337.101z M107.512,284.881c-0.002-0.022-0.005-0.043-0.006-0.064   C107.507,284.839,107.511,284.859,107.512,284.881c3.326-0.936,6.726-1.607,10.319-2.058c-1.866,1.923-3.709,3.945-5.508,6.078   c-1.209,1.435-2.341,2.88-3.444,4.332C108.232,290.34,107.776,287.541,107.512,284.881   C107.512,284.881,107.512,284.881,107.512,284.881z M101.261,337.328c-1.465-1.236-2.509-2.875-3.158-4.835   c0.474-0.327,0.898-0.705,1.27-1.125c1.941-1.463,2.979-3.821,2.794-6.207c4.195,1.25,8.781,2.248,13.653,2.948   c1.825,2.931,3.727,5.67,5.677,8.197C113.133,340.402,105.703,341.074,101.261,337.328z M111.176,319.92   c-4.425-1.092-8.424-2.496-11.849-4.146c1.208-3.684,2.937-7.594,5.15-11.586c1.211,3.534,2.632,7.125,4.275,10.728   C109.532,316.623,110.341,318.291,111.176,319.92z M103.425,300.951c-2.876,4.472-5.265,8.917-7.138,13.202   c-6.121-3.608-9.754-8.111-9.689-12.957c0.033-2.317,0.745-4.455,2.118-6.419c2.546-2.892,6.521-5.439,11.524-7.48   C100.906,291.639,101.969,296.228,103.425,300.951z M125.485,329.08c1.729,0.099,3.479,0.165,5.252,0.189   c0.605,0.009,1.206,0.005,1.807,0.004c-1.458,1.136-2.913,2.187-4.358,3.151C127.276,331.364,126.375,330.25,125.485,329.08z"/>
	<path style="fill:#FFFFFF;" d="M174.809,315.577c-0.452,1.23-2.492,1.612-4.555,0.852c-2.063-0.76-3.369-2.374-2.914-3.604   c0.453-1.229,2.493-1.611,4.555-0.852C173.958,312.734,175.264,314.348,174.809,315.577z"/>
	<path style="fill:#FFFFFF;" d="M131.025,259.547c-0.452,1.23-2.492,1.612-4.555,0.852c-2.063-0.76-3.369-2.374-2.914-3.604   c0.453-1.229,2.493-1.611,4.555-0.851C130.174,256.704,131.479,258.317,131.025,259.547z"/>
</g>
<g>
	<path style="fill:#002840;" d="M175.852,144.893c-0.134-5.33-5.16-10.009-13.117-13.225c2.146-8.314,1.374-15.146-2.832-18.426   c-4.957-3.865-13.549-1.88-22.678,4.287c-7.763-7.836-15.815-11.442-21.437-8.609c-5.623,2.834-7.516,11.45-5.837,22.353   c-10.387,3.668-17.098,9.39-16.94,15.677c0.133,5.331,5.164,10.017,13.122,13.238c-2.148,8.309-1.377,15.134,2.827,18.411   c4.962,3.868,13.555,1.897,22.689-4.278c7.761,7.83,15.809,11.433,21.428,8.602c5.619-2.833,7.512-11.443,5.837-22.34   C169.311,156.916,176.008,151.183,175.852,144.893z M154.685,117.522c5.029,3.92,4.229,13.876-1.187,24.88   c-0.706-1.639-1.469-3.284-2.299-4.932c-1.434-2.847-2.979-5.537-4.596-8.06c3.947,0.594,7.548,1.51,10.672,2.683   c0.169-0.733,0.303-1.449,0.416-2.154c-3.709-1.066-7.842-1.867-12.275-2.332c-2.123-3.131-4.354-5.963-6.628-8.439   C145.242,115.582,151.094,114.723,154.685,117.522z M120.078,114.129c7.789-3.924,21.125,6.829,29.784,24.015   c1.02,2.022,1.925,4.044,2.723,6.043c-1.855,3.485-4.153,7.046-6.869,10.53c-1.395,1.789-2.837,3.474-4.305,5.052   c-2.143,0.241-4.355,0.398-6.624,0.454c-3.018,0.075-5.95-0.026-8.751-0.283c-1.549-2.349-3.023-4.886-4.382-7.582   C112.995,135.172,112.288,118.056,120.078,114.129z M154.57,149.848c0.674,2.232,1.199,4.408,1.574,6.493   c-2.383,0.912-5.015,1.693-7.851,2.31c0.316-0.393,0.634-0.785,0.946-1.187C151.203,154.946,152.979,152.394,154.57,149.848z    M132.273,167.945c-0.949-1.023-1.889-2.119-2.815-3.285c1.782,0.063,3.594,0.077,5.437,0.032c0.51-0.013,1.014-0.035,1.519-0.056   C135.034,165.847,133.649,166.947,132.273,167.945z M120.258,159.151c-3.954-0.719-7.521-1.769-10.537-3.082   c0.916-3.21,2.324-6.658,4.199-10.188c1.065,2.8,2.309,5.643,3.743,8.488C118.493,156.017,119.363,157.608,120.258,159.151z    M99.555,145.301c-0.113-4.552,4.059-8.743,10.783-11.796c0.637,3.301,1.585,6.777,2.838,10.345   c-2.269,3.849-4.092,7.655-5.441,11.281C102.713,152.527,99.651,149.109,99.555,145.301z M111.833,172.491   c-2.808-2.189-3.778-6.271-3.159-11.355c4.313,1.47,9.325,2.54,14.782,3.111c1.544,2.276,3.144,4.395,4.778,6.332   C121.581,174.41,115.519,175.362,111.833,172.491z M151.441,176.37c-4.172,2.102-9.934-0.008-15.717-5.058   c2.633-2.107,5.271-4.536,7.846-7.254c4.766-0.58,9.213-1.526,13.195-2.764C157.254,168.671,155.508,174.32,151.441,176.37z    M157.938,155.611c-0.586-2.466-1.336-5.013-2.246-7.608c2.787-4.724,4.908-9.388,6.293-13.729   c4.455,2.529,7.158,5.736,7.248,9.295C169.348,148.238,164.977,152.545,157.938,155.611z"/>
	<path style="fill:#002840;" d="M134,128.646c3.638-0.092,7.145,0.076,10.455,0.464c-0.406-0.585-0.814-1.15-1.231-1.703   c-2.983-0.237-6.076-0.34-9.26-0.259c-2.099,0.052-4.152,0.183-6.163,0.371c3.03-2.92,6.123-5.378,9.126-7.261   c-0.525-0.495-1.047-0.96-1.574-1.407c-3.362,2.464-6.767,5.466-10.066,8.939c-3.701,0.455-7.218,1.123-10.471,1.982   c0.053,0.626,0.125,1.272,0.206,1.922c2.624-0.85,5.503-1.544,8.566-2.06c-1.348,1.504-2.675,3.082-3.967,4.739   c-1.135,1.457-2.186,2.923-3.195,4.394c0.168,0.626,0.365,1.264,0.557,1.898c1.166-1.797,2.437-3.595,3.821-5.371   c1.691-2.17,3.454-4.175,5.246-6.03C128.602,128.93,131.26,128.714,134,128.646z"/>
	<path style="fill:#002840;" d="M129.29,135.71c-5.076,2.559-7.119,8.745-4.561,13.821c2.557,5.073,8.743,7.112,13.82,4.556   c5.073-2.558,7.114-8.743,4.559-13.817C140.549,135.194,134.363,133.155,129.29,135.71z M132.192,148.446   c-2.361,1.19-5.24,0.241-6.428-2.118c-1.19-2.363-0.24-5.24,2.121-6.431c2.36-1.19,5.238-0.241,6.428,2.122   C135.502,144.379,134.552,147.256,132.192,148.446z"/>
</g>
<g>
	<g>
		<g>
			
				<rect x="277.849" y="153.452" transform="matrix(0.9775 -0.2108 0.2108 0.9775 -28.9555 63.2496)" style="fill:#FF5944;" width="8.681" height="27.973"/>
			<path style="fill:#64DBB7;" d="M311.416,148.805c0.674,3.124-1.068,6.15-3.891,6.761l-53.313,11.493     c-2.824,0.608-5.658-1.432-6.332-4.555l-8.539-39.602c-0.674-3.125,1.068-6.151,3.891-6.761l53.315-11.494     c2.824-0.608,5.656,1.43,6.33,4.556L311.416,148.805z"/>
			<path style="fill:#2CAB83;" d="M254.594,161.568c-0.797,0.172-1.602-0.406-1.791-1.288l-8.061-37.38     c-0.189-0.883,0.305-1.741,1.104-1.913l50.318-10.85c0.797-0.173,1.602,0.406,1.791,1.289l8.061,37.38     c0.189,0.881-0.305,1.739-1.102,1.912L254.594,161.568z"/>
			<g>
				<g>
					<path style="fill:#FFFFFF;" d="M261.016,140.929c-0.086,0.049-0.188,0.088-0.299,0.114c-0.824,0.201-1.574,0.489-2.254,0.861       c-0.33,0.184-0.672,0.408-1.021,0.669c-0.354,0.263-0.715,0.566-1.084,0.91c0.326,0.588,0.787,1.475,1.387,2.653       c0.238-0.155,1.059-0.713,2.459-1.677c0.799-0.55,1.311-0.888,1.535-1.011c0.262-0.146,0.531-0.187,0.809-0.122       c0.277,0.062,0.492,0.229,0.643,0.505c0.291,0.527,0.174,0.982-0.35,1.362c-0.338,0.222-0.842,0.557-1.512,1.007       c-0.588,0.419-1.488,1.025-2.695,1.826c0.279,0.58,0.514,1.04,0.705,1.386c0.479,0.866,0.799,1.333,0.967,1.393       c0.08,0.031,0.375-0.092,0.885-0.374c0.273-0.151,0.684-0.387,1.23-0.704c0.545-0.318,0.953-0.553,1.229-0.704       c0.088-0.049,0.213-0.135,0.367-0.258c0.158-0.12,0.281-0.203,0.365-0.252c0.256-0.139,0.516-0.188,0.777-0.142       c0.299,0.048,0.529,0.221,0.693,0.517c0.273,0.496,0.178,0.937-0.285,1.317c-0.397,0.329-1.291,0.876-2.686,1.646       c-1.441,0.796-2.488,1.119-3.141,0.973c-0.721-0.164-1.475-0.959-2.262-2.387c-0.328-0.595-0.775-1.509-1.346-2.745       c-0.568-1.232-1.016-2.145-1.34-2.732c-0.084-0.156-0.234-0.37-0.445-0.65c-0.211-0.28-0.359-0.496-0.445-0.65       c-0.369-0.672-0.246-1.179,0.373-1.521c0.193-0.108,0.402-0.15,0.627-0.131c0.443-0.411,0.877-0.777,1.307-1.097       c0.424-0.318,0.844-0.591,1.254-0.818c1.117-0.615,2.078-0.979,2.889-1.091c0.492-0.068,0.852,0.099,1.074,0.506       c0.127,0.23,0.16,0.477,0.1,0.741C261.461,140.552,261.291,140.779,261.016,140.929z"/>
					<path style="fill:#FFFFFF;" d="M270.076,140.397l-3.014,1.664c-0.1,0.051-0.242,0.139-0.432,0.254       c-0.189,0.115-0.332,0.2-0.432,0.254c-0.24,0.134-0.48,0.167-0.717,0.104c-0.238-0.066-0.416-0.207-0.537-0.425       c-0.295-0.534-0.016-1.036,0.834-1.507c0.051-0.028,0.129-0.068,0.236-0.12l0.199-0.108l3.01-1.655       c0.244-0.132,0.482-0.17,0.719-0.109c0.236,0.059,0.416,0.199,0.539,0.421c0.123,0.221,0.145,0.446,0.068,0.679       C270.475,140.081,270.316,140.263,270.076,140.397z M271.838,143.649c-0.291,0.159-0.732,0.396-1.322,0.708       c-0.59,0.31-1.031,0.546-1.322,0.708c-0.135,0.072-0.326,0.191-0.582,0.352c-0.256,0.16-0.447,0.277-0.582,0.352       c-0.25,0.139-0.498,0.183-0.744,0.133c-0.242-0.052-0.428-0.191-0.557-0.42c-0.264-0.48-0.133-0.886,0.393-1.221       c0.447-0.287,0.855-0.53,1.223-0.734c0.291-0.16,0.732-0.398,1.322-0.709c0.59-0.311,1.029-0.548,1.322-0.709       c0.248-0.138,0.492-0.175,0.734-0.118c0.242,0.057,0.426,0.195,0.547,0.416c0.121,0.222,0.143,0.449,0.063,0.684       C272.252,143.326,272.086,143.51,271.838,143.649z"/>
					<path style="fill:#FFFFFF;" d="M275.75,137.058c0.197,0.828,0.512,2.061,0.953,3.705c0.193,0.547,0.387,1.09,0.578,1.63       c0.166,0.728,0.006,1.226-0.48,1.494c-0.307,0.168-0.605,0.196-0.896,0.088c-0.248-0.095-0.438-0.264-0.572-0.507       c-0.395-0.716-0.725-1.674-0.988-2.873c-0.398-1.796-0.625-2.786-0.682-2.974c-0.248-0.753-0.492-1.506-0.734-2.263       c-0.32-1.044-0.449-1.787-0.389-2.23c0.06-0.44,0.267-0.758,0.619-0.951c0.402-0.224,0.813-0.184,1.227,0.118       c0.391,0.287,1.016,0.971,1.875,2.048c0.832,1.046,1.807,2.129,2.926,3.249c-0.221-1.592-0.547-3.294-0.98-5.103l-0.469-1.73       c-0.111-0.764,0.082-1.285,0.584-1.561c0.48-0.266,1.041-0.097,1.682,0.507c0.26,0.243,0.672,0.739,1.228,1.487       c1.297,1.743,2.51,3.18,3.641,4.31c1.15,1.149,1.756,1.783,1.822,1.904c0.143,0.26,0.158,0.538,0.049,0.828       c-0.105,0.267-0.281,0.468-0.523,0.602c-0.484,0.266-1.031,0.119-1.646-0.441l-1.26-1.4c-0.65-0.679-1.51-1.695-2.582-3.05       c0.127,0.701,0.313,1.815,0.553,3.339l0.275,1.438c0.103,0.574,0.152,1.066,0.146,1.471c-0.006,0.54-0.221,0.929-0.641,1.161       c-0.418,0.227-0.871,0.157-1.363-0.209l-1.053-1.03C277.678,139.172,276.711,138.153,275.75,137.058z"/>
					<path style="fill:#FFFFFF;" d="M290.553,126.507c-0.396,0.219-0.809,0.171-1.23-0.143c-0.195-0.15-0.35-0.222-0.463-0.212       c-0.082,0.006-0.268,0.086-0.549,0.244c-0.558,0.307-0.961,1.093-1.215,2.363c-0.352,1.777-0.236,3.194,0.348,4.251       c0.266,0.482,0.656,0.806,1.166,0.972c0.516,0.168,1,0.127,1.449-0.121c0.439-0.242,0.818-0.603,1.143-1.082       c0.113-0.171,0.33-0.575,0.65-1.207c0.217-0.419,0.416-0.68,0.592-0.775c0.266-0.147,0.545-0.175,0.838-0.083       c0.273,0.086,0.473,0.246,0.604,0.482c0.142,0.259,0.154,0.552,0.031,0.871c-0.65,1.699-1.605,2.895-2.865,3.591       c-0.994,0.55-2.035,0.651-3.121,0.306c-1.041-0.34-1.822-0.98-2.346-1.929c-0.818-1.479-1.004-3.35-0.559-5.61       c0.379-1.919,1.143-3.192,2.293-3.829c0.193-0.106,0.375-0.197,0.539-0.27c0.164-0.073,0.313-0.131,0.447-0.172       c0.09-0.295,0.272-0.52,0.545-0.672c0.451-0.248,0.873-0.145,1.264,0.316c0.279,0.329,0.559,0.742,0.832,1.237       c0.121,0.221,0.168,0.458,0.141,0.711C291.049,126.079,290.871,126.331,290.553,126.507z"/>
				</g>
				<g>
					<path style="fill:#FFFFFF;" d="M295.625,120.925c-0.07,0.038-0.184,0.086-0.342,0.145c-0.158,0.055-0.27,0.1-0.334,0.135       l-1.223,0.67c-0.105,0.059-0.256,0.158-0.455,0.303c-0.199,0.144-0.352,0.247-0.461,0.306       c-0.029,0.018-0.076,0.036-0.141,0.057c-0.066,0.022-0.111,0.041-0.143,0.059c-0.25,0.136-0.475,0.128-0.674-0.024       c-0.127-0.097-0.262-0.279-0.408-0.543c-0.287-0.517-0.41-1.016-0.373-1.491c0.029-0.364,0.168-0.792,0.416-1.279       c0.236-0.452,0.475-0.903,0.711-1.352c0.262-0.562,0.281-1.042,0.057-1.446c-0.057-0.105-0.201-0.161-0.434-0.168       c-0.233-0.01-0.432,0.033-0.598,0.124c-0.293,0.162-0.533,0.464-0.715,0.906c-0.184,0.443-0.336,0.699-0.459,0.767       c-0.146,0.08-0.295,0.115-0.447,0.105c-0.185-0.014-0.322-0.099-0.408-0.256c-0.096-0.169-0.105-0.353-0.035-0.551       c0.172-0.481,0.344-0.858,0.52-1.132c0.252-0.396,0.568-0.698,0.955-0.91c0.478-0.266,0.98-0.377,1.504-0.337       c0.6,0.043,1.027,0.301,1.283,0.765c0.26,0.47,0.373,0.931,0.34,1.38c-0.023,0.356-0.152,0.759-0.379,1.21       c-0.227,0.41-0.453,0.818-0.68,1.225c-0.336,0.634-0.402,1.181-0.197,1.642c0.141-0.104,0.355-0.248,0.635-0.437       c0.574-0.356,0.988-0.604,1.242-0.745c0.238-0.131,0.502-0.21,0.791-0.235c0.357-0.033,0.592,0.051,0.703,0.251       c0.078,0.144,0.096,0.297,0.055,0.462C295.887,120.705,295.785,120.835,295.625,120.925z"/>
				</g>
			</g>
			
				<rect x="269.465" y="174.104" transform="matrix(0.9775 -0.2108 0.2108 0.9775 -31.2181 63.9851)" style="fill:#FD9405;" width="30.196" height="8.683"/>
		</g>
		<path style="fill:#FFFFFF;" d="M302.275,149.157c0.209,0.975-0.973,2.058-2.637,2.417l-7.416,1.599    c-1.666,0.359-3.188-0.14-3.398-1.116l-0.15-0.706c-0.213-0.977,0.969-2.058,2.637-2.418l7.412-1.599    c1.668-0.358,3.189,0.142,3.4,1.117L302.275,149.157z"/>
	</g>
	<path style="fill:#F2E5DA;" d="M243.232,116.142l26.658-5.748l15.586,72.295l-14.76,3.183l-1.828-8.486l10.516-2.269l-2.779-12.89   l-22.414,4.833c-2.822,0.607-5.658-1.433-6.33-4.556l-8.539-39.602C238.668,119.777,240.408,116.752,243.232,116.142z"/>
</g>
<g>
	<path style="fill:#FF5944;" d="M185.969,121.727c-3.174,10.333,2.631,21.286,12.965,24.461c10.334,3.176,21.288-2.63,24.462-12.965   c3.176-10.336-2.629-21.287-12.965-24.461C200.096,105.587,189.144,111.392,185.969,121.727z"/>
	<path style="fill:#FFFFFF;" d="M220.973,121.703c-0.898-1.757-2.146-3.194-3.622-4.298c0.261,0.394,0.503,0.805,0.723,1.237   c3.48,6.813,0.415,15.741-6.846,19.94c-5.387,3.117-11.567,2.747-15.82-0.433c3.854,5.818,11.92,7.428,18.718,3.495   C221.388,137.444,224.452,128.517,220.973,121.703z"/>
	<path style="fill:#E03C00;" d="M196.013,129.509c3.176-10.334,14.128-16.14,24.462-12.966c0.195,0.06,0.386,0.127,0.576,0.192   c-2.416-3.685-6.081-6.58-10.62-7.974c-10.336-3.175-21.287,2.629-24.462,12.965c-3.115,10.14,2.419,20.872,12.39,24.27   C195.276,141.294,194.234,135.303,196.013,129.509z"/>
	<path style="fill:#2CAB83;" d="M185.917,110.8c3.318-3.965,9.499-4.759,16.283-2.744c-1.411,0.184-2.79,0.517-4.117,0.993   c-3.369-0.07-6.245,0.941-8.065,3.117c-4.48,5.358,1.473,14.597,10.402,22.067c8.929,7.471,17.457,10.342,21.939,4.984   c1.829-2.187,2.309-5.213,1.632-8.539c0.302-1.813,0.347-3.626,0.146-5.391c4.214,7.006,4.991,14.183,1.313,18.58   c-5.478,6.551-18.769,4.459-29.687-4.672C184.846,130.063,180.438,117.351,185.917,110.8z"/>
	<path style="fill:#64DBB7;" d="M203.963,118.022c-3.728,14.089-18.172,22.49-32.264,18.762   c-14.09-3.727-22.49-18.173-18.762-32.263c3.729-14.091,18.172-22.49,32.262-18.763   C199.293,89.486,207.692,103.931,203.963,118.022z"/>
	<path style="fill:#FFFFFF;" d="M187.901,88.812c-2.826-0.831-5.667-0.954-8.382-0.487c0.694,0.122,1.39,0.283,2.084,0.487   c10.964,3.224,17.499,15.718,14.598,27.907c-2.152,9.045-8.9,15.368-16.718,16.714c10.27,1.796,20.3-5.3,23.017-16.714   C205.4,104.53,198.865,92.036,187.901,88.812z"/>
	<path style="fill:#2CAB83;" d="M183.69,135.346c-14.088-3.728-22.491-18.173-18.76-32.262c2.291-8.669,8.641-15.175,16.468-18.039   c-12.799-1.454-25.067,6.652-28.46,19.477c-3.729,14.089,4.672,28.536,18.762,32.263c5.423,1.436,10.898,1.066,15.794-0.723   C186.229,135.917,184.959,135.682,183.69,135.346z"/>
	<path style="fill:#FD9405;" d="M211.808,105.553c-0.973-6.903-7.482-12.214-16.681-14.739c1.484,1.212,2.825,2.579,4.002,4.067   c3.906,2.324,6.479,5.525,7.01,9.313c1.313,9.325-12.081,15.662-27.623,17.846c-15.541,2.191-27.349-0.597-28.66-9.922   c-0.536-3.807,1.069-7.612,4.213-10.936c0.945-2.292,2.188-4.396,3.674-6.275c-9.814,5.018-15.816,12.675-14.741,20.331   c1.604,11.399,18.309,18.473,37.309,15.797C199.311,128.362,213.412,116.954,211.808,105.553z"/>
</g>
<g>
	<path style="fill:#64DBB7;" d="M239.596,109.648c-1.066,2.625-4.555,3.688-7.787,2.373c-3.234-1.315-4.992-4.506-3.926-7.131   c1.066-2.626,4.553-3.689,7.787-2.374C238.904,103.829,240.662,107.023,239.596,109.648z"/>
	<path style="fill:#FD9405;" d="M266.102,78.648c0.142-0.303,0.277-0.609,0.404-0.92c3.998-9.844-0.74-21.065-10.582-25.063   c-9.844-4-21.063,0.738-25.063,10.582c-0.127,0.312-0.246,0.625-0.354,0.941c-3.063,8.249-0.332,11.594,1.1,21.35   c0.57,3.88-1.236,7.109-1.236,7.109l7.99,3.247l7.988,3.246c0,0,0.959-3.574,4.074-5.957   C258.254,87.19,262.543,86.696,266.102,78.648z"/>
	<path style="fill:#2CAB83;" d="M244.814,102.92c-0.594,1.462-2.521,2.061-4.303,1.337l-9.525-3.87   c-1.781-0.724-2.746-2.497-2.152-3.959l0,0c0.594-1.462,2.521-2.061,4.305-1.336l9.523,3.869   C244.445,99.686,245.408,101.459,244.814,102.92L244.814,102.92z"/>
	<path style="fill:#2CAB83;" d="M243.406,106.387c-0.596,1.463-2.521,2.061-4.305,1.337l-9.523-3.87   c-1.783-0.724-2.746-2.495-2.152-3.959l0,0c0.594-1.461,2.521-2.06,4.303-1.335l9.525,3.87   C243.035,103.154,244,104.925,243.406,106.387L243.406,106.387z"/>
	<path style="fill:#2CAB83;" d="M242.115,109.564c-0.529,1.302-2.402,1.771-4.186,1.047l-9.523-3.87   c-1.783-0.723-2.8-2.366-2.271-3.669l0,0c0.529-1.302,2.404-1.771,4.188-1.047l9.523,3.869   C241.629,106.619,242.645,108.262,242.115,109.564L242.115,109.564z"/>
	<path style="fill:#FD9405;" d="M258.48,49.542c-0.248,0.61-0.943,0.905-1.555,0.656l0,0c-0.611-0.248-0.906-0.944-0.656-1.556   l4.293-10.569c0.248-0.611,0.945-0.905,1.557-0.657l0,0c0.611,0.248,0.904,0.944,0.656,1.556L258.48,49.542z"/>
	<path style="fill:#FFFFFF;" d="M253.568,77.841c0.488,0.817,0.287,1.754-0.326,1.993l0,0c-0.615,0.24-1.342-0.137-1.723-0.765   c-2.225-3.716-6.67-5.521-10.855-4.411c-0.711,0.185-1.494-0.051-1.768-0.652l0,0c-0.273-0.6,0.236-1.412,1.156-1.656   C245.266,70.967,250.799,73.214,253.568,77.841z"/>
	<path style="fill:#FD9405;" d="M247.895,47.355c0.033,0.658-0.475,1.219-1.133,1.251l0,0c-0.658,0.034-1.219-0.474-1.254-1.131   l-0.574-11.395c-0.031-0.661,0.475-1.222,1.133-1.252l0,0c0.658-0.033,1.221,0.473,1.254,1.131L247.895,47.355z"/>
	<path style="fill:#FD9405;" d="M237.375,49.847c0.309,0.583,0.086,1.304-0.496,1.612l0,0c-0.584,0.308-1.305,0.086-1.615-0.498   l-5.336-10.082c-0.307-0.584-0.086-1.306,0.496-1.613l0,0c0.584-0.309,1.307-0.087,1.615,0.495L237.375,49.847z"/>
	<path style="fill:#FD9405;" d="M228.896,56.55c0.525,0.398,0.629,1.146,0.23,1.673l0,0c-0.396,0.525-1.145,0.63-1.672,0.231   l-9.098-6.884c-0.526-0.398-0.63-1.146-0.232-1.672l0,0c0.398-0.525,1.148-0.63,1.672-0.231L228.896,56.55z"/>
	<path style="fill:#FD9405;" d="M224.043,66.21c0.645,0.139,1.055,0.773,0.916,1.418l0,0c-0.139,0.646-0.773,1.055-1.417,0.917   l-11.155-2.394c-0.645-0.139-1.057-0.773-0.917-1.418l0,0c0.138-0.645,0.772-1.055,1.419-0.917L224.043,66.21z"/>
	<path style="fill:#FD9405;" d="M223.915,76.971c0.581-0.132,1.168,0.281,1.316,0.925l0,0c0.148,0.643-0.203,1.27-0.782,1.404   l-10.026,2.295c-0.581,0.133-1.171-0.28-1.318-0.925l0,0c-0.146-0.643,0.205-1.271,0.783-1.404L223.915,76.971z"/>
	<path style="fill:#FD9405;" d="M226.822,85.924c0.369-0.288,0.992-0.097,1.398,0.422l0,0c0.406,0.522,0.438,1.176,0.068,1.461   l-6.369,4.956c-0.367,0.286-0.992,0.097-1.399-0.424l0,0c-0.405-0.521-0.434-1.174-0.067-1.461L226.822,85.924z"/>
	<path style="fill:#FD9405;" d="M265.381,54.458c-0.484,0.449-0.512,1.205-0.061,1.687l0,0c0.447,0.483,1.203,0.511,1.688,0.063   l8.357-7.765c0.482-0.45,0.512-1.205,0.061-1.688l0,0c-0.447-0.482-1.203-0.512-1.686-0.063L265.381,54.458z"/>
	<path style="fill:#FD9405;" d="M271.18,63.582c-0.627,0.203-0.971,0.874-0.768,1.502l0,0c0.203,0.627,0.875,0.971,1.502,0.769   l10.857-3.505c0.629-0.202,0.973-0.875,0.772-1.502l0,0c-0.203-0.628-0.875-0.973-1.506-0.77L271.18,63.582z"/>
	<path style="fill:#FD9405;" d="M272.582,74.299c-0.652-0.081-1.25,0.382-1.33,1.038l0,0c-0.082,0.653,0.381,1.249,1.037,1.331   l11.32,1.413c0.654,0.08,1.25-0.384,1.332-1.038l0,0c0.082-0.653-0.383-1.251-1.037-1.332L272.582,74.299z"/>
	<path style="fill:#FD9405;" d="M269.324,84.605c-0.559-0.35-1.295-0.182-1.646,0.378l0,0c-0.35,0.56-0.182,1.295,0.377,1.645   l9.664,6.066c0.559,0.351,1.295,0.182,1.646-0.377l0,0c0.35-0.559,0.182-1.296-0.379-1.646L269.324,84.605z"/>
	<path style="fill:#FD9405;" d="M261.908,92.408c-0.322-0.499-1.031-0.613-1.588-0.256l0,0c-0.553,0.359-0.738,1.054-0.416,1.553   l5.584,8.639c0.324,0.499,1.035,0.613,1.59,0.256l0,0c0.553-0.358,0.738-1.054,0.418-1.554L261.908,92.408z"/>
	<path style="fill:#FD9405;" d="M253.582,96.795c-0.063-0.463-0.645-0.762-1.297-0.672l0,0c-0.654,0.092-1.133,0.537-1.068,0.998   l1.109,7.994c0.064,0.462,0.645,0.762,1.299,0.672l0,0c0.652-0.09,1.129-0.538,1.066-1L253.582,96.795z"/>
	<path style="fill:#2CAB83;" d="M236.738,94.777c-0.109,0.647-0.725,1.087-1.377,0.977l0,0c-0.652-0.108-1.09-0.726-0.98-1.377   l3.334-19.729c0.111-0.65,0.727-1.091,1.379-0.981l0,0c0.65,0.111,1.088,0.728,0.979,1.378L236.738,94.777z"/>
	<path style="fill:#2CAB83;" d="M240.303,96.224c-0.375,0.542-0.238,1.285,0.305,1.661l0,0c0.543,0.375,1.287,0.241,1.662-0.304   l11.371-16.465c0.375-0.542,0.24-1.288-0.305-1.664l0,0c-0.543-0.374-1.287-0.237-1.662,0.306L240.303,96.224z"/>
	
		<rect x="235.633" y="86.051" transform="matrix(0.3764 -0.9265 0.9265 0.3764 58.9849 280.808)" style="fill:#64DBB7;" width="4.89" height="21.078"/>
	<path style="fill:#FFFFFF;" d="M250.04,53.013c-2.599,0-5.044,0.708-7.207,1.939c1.096-0.267,2.232-0.417,3.4-0.417   c8.742,0,15.829,7.86,15.829,17.556c0,6.813-3.506,12.707-8.621,15.617c7.106-1.727,12.428-8.74,12.428-17.139   C265.869,60.874,258.782,53.013,250.04,53.013z"/>
	<g>
		<path style="fill:#F2E5DA;" d="M227.582,106.294c-1.246-0.828-1.884-2.14-1.445-3.222c0.232-0.57,0.732-0.97,1.361-1.19    c-0.277-0.646-0.332-1.344-0.07-1.986c0.271-0.666,0.826-1.142,1.51-1.405c-0.305-0.667-0.371-1.396-0.1-2.062    c0.115-0.288,0.297-0.531,0.506-0.748l-1.949-0.792l1.842-4.53l1.795,0.729c0.449-1.312,0.904-3.321,0.576-5.55    c-1.432-9.756-4.16-13.102-1.1-21.351c0.109-0.315,0.229-0.629,0.354-0.94c4-9.845,15.221-14.581,25.063-10.584l-24.115,59.358    C229.137,110.937,227.479,108.566,227.582,106.294z"/>
		<path style="fill:#F2E5DA;" d="M256.271,48.643l4.293-10.569c0.248-0.611,0.945-0.905,1.555-0.657l-5.193,12.781    C256.316,49.949,256.023,49.254,256.271,48.643z"/>
		<path style="fill:#F2E5DA;" d="M246.068,34.829c0.658-0.033,1.219,0.473,1.254,1.132l0.574,11.396    c0.033,0.658-0.475,1.219-1.133,1.251c-0.658,0.034-1.219-0.474-1.252-1.131l-0.576-11.395    C244.904,35.421,245.41,34.861,246.068,34.829z"/>
		<path style="fill:#F2E5DA;" d="M229.932,40.88c-0.311-0.583-0.088-1.307,0.494-1.614c0.584-0.308,1.305-0.087,1.615,0.496    l5.336,10.085c0.309,0.584,0.088,1.304-0.496,1.614c-0.582,0.307-1.305,0.085-1.613-0.498L229.932,40.88z"/>
		<path style="fill:#F2E5DA;" d="M229.129,58.223c-0.398,0.526-1.146,0.629-1.672,0.232l-9.099-6.884    c-0.525-0.397-0.629-1.146-0.231-1.672c0.398-0.526,1.147-0.631,1.673-0.231l9.099,6.885    C229.422,56.948,229.527,57.698,229.129,58.223z"/>
		<path style="fill:#F2E5DA;" d="M212.891,63.817l11.155,2.394c0.643,0.139,1.054,0.772,0.916,1.419    c-0.14,0.645-0.772,1.054-1.417,0.916l-11.156-2.394c-0.645-0.139-1.056-0.773-0.918-1.418    C211.61,64.089,212.245,63.679,212.891,63.817z"/>
		<path style="fill:#F2E5DA;" d="M213.889,79.267l10.029-2.294c0.58-0.133,1.166,0.28,1.315,0.924    c0.147,0.643-0.204,1.271-0.784,1.404l-10.027,2.295c-0.579,0.134-1.168-0.28-1.316-0.925    C212.959,80.029,213.311,79.4,213.889,79.267z"/>
		<path style="fill:#F2E5DA;" d="M226.824,85.924c0.369-0.287,0.994-0.096,1.398,0.423c0.406,0.521,0.438,1.175,0.068,1.461    l-6.369,4.956c-0.369,0.286-0.993,0.097-1.398-0.425c-0.404-0.52-0.434-1.173-0.066-1.46L226.824,85.924z"/>
	</g>
</g>
<g>
	<g>
		<g>
			<path style="fill:#2CAB83;" d="M177.569,233.98c1.197,0.813,1.752,2.693,1.238,4.199l0,0c-0.512,1.506-1.901,2.072-3.1,1.262     l-32.103-21.705c-1.197-0.809-1.752-2.688-1.238-4.195l0,0c0.514-1.506,1.899-2.072,3.1-1.262L177.569,233.98z"/>
			<path style="fill:#2CAB83;" d="M146.399,253.971c0.236,1.428,1.713,2.717,3.297,2.879l0,0c1.584,0.16,2.677-0.863,2.439-2.291     l-6.334-38.23c-0.235-1.428-1.711-2.717-3.295-2.877l0,0c-1.586-0.162-2.678,0.863-2.441,2.291L146.399,253.971z"/>
			<path style="fill:#2CAB83;" d="M165.985,245.709c0.822,1.303,0.49,2.977-0.737,3.736l0,0c-1.228,0.758-2.888,0.318-3.708-0.984     l-21.96-34.908c-0.818-1.303-0.489-2.977,0.738-3.734l0,0c1.227-0.762,2.888-0.32,3.707,0.984L165.985,245.709z"/>
			<path style="fill:#64DBB7;" d="M152.706,211.068c1.067,1.664,0.584,3.875-1.08,4.941l-9.188,5.893     c-1.664,1.068-3.877,0.584-4.943-1.078l-6.158-9.602c-1.066-1.664-0.583-3.877,1.081-4.945l9.188-5.891     c1.664-1.066,3.876-0.582,4.942,1.078L152.706,211.068z"/>
		</g>
		<g>
			
				<rect x="109.685" y="214.393" transform="matrix(0.6236 -0.7818 0.7818 0.6236 -127.8345 173.0776)" style="fill:#2CAB83;" width="12.252" height="9.785"/>
			
				<rect x="112.371" y="193.422" transform="matrix(0.6236 -0.7817 0.7817 0.6236 -112.5551 176.5563)" style="fill:#FF5944;" width="29.405" height="23.486"/>
			
				<rect x="112.371" y="193.422" transform="matrix(0.6236 -0.7817 0.7817 0.6236 -112.5551 176.5563)" style="fill:#F2E5DA;" width="29.405" height="23.486"/>
			
				<rect x="125.385" y="163.627" transform="matrix(0.6236 -0.7817 0.7817 0.6236 -85.9946 182.6322)" style="fill:#FF5944;" width="42.542" height="33.978"/>
			
				<rect x="125.487" y="171.072" transform="matrix(0.622 -0.783 0.783 0.622 -85.9964 175.5072)" style="fill:#FFFFFF;" width="26.591" height="11.505"/>
			
				<rect x="112.238" y="199.319" transform="matrix(0.622 -0.783 0.783 0.622 -113.2619 172.4621)" style="fill:#FFFFFF;" width="19.51" height="8.442"/>
			<path style="fill:#FD9405;" d="M177.302,168.771c2.112,1.685,2.46,4.764,0.774,6.876l-2.756,3.451     c-1.684,2.113-4.763,2.461-6.875,0.776l-25.908-20.668c-2.111-1.684-2.459-4.764-0.773-6.876l2.754-3.454     c1.686-2.112,4.766-2.458,6.877-0.772L177.302,168.771z"/>
			<path style="fill:#FD9405;" d="M119.243,229.215c1.133,0.906,1.318,2.555,0.416,3.686l-1.476,1.852     c-0.903,1.133-2.552,1.316-3.683,0.414l-13.879-11.072c-1.134-0.904-1.318-2.551-0.416-3.684l1.477-1.852     c0.902-1.129,2.551-1.314,3.684-0.414L119.243,229.215z"/>
		</g>
	</g>
	<path style="fill:#F2E5DA;" d="M134.284,215.814l3.212,5.01c0.81,1.264,2.282,1.84,3.672,1.578l5.23,31.568   c0.236,1.428,1.713,2.717,3.297,2.879c1.584,0.16,2.677-0.863,2.439-2.291l-4.732-28.57l14.137,22.473   c0.82,1.303,2.48,1.742,3.708,0.984l-26.293-41C137.649,211.1,136.131,213.611,134.284,215.814z"/>
</g>
<g>
	<path style="fill:#2CAB83;" d="M225.921,203.127c0,2.732,2.217,4.951,4.952,4.951l0,0c2.734,0,4.951-2.219,4.951-4.951v-28.699   c0-2.73-2.217-4.952-4.951-4.952l0,0c-2.734,0-4.952,2.222-4.952,4.952V203.127z"/>
	<path style="fill:#64DBB7;" d="M225.998,200.154c0,0-6.779,3.87-19.198-8.597c-12.421-12.463-15.608-28.523-12.792-31.328   c2.814-2.805,18.864,0.432,31.281,12.895C237.719,185.589,225.998,200.154,225.998,200.154z"/>
	<path style="fill:#FF5944;" d="M177.805,206.188c2.064-23.503,38.673-34.817,53.068-9.844   c14.395-24.973,51.004-13.659,53.068,9.844c1.916,21.895-7.189,40.607-22.719,60.547c-11.496,14.756-30.35,4.539-30.35,4.539   s-18.853,10.217-30.351-4.539C184.991,246.795,175.887,228.082,177.805,206.188z"/>
	<path style="fill:#FFFFFF;" d="M279.282,207.865c-1.439-16.393-23.025-25.662-37.077-16.079   c12.601-2.855,27.183,4.722,29.218,17.725c2.827,18.109-3.694,34.195-15.493,51.662c-0.557,0.824-1.145,1.563-1.756,2.228   c2.179-1.033,4.287-2.635,6.16-5.039C273.286,241.732,280.88,226.125,279.282,207.865z"/>
	<rect x="156.776" y="274.775" style="fill:#FD9405;" width="148.193" height="38.832"/>
	<rect x="148.34" y="313.607" style="fill:#FFFFFF;" width="165.064" height="17.605"/>
	<rect x="155.502" y="331.213" style="fill:#64DBB7;" width="150.746" height="25.676"/>
	<rect x="213.1" y="340.02" style="fill:#FD9405;" width="84.341" height="8.066"/>
	<path style="fill:#FFFFFF;" d="M164.112,294.533c0,5.266,4.271,9.537,9.539,9.537c5.268,0,9.536-4.272,9.536-9.537   s-4.268-9.541-9.536-9.541C168.383,284.992,164.112,289.268,164.112,294.533z"/>
	<rect x="296.166" y="274.775" style="fill:#FF5944;" width="3.666" height="38.832"/>
	<rect x="288.828" y="274.775" style="fill:#FF5944;" width="3.67" height="38.832"/>
	<rect x="281.494" y="274.775" style="fill:#FF5944;" width="3.666" height="38.832"/>
	<rect x="183.187" y="331.213" style="fill:#FF5944;" width="4.401" height="25.676"/>
	<rect x="175.351" y="331.213" style="fill:#FF5944;" width="4.401" height="25.676"/>
	<g>
		<path style="fill:#F2E5DA;" d="M200.522,266.734c-15.531-19.939-24.635-38.652-22.717-60.547    c1.04-11.839,10.845-20.578,22.16-23.153c-6.668-10.332-8.158-20.614-5.957-22.806c2.814-2.805,18.864,0.432,31.281,12.895    c0.24,0.243,0.463,0.485,0.689,0.725c0.29-2.454,2.359-4.372,4.894-4.372v101.797    C230.854,271.283,212.014,281.484,200.522,266.734z"/>
		<polygon style="fill:#F2E5DA;" points="183.187,356.889 179.752,356.889 175.351,356.889 155.502,356.889 155.502,331.213     148.34,331.213 148.34,313.607 156.776,313.607 156.776,274.775 230.873,274.775 230.873,356.889 187.588,356.889   "/>
	</g>
</g>
<g>
	<g>
		<polygon style="fill:#FFFFFF;" points="340.221,249.357 334.592,255.957 335.65,247.348   "/>
		<polygon style="fill:#FFFFFF;" points="294.799,229.377 289.172,235.977 290.23,227.369   "/>
		<path style="fill:#FD9405;" d="M339.328,225.627l3.645-50.128l10.184,0.847l-3.625,49.859c-0.467-0.309-0.961-0.59-1.49-0.824    C345.135,224.104,341.953,224.293,339.328,225.627z"/>
		<path style="fill:#FF5944;" d="M334.625,230.6c-1.982,4.508-0.434,9.674,3.439,12.408c0.127,0.088,0.262,0.166,0.393,0.25    c0.438,0.279,0.896,0.539,1.387,0.756c2.684,1.18,5.596,1.102,8.096,0.033c0.1-0.043,0.203-0.09,0.307-0.139    c2.158-1.006,3.978-2.762,5.012-5.111c2.029-4.615,0.354-9.916-3.727-12.592c-0.467-0.309-0.961-0.59-1.49-0.824    c-2.906-1.277-6.088-1.088-8.713,0.246C337.307,226.652,335.611,228.359,334.625,230.6z M341.404,233.582    c0.617-1.402,2.252-2.039,3.654-1.42c1.4,0.615,2.037,2.248,1.42,3.652c-0.615,1.4-2.252,2.037-3.652,1.42    C341.424,236.621,340.787,234.982,341.404,233.582z"/>
		<path style="fill:#FD9405;" d="M338.457,243.258c0.438,0.279,0.896,0.539,1.387,0.756c1.723,0.758,3.537,0.994,5.277,0.785    l-0.691,1.57c-1.055,2.4-3.598,3.604-5.678,2.689l-1.889-0.832c-2.08-0.914-2.912-3.604-1.855-6.002l0.69-1.568    c0.645,0.896,1.438,1.695,2.367,2.352C338.191,243.096,338.326,243.174,338.457,243.258z"/>
		<path style="fill:#FD9405;" d="M303.781,205.322l-1.561-0.686l33.801-35.829l7.506,6.936l-41.666,44.167l3.775-8.586    C306.691,208.926,305.861,206.238,303.781,205.322z"/>
		<path style="fill:#FD9405;" d="M296.932,225.137l4.93-5.227l-2.852,6.479c-1.055,2.4-3.598,3.604-5.678,2.688l-1.891-0.83    c-2.08-0.916-2.908-3.604-1.854-6.002l1.217-2.766L296.932,225.137z"/>
		<path style="fill:#FD9405;" d="M290.805,219.479l2.26-5.137l9.156-9.705l1.561,0.686c2.08,0.916,2.91,3.604,1.855,6.002    l-3.775,8.586l-4.93,5.227L290.805,219.479z"/>
		
			<rect x="325.172" y="175.259" transform="matrix(0.4027 -0.9153 0.9153 0.4027 12.3157 424.3507)" style="fill:#FFFFFF;" width="12.239" height="54.961"/>
		<path style="fill:#FF5944;" d="M327.402,161.56c-4.535,10.311,0.145,22.347,10.457,26.883    c10.309,4.535,22.346-0.146,26.881-10.457c4.535-10.311-0.146-22.346-10.457-26.882    C343.973,146.567,331.938,151.251,327.402,161.56z M340.986,167.537c1.236-2.81,4.514-4.085,7.322-2.85    c2.809,1.235,4.084,4.515,2.848,7.322c-1.234,2.809-4.516,4.083-7.322,2.848C341.027,173.623,339.752,170.343,340.986,167.537z"/>
		
			<rect x="318.121" y="199.393" transform="matrix(0.4025 -0.9154 0.9154 0.4025 11.6558 424.8004)" style="fill:#2CAB83;" width="26.255" height="8.157"/>
	</g>
	<path style="fill:#F2E5DA;" d="M307.555,198.98l-3.881-1.705l4.928-11.204l7.865,3.461l10.924-11.577   c-2.205-5.046-2.381-10.96,0.012-16.395c4.535-10.309,16.57-14.993,26.881-10.456c0.023,0.01,0.045,0.021,0.068,0.032   l-5.975,13.584c-0.024-0.012-0.045-0.022-0.068-0.033c-2.809-1.235-6.086,0.04-7.322,2.85c-1.234,2.807,0.041,6.086,2.848,7.32   c0.023,0.012,0.049,0.018,0.07,0.027l-5.977,13.588c-0.023-0.012-0.047-0.019-0.068-0.029c-1.477-0.648-2.83-1.457-4.065-2.385   l-7.396,7.843l3.857,1.697l2.545-5.785l3.801,1.673l-10.572,24.032l-3.801-1.672l3.1-7.045l-7.844-3.451l-15.623,16.561   l-2.852,6.479c-0.818,1.863-2.533,2.988-4.23,2.979l0.02,0.01l-5.627,6.6l1.059-8.607l0.02,0.006   c-1.154-1.244-1.48-3.27-0.662-5.131l1.217-2.766l2.26-5.137l9.156-9.705L307.555,198.98z"/>
</g>
<g>
	<g>
		<path style="fill:#FF5944;" d="M309.068,262.742v49.438c0,17.215,8.039,27.75,22.18,27.75c14.141,0,22.178-10.535,22.178-27.75    v-49.438h17.715v49.438c0,26.82-17.861,45.096-39.893,45.096c-22.035,0-39.896-18.275-39.896-45.096v-49.438H309.068z"/>
		<path style="fill:#2CAB83;" d="M291.352,312.18v-49.438h17.717v49.438c0,17.215,8.039,27.75,22.18,27.75v17.346    C309.213,357.275,291.352,339,291.352,312.18z"/>
		<g>
			<rect x="291.352" y="262.742" style="fill:#FFFFFF;" width="17.717" height="22.697"/>
			<rect x="353.426" y="262.742" style="fill:#FFFFFF;" width="17.715" height="22.697"/>
		</g>
		<polygon style="fill:#FD9405;" points="331.752,331.199 342.803,281.961 329.74,290.002 329.74,257.666 319.693,306.076     332.754,300.049   "/>
	</g>
	<g>
		<path style="fill:#F2E5DA;" d="M291.352,312.18v-26.74v-22.697h17.717v22.697v26.74c0,17.215,8.039,27.75,22.18,27.75v17.346    C309.213,357.275,291.352,339,291.352,312.18z"/>
		<polygon style="fill:#F2E5DA;" points="329.74,257.666 329.74,290.002 331.248,289.074 331.248,300.744 319.693,306.076   "/>
	</g>
</g>
<g>
	<path style="fill:#FD9405;" d="M163.72,399.226c8.192,0,9.746,3.531,9.746,7.557c0,4.66-4.237,6.992-9.286,6.992h-2.685v5.473   h2.154v4.661h-11.37v-4.661h1.977v-15.396h-1.977v-4.626H163.72z M161.495,409.96h1.59c2.048,0,3.46-1.06,3.46-2.931   c0-2.083-1.235-3.213-3.284-3.213h-1.766V409.96z"/>
	<path style="fill:#FD9405;" d="M186.321,399.226v4.661h-2.189v5.332h6.709v-5.332h-2.083v-4.661h11.477v4.661h-2.048v15.36h2.048   v4.661h-11.477v-4.661h2.083v-5.332h-6.709v5.332h2.189v4.661h-11.44v-4.661h1.942v-15.36h-1.942v-4.661H186.321z"/>
	<path style="fill:#FD9405;" d="M214.29,410.349c0.141-0.707,0.918-2.189,1.307-3.037l1.942-3.565h-1.942v-4.521h9.499v4.521h-1.907   l-6.532,11.476v4.096h1.977v4.591h-11.3v-4.591h2.014v-4.167l-6.851-11.404h-1.729v-4.521h12.075v4.521h-1.835l2.048,3.742   c0.212,0.671,0.953,2.26,1.094,2.86H214.29z"/>
	<path style="fill:#FD9405;" d="M225.627,415.01h6.568c0,2.967,2.966,3.46,4.449,3.531c1.236,0,3.001-0.282,3.001-1.766   c0-2.755-13.56-1.589-13.56-10.594c0-5.226,4.944-7.592,8.404-7.592c2.966,0,5.967,0.953,7.38,3.602l0.354-2.966h6.073v8.863   h-6.392c0-2.613-2.048-4.097-4.52-4.097c-1.023,0-2.436,0.636-2.436,1.872c0,3.637,13.982,2.789,13.982,11.087   c0,5.509-5.156,7.486-9.357,7.486c-3.567,0-6.039-1.659-7.38-3.248l-0.389,2.719h-6.18V415.01z"/>
	<path style="fill:#FD9405;" d="M262.424,399.226v4.661h-2.189v15.324h2.189v4.697h-11.725v-4.697h2.226v-15.324h-2.226v-4.661   H262.424z"/>
	<path style="fill:#FD9405;" d="M287.001,419.495c-2.401,2.648-6.073,4.978-10.698,4.978c-7.486,0-12.466-4.802-12.466-12.676   c0-8.121,6.109-12.995,10.734-12.995c3.532,0,5.12,1.978,5.438,2.4l0.814-1.977h5.543v10.029h-6.32   c-0.106-2.296-1.236-4.449-3.742-4.449c-2.544,0-4.203,3.142-4.203,6.991c0,3.495,1.801,6.639,5.155,6.639   c2.966,0,5.298-3.108,5.614-3.461L287.001,419.495z"/>
	<path style="fill:#FD9405;" d="M288.415,415.01h6.568c0,2.967,2.966,3.46,4.449,3.531c1.236,0,3.001-0.282,3.001-1.766   c0-2.755-13.56-1.589-13.56-10.594c0-5.226,4.944-7.592,8.404-7.592c2.966,0,5.967,0.953,7.381,3.602l0.353-2.966h6.073v8.863   h-6.392c0-2.613-2.048-4.097-4.52-4.097c-1.023,0-2.436,0.636-2.436,1.872c0,3.637,13.982,2.789,13.982,11.087   c0,5.509-5.156,7.486-9.357,7.486c-3.567,0-6.039-1.659-7.38-3.248l-0.389,2.719h-6.18V415.01z"/>
</g>
</svg>