<?xml version="1.0" encoding="UTF-8"?>
<svg xmlns="http://www.w3.org/2000/svg" xmlns:xlink="http://www.w3.org/1999/xlink" version="1.1" x="0px" y="0px" viewBox="0 0 500 500" style="background: transparent;" xml:space="preserve">
<g id="BACKGROUND">
	
</g>
<g id="OBJECTS">
	
		<ellipse transform="matrix(1 -0.0011 0.0011 1 -0.3717 0.266)" style="opacity:0.38;fill:#929497;" cx="250" cy="349.687" rx="217.169" ry="29.595"/>
	<g>
		<g>
			<g>
				<path style="fill:#FFEB8E;" d="M171.111,308.04c1.801,0.56,3.121,1.864,3.786,3.452c0.67,1.576,0.669,3.443-0.192,5.128      c-27.639,54.067-74.186,43.593-90.583,37.806c-1.702-0.602-2.96-1.873-3.598-3.395c-0.641-1.53-0.658-3.302,0.107-4.938      C88.007,330.345,113.184,289.812,171.111,308.04z"/>
				<path style="fill:#F8AC4A;" d="M171.111,308.04c1.801,0.56,3.121,1.864,3.786,3.452L80.525,351.03      c-0.641-1.53-0.658-3.302,0.107-4.938C88.007,330.345,113.184,289.812,171.111,308.04z"/>
			</g>
			<g>
				<path style="fill:#7BDAFF;" d="M179.721,318.37c0.293,2.625-0.639,5.049-2.301,6.793c-1.645,1.744-4.04,2.79-6.684,2.633      c-84.856-5.095-97.553-70.671-99.335-94.949c-0.184-2.521,0.741-4.848,2.334-6.52c1.602-1.681,3.865-2.698,6.392-2.635      C104.463,224.31,170.58,233.845,179.721,318.37z"/>
				<path style="fill:#58C5FF;" d="M179.721,318.37c0.293,2.625-0.639,5.049-2.301,6.793L73.735,226.326      c1.602-1.681,3.865-2.698,6.392-2.635C104.463,224.31,170.58,233.845,179.721,318.37z"/>
			</g>
			<g>
				<path style="fill:#FFEB8E;" d="M164.168,281.697c-0.648,1.771-2.016,3.025-3.634,3.611c-1.607,0.591-3.471,0.498-5.112-0.444      c-52.64-30.269-39.886-76.243-33.297-92.335c0.685-1.671,2.017-2.865,3.568-3.426c1.56-0.565,3.33-0.495,4.926,0.35      C145.984,197.594,185.228,224.737,164.168,281.697z"/>
				<path style="fill:#F8AC4A;" d="M164.168,281.697c-0.648,1.771-2.016,3.025-3.634,3.611l-34.841-96.206      c1.56-0.565,3.33-0.495,4.926,0.35C145.984,197.594,185.228,224.737,164.168,281.697z"/>
			</g>
		</g>
		<g>
			<g>
				<path style="fill:#58C5FF;" d="M234.624,213.698c0.027,1.886,0.903,3.521,2.237,4.609c1.321,1.089,3.112,1.617,4.972,1.269      c59.683-11.186,62.827-58.793,61.923-76.158c-0.095-1.803-0.958-3.37-2.236-4.413c-1.286-1.048-2.98-1.567-4.766-1.296      C279.563,140.32,233.557,152.98,234.624,213.698z"/>
				<path style="fill:#7BDAFF;" d="M234.624,213.698c0.027,1.886,0.903,3.521,2.237,4.609l64.659-79.301      c-1.286-1.048-2.98-1.567-4.766-1.296C279.563,140.32,233.557,152.98,234.624,213.698z"/>
			</g>
			<g>
				<path style="fill:#FFEB8E;" d="M250.355,249.384c2.434,1.024,5.023,0.818,7.167-0.282c2.138-1.083,3.821-3.083,4.419-5.664      c19.158-82.822-40.133-113.58-62.911-122.168c-2.366-0.891-4.859-0.664-6.914,0.391c-2.066,1.06-3.682,2.942-4.338,5.384      C181.475,150.558,171.885,216.667,250.355,249.384z"/>
				<path style="fill:#F8AC4A;" d="M250.355,249.384c2.434,1.024,5.023,0.818,7.167-0.282l-65.407-127.441      c-2.066,1.06-3.682,2.942-4.338,5.384C181.475,150.558,171.885,216.667,250.355,249.384z"/>
			</g>
			<g>
				<path style="fill:#7BDAFF;" d="M219.592,224.077c1.883-0.12,3.473-1.076,4.493-2.462c1.022-1.374,1.462-3.188,1.023-5.028      c-14.113-59.059-61.817-59.854-79.117-58.096c-1.796,0.183-3.319,1.122-4.297,2.451c-0.984,1.336-1.418,3.054-1.06,4.824      C144.089,182.807,159,228.134,219.592,224.077z"/>
				<path style="fill:#58C5FF;" d="M219.592,224.077c1.883-0.12,3.473-1.076,4.493-2.462l-82.391-60.673      c-0.984,1.336-1.418,3.054-1.06,4.824C144.089,182.807,159,228.134,219.592,224.077z"/>
			</g>
		</g>
		<g>
			<g>
				<path style="fill:#FFEB8E;" d="M316.187,345.9c-0.917,1.207-1.172,2.675-0.867,4.024c0.297,1.344,1.168,2.564,2.517,3.265      c43.303,22.478,68.868-6.087,76.896-17.523c0.833-1.188,1.063-2.606,0.77-3.899c-0.294-1.3-1.11-2.467-2.373-3.18      C380.96,321.726,345.581,306.953,316.187,345.9z"/>
				<path style="fill:#F8AC4A;" d="M316.187,345.9c-0.917,1.207-1.172,2.675-0.867,4.024l80.183-18.157      c-0.294-1.3-1.11-2.467-2.373-3.18C380.96,321.726,345.581,306.953,316.187,345.9z"/>
			</g>
			<g>
				<path style="fill:#58C5FF;" d="M328.6,340.918c0.018,1.222,0.585,2.281,1.449,2.986c0.856,0.706,2.016,1.047,3.221,0.822      c38.666-7.247,40.703-38.089,40.117-49.339c-0.061-1.168-0.62-2.183-1.449-2.859c-0.833-0.679-1.931-1.015-3.087-0.84      C357.714,293.379,327.909,301.581,328.6,340.918z"/>
				<path style="fill:#7BDAFF;" d="M328.6,340.918c0.018,1.222,0.585,2.281,1.449,2.986l41.889-51.376      c-0.833-0.679-1.931-1.015-3.087-0.84C357.714,293.379,327.909,301.581,328.6,340.918z"/>
			</g>
		</g>
	</g>
	<g>
		<g>
			<g>
				<path style="fill:#002B6A;" d="M299.374,194.519v31.49c0,3.63-2.93,6.56-6.56,6.56h-1.06c-3.63,0-6.56-2.93-6.56-6.56v-17.85      c0-2.11-1-3.99-2.55-5.18c-1.11-0.87-2.51-1.38-4.02-1.38h-53.82c-3.62,0-6.56,2.94-6.56,6.56v17.85c0,3.63-2.94,6.56-6.56,6.56      h-1.07c-3.62,0-6.56-2.93-6.56-6.56v-31.49c0-3.63,2.94-6.56,6.56-6.56h82.2c1.52,0,2.92,0.51,4.02,1.38      C298.384,190.529,299.374,192.409,299.374,194.519z"/>
				<path style="fill:#0054B2;" d="M299.374,194.519v28.11c0,3.63-2.93,6.56-6.56,6.56h-1.06c-3.63,0-6.56-2.93-6.56-6.56v-17.85      c0-2.11-1-3.99-2.55-5.18c-1.11-0.87-2.51-1.38-4.02-1.38h-53.82c-3.62,0-6.56,2.94-6.56,6.56v17.85c0,3.63-2.94,6.56-6.56,6.56      h-1.07c-3.62,0-6.56-2.93-6.56-6.56v-28.11c0-3.63,2.94-6.56,6.56-6.56h82.2c1.52,0,2.92,0.51,4.02,1.38      C298.384,190.529,299.374,192.409,299.374,194.519z"/>
				<path style="fill:#0072B2;" d="M277.402,193.133h-60.676c-0.747,0-1.352-0.605-1.352-1.352l0,0c0-0.747,0.605-1.352,1.352-1.352      h60.676c0.747,0,1.352,0.605,1.352,1.352l0,0C278.754,192.527,278.149,193.133,277.402,193.133z"/>
			</g>
			<g>
				<path style="fill:#002B6A;" d="M346.534,221.109v125.74c0,6.86-5.57,12.42-12.43,12.42h-164.79c-6.76,0-12.25-5.39-12.41-12.11      c-0.01-0.1-0.01-0.21-0.01-0.31v-125.74c0-0.92,0.1-1.82,0.29-2.68c1.22-5.58,6.19-9.75,12.13-9.75h164.79      c0.9,0,1.78,0.1,2.62,0.27c4.74,1.03,8.48,4.75,9.52,9.48C346.434,219.289,346.534,220.189,346.534,221.109z"/>
				<path style="fill:#0054B2;" d="M336.734,209.279v125.74c0,6.86-5.57,12.42-12.43,12.42h-164.79c-0.9,0-1.77-0.1-2.61-0.28      c-0.01-0.1-0.01-0.21-0.01-0.31v-125.74c0-0.92,0.1-1.82,0.29-2.68c1.22-5.58,6.19-9.75,12.13-9.75h164.79      c0.9,0,1.78,0.1,2.62,0.27C336.734,209.059,336.734,209.169,336.734,209.279z"/>
				<path style="fill:#002B6A;" d="M346.534,221.109v62.49c-1.15,0.9-2.43,1.67-3.81,2.28l-71.2,31.33      c-10.52,4.63-22.48,4.77-33.12,0.39l-77.32-31.86c-1.53-0.63-2.93-1.45-4.19-2.44v-62.19c0-0.92,0.1-1.82,0.29-2.68      c1.69-0.83,3.6-1.3,5.61-1.3h177.84c2.01,0,3.92,0.47,5.61,1.3C346.434,219.289,346.534,220.189,346.534,221.109z"/>
				<path style="fill:#0072B2;" d="M162.77,297.121v22.865c0,11.104,8.915,20.152,20.017,20.316l56.782,0.841      c1.85,0.027,2.173-2.631,0.37-3.047l-50.996-11.762c-6.068-1.4-11.16-5.505-13.814-11.138l-8.883-18.853      C165.416,294.58,162.77,295.172,162.77,297.121z"/>
			</g>
			<g>
				<path style="fill:#FE7A30;" d="M353.374,221.419v39.68c0,7.07-4.18,13.48-10.65,16.33l-71.2,31.33      c-10.52,4.63-22.48,4.77-33.12,0.39l-77.32-31.86c-4.48-1.85-7.92-5.4-9.7-9.72c-0.86-2.11-1.33-4.4-1.33-6.77v-39.38      c0-7.03,5.7-12.74,12.74-12.74h177.84c1.14,0,2.24,0.15,3.29,0.43C349.364,210.559,353.374,215.529,353.374,221.419z"/>
				<path style="fill:#FE9A30;" d="M344.244,211.959v39.68c0,7.07-4.17,13.47-10.65,16.32l-71.19,31.33      c-10.53,4.63-22.49,4.78-33.12,0.39l-77.32-31.86c-0.2-0.08-0.39-0.16-0.58-0.25c-0.86-2.11-1.33-4.4-1.33-6.77v-39.38      c0-7.03,5.7-12.74,12.74-12.74h177.84c1.14,0,2.24,0.15,3.29,0.43C344.134,210.029,344.244,210.979,344.244,211.959z"/>
				<path style="fill:#FEB130;" d="M156.894,250.484v-14.983c0-11.358,9.208-20.565,20.566-20.565h135.673      c1.899,0,2.095,2.775,0.214,3.042l-130.954,18.545c-5.421,0.768-10.312,3.665-13.589,8.05l-5.909,7.906      C160.976,255.046,156.894,253.689,156.894,250.484z"/>
			</g>
			<g>
				<path style="fill:#FE7A30;" d="M264.187,292.13c0,6.62-5.37,11.98-11.98,11.98c-3.87,0-7.3-1.83-9.49-4.67      c-1.56-2.02-2.49-4.56-2.49-7.31c0-6.61,5.36-11.98,11.98-11.98c2.5,0,4.82,0.76,6.74,2.08      C262.107,284.38,264.187,288.02,264.187,292.13z"/>
				<path style="fill:#002B39;" d="M263.202,292.619c0,6.62-5.37,11.98-11.98,11.98c-3.87,0-7.3-1.83-9.49-4.67      c-1.56-2.02-2.49-4.56-2.49-7.31c0-6.61,5.36-11.98,11.98-11.98c2.5,0,4.82,0.76,6.74,2.08      C261.121,284.869,263.202,288.509,263.202,292.619z"/>
				<path style="fill:#002B6A;" d="M260.461,290.039c0,6.61-5.36,11.98-11.97,11.98c-2.51,0-4.83-0.77-6.76-2.09      c-1.56-2.02-2.49-4.56-2.49-7.31c0-6.61,5.36-11.98,11.98-11.98c2.5,0,4.82,0.76,6.74,2.08      C259.531,284.739,260.461,287.279,260.461,290.039z"/>
				<path style="fill:#0054B2;" d="M259.072,292.619c0,4.34-3.52,7.85-7.85,7.85c-2.63,0-4.96-1.3-6.39-3.29      c-0.92-1.29-1.46-2.86-1.46-4.56c0-4.33,3.52-7.85,7.85-7.85c1.2,0,2.33,0.27,3.34,0.74      C257.221,286.769,259.072,289.479,259.072,292.619z"/>
				<path style="fill:#0072B2;" d="M256.031,290.089c0,4.33-3.52,7.84-7.85,7.84c-1.2,0-2.34-0.27-3.35-0.75      c-0.92-1.29-1.46-2.86-1.46-4.56c0-4.33,3.52-7.85,7.85-7.85c1.2,0,2.33,0.27,3.34,0.74      C255.481,286.799,256.031,288.379,256.031,290.089z"/>
			</g>
			<path style="fill:#0072B2;" d="M252.728,193.133H250.7c-0.747,0-1.352-0.605-1.352-1.352l0,0c0-0.747,0.605-1.352,1.352-1.352     h2.028c0.747,0,1.352,0.605,1.352,1.352l0,0C254.08,192.527,253.475,193.133,252.728,193.133z"/>
		</g>
		<g>
			<path style="fill:#FFA900;" d="M385.98,230.219c1.829,0.82,3.561,2.265,4.566,4.074c1.025,1.799,1.389,3.724,1.498,5.502     c0.145,3.566-0.552,6.809-1.211,9.909c-0.645,3.054-1.322,6.117-1.231,8.97c0.049,1.462,0.333,2.762,0.844,4.24     c0.483,1.476,1.047,2.966,1.489,4.57c0.45,1.592,0.722,3.331,0.603,5.064c-0.086,0.86-0.207,1.719-0.459,2.532     c-0.228,0.826-0.552,1.607-0.815,2.313c-1.117,2.906-1.992,5.905-2.494,8.977c-0.53,3.068-0.603,6.211-0.243,9.32     c0.394,3.105,1.293,6.155,2.609,9.029c-1.496-2.783-2.603-5.798-3.207-8.935c-0.569-3.139-0.703-6.379-0.359-9.571     c0.315-3.197,1.02-6.35,1.978-9.411c0.24-0.79,0.478-1.491,0.624-2.2c0.174-0.711,0.221-1.432,0.25-2.145     c0.002-1.432-0.302-2.844-0.801-4.262c-0.488-1.418-1.134-2.851-1.732-4.344c-0.625-1.467-1.156-3.255-1.304-4.955     c-0.177-1.722-0.095-3.42,0.058-5.046c0.148-1.611,0.383-3.237,0.618-4.795c0.47-3.1,0.864-6.152,0.562-8.911     c-0.169-1.358-0.544-2.59-1.159-3.5c-0.611-0.915-1.455-1.522-2.529-1.95L385.98,230.219z"/>
			<path style="fill:#404041;" d="M394.427,234.271c-0.484,1.128-1.518,2.027-2.926,2.217l-26.219,3.713     c-2.996,0.433-5.638,2.199-7.158,4.816l-1.868,3.186c-0.949,1.633-3.018,2.209-4.68,1.313l-77.58-41.802     c-1.662-0.896-2.319-2.94-1.477-4.631l1.091-2.203l0.543-1.109c1.263-2.522,1.368-5.448,0.338-8.051     c-0.075-0.192-0.161-0.389-0.253-0.576l-11.319-23.94c-0.773-1.626-0.287-3.371,0.877-4.434c0.814-0.771,1.969-1.179,3.229-0.968     l66.987,11.464c5.111,0.871,9.787,3.391,13.326,7.18l45.546,48.705l0.87,0.936C394.886,231.302,395.03,232.947,394.427,234.271z"/>
			<path style="fill:#231F20;" d="M394.427,234.271c-0.484,1.128-1.518,2.027-2.926,2.217l-26.219,3.713     c-2.996,0.433-5.638,2.199-7.158,4.816l-1.868,3.186c-0.949,1.633-3.018,2.209-4.68,1.313l-77.582-41.804     c-1.659-0.894-2.311-2.941-1.475-4.63l1.091-2.203l75.604,40.738c1.374,0.74,3.087,0.227,3.827-1.147l0,0     c0.74-1.374,0.227-3.087-1.147-3.827l-68.264-36.783c0,0,46.506,22.97,56.581-22.128     C342.325,174.749,378.943,216.402,394.427,234.271z"/>
			<path style="fill:#58595B;" d="M329.609,229.513l-52.425-28.248c-0.401-0.216-0.55-0.716-0.335-1.116l0.164-0.305     c0.216-0.401,0.716-0.55,1.116-0.335l52.425,28.248c0.401,0.216,0.55,0.716,0.335,1.116l-0.164,0.305     C330.509,229.579,330.01,229.729,329.609,229.513z"/>
			<path style="fill:#58595B;" d="M276.08,189.529l-9.922-21.899c-0.709-1.566,0.63-3.285,2.321-2.98l66.019,11.897     c0.409,0.074,0.353,0.676-0.062,0.674l-48.278-0.203c-3.295-0.014-6.016,2.569-6.174,5.86l-0.325,6.774     C278.875,191.108,276.762,191.035,276.08,189.529z"/>
		</g>
	</g>
	<g>
		<g>
			<path style="fill:#FD6E1B;" d="M118.69,251.924l-16.201-1.4c-0.842-0.073-1.63,0.424-1.927,1.216l0,0     c-0.362,0.964,0.118,2.04,1.076,2.416l17.022,6.673c1.217,0.477,2.586-0.159,3.005-1.397l1.923-5.671     C123.589,253.762,119.845,251.139,118.69,251.924z"/>
			<path style="fill:#FFB49D;" d="M118.693,251.926c0,0,2.18,1.82,4.9,1.831l16.837-34.891l1.714-3.566l2.741-5.704l-9.048-3.386     l-1.45,3.852L118.693,251.926z"/>
			<path style="fill:#FD6E1B;" d="M145.911,270.26l-15.769,3.962c-0.82,0.206-1.402,0.933-1.425,1.778l0,0     c-0.027,1.029,0.777,1.89,1.806,1.933l18.267,0.755c1.306,0.054,2.392-0.994,2.385-2.301l-0.033-5.988     C151.141,270.399,146.746,269.142,145.911,270.26z"/>
			<path style="fill:#FFB49D;" d="M145.911,270.254c0,0,2.656,1.016,5.228,0.148l4.455-37.959l0.264-2.233l0.995-8.498l-9.662-0.264     l-0.116,4.371l-0.074,2.847L145.911,270.254z"/>
			<path style="fill:#FF9682;" d="M147.192,221.448l-0.116,4.371c3.344,3.037,6.424,5.238,8.519,6.625l0.264-2.233l0.995-8.498     L147.192,221.448z"/>
			<path style="fill:#FF9682;" d="M134.387,210.061c1.81,3.27,3.884,6.201,6.043,8.805l1.714-3.566l2.741-5.704l-9.048-3.386     L134.387,210.061z"/>
		</g>
		<g>
			<path style="fill:#002B6A;" d="M182.332,189.067c0,0,8.598,12.302-7.143,21.033c0,0-10.264,5.555-15.617,14.952     c-1.402,2.462-4.603,3.248-7.003,1.744c-5.548-3.477-14.664-10.396-16.388-18.469c-0.48-2.246,0.17-4.592,1.742-6.266     c3.464-3.689,11.254-10.947,22.4-15.343C160.323,186.718,173.601,190.786,182.332,189.067z"/>
			<path style="fill:#00245E;" d="M175.184,210.105c0,0-10.255,5.545-15.609,14.942c-1.408,2.466-4.603,3.249-7.006,1.746     c-1.037-0.646-2.201-1.418-3.418-2.296c2.106,0.518,4.402-0.381,5.524-2.36c5.355-9.397,15.62-14.953,15.62-14.953     c10.678-5.916,10.159-13.482,8.72-17.736c1.154-0.053,2.275-0.18,3.323-0.381C182.337,189.067,190.93,201.363,175.184,210.105z"/>
		</g>
		<g>
			<path style="fill:#FF9682;" d="M169.847,156.189c-1.467-1.131-3.6-0.775-4.807,0.631l-14.23,16.581     c-1.052,1.226-2.673,1.804-4.264,1.522l-21.889-3.888c-1.874-0.333-3.659,0.928-3.972,2.805l0,0.001     c-0.308,1.849,0.93,3.602,2.775,3.93l26.185,4.651c0.066,0.012,0.13,0.007,0.195,0.015c1.152,0.205,2.378-0.174,3.196-1.126     l17.321-20.182C171.628,159.649,171.412,157.395,169.847,156.189z"/>
			<path style="fill:#FD5F1B;" d="M159.532,165.003l3.728,3.068c0.915,0.753,2.268,0.622,3.021-0.294l3.922-4.769     c1.599-1.945,1.32-4.818-0.625-6.418l0,0c-1.945-1.601-4.82-1.321-6.42,0.625l-3.921,4.768     C158.486,162.898,158.617,164.25,159.532,165.003z"/>
			<path style="fill:#FD6E1B;" d="M171.948,153.546L171.948,153.546c-4.884,0-8.085,2.776-8.775,7.611l-0.354,9.055     c-0.124,3.179-0.74,6.319-1.826,9.31l-1.617,4.453c-0.78,2.147-0.501,4.607,0.955,6.368c1.123,1.358,2.792,2.264,4.709,2.354     l11.902,0.563c3.93,0.186,7.126-3.131,6.793-7.052l-2.008-23.677C181.296,157.45,177.046,153.546,171.948,153.546z"/>
			<g>
				<path style="fill:#929497;" d="M162.911,182.907l-4.904-20.225c-0.306-1.261-1.435-2.149-2.733-2.149h-31.016      c-1.849,0-3.216,1.724-2.793,3.525l3.585,15.27l1.132,4.815h0.001v0.947c0,0.66,0.535,1.195,1.195,1.195h39.227      c0.593,0,1.073-0.48,1.073-1.073l0,0c0-0.593-0.48-1.073-1.073-1.073h-2.129C163.733,184.138,163.087,183.63,162.911,182.907z"/>
				<path style="fill:#A6A8AB;" d="M149.52,179.328h-24.47l-3.602-15.34c-0.414-1.765,0.925-3.455,2.738-3.455h27.86l2.89,11.907      C155.787,175.949,153.13,179.328,149.52,179.328z"/>
				<path style="fill:#D0D2D3;" d="M142.009,163.178h-18.856c-0.3,0-0.544-0.243-0.544-0.543l0,0c0-0.3,0.243-0.544,0.544-0.544      h18.856c0.3,0,0.544,0.243,0.544,0.544l0,0C142.553,162.935,142.309,163.178,142.009,163.178z"/>
			</g>
			<g>
				<path style="fill:#FFB49D;" d="M144.783,183.072l21.173,1.844c0.938,0.082,1.793-0.536,2.012-1.451l4.983-20.86      c0.435-1.819,2.186-3.124,4.026-2.786c1.962,0.361,3.197,2.285,2.739,4.201l-5.905,24.718c0.001,0.11,0.014,0.217,0.004,0.328      l0,0c0,1.907-1.554,3.332-3.454,3.166l-26.373-2.296c-1.962-0.171-3.397-1.95-3.12-3.925      C141.128,184.16,142.919,182.91,144.783,183.072z"/>
				<path style="fill:#FD6E1B;" d="M172.766,169.073l4.749,0.875c1.166,0.215,2.285-0.556,2.5-1.722l1.118-6.07      c0.456-2.477-1.182-4.855-3.659-5.311h0c-2.477-0.456-4.855,1.182-5.312,3.659l-1.118,6.069      C170.83,167.739,171.601,168.858,172.766,169.073z"/>
			</g>
		</g>
		<g>
			<path style="fill:#3F302B;" d="M163.162,138.467c-2.505-0.831-4.015-3.721-3.596-6.327c0.419-2.606,2.513-4.772,5.005-5.639     c2.492-0.868,5.297-0.548,7.72,0.5c1.685,0.729,3.243,1.82,4.333,3.298c1.09,1.478,1.682,3.361,1.422,5.179     c1.68,0.714,2.779,2.594,3.233,4.363c0.454,1.769,0.039,3.739-1.089,5.174c1.466,0.467,2.589,2.155,2.878,3.667     c0.289,1.512-0.105,3.095-0.836,4.449c1.135-0.042,2.234,0.566,2.835,1.529c0.602,0.963,0.645,2.249,0.11,3.25     c1.067-0.38,2.197-0.749,3.258-0.353c0.569,0.212,1.035,0.627,1.493,1.027c0.457,0.4,0.936,0.804,1.515,0.987     c0.579,0.183,1.288,0.093,1.675-0.376c-0.799,1.673-1.607,2.163-2.772,2.898c-0.799,0.504-1.717,0.921-2.657,0.824     c-1.322-0.137-2.316-1.225-3.176-2.239c-1.034,0.525-2.559,0.327-3.425-0.443c-0.866-0.771-1.196-2.088-0.796-3.176     c-1.438-0.528-2.544-1.62-3.107-3.044c-0.562-1.424-0.487-3.088,0.203-4.455c-2.413-0.586-4.355-2.652-4.874-5.08     C169.349,142.825,166.553,139.591,163.162,138.467z"/>
			<g>
				<path style="fill:#FFAA82;" d="M173.945,144.975v8.032c0,1.492-1.206,2.709-2.699,2.709s-2.709-1.217-2.709-2.709v-8.032      H173.945z"/>
				<path style="fill:#FF9682;" d="M173.945,144.975v3.556c-0.974,1.344-2.572,2.222-4.371,2.222c-0.349,0-0.698-0.021-1.037-0.085      v-5.693H173.945z"/>
				<path style="fill:#FFB49D;" d="M174.612,137.005v6.652c0,2.881-2.249,5.316-5.128,5.433c-4.29,0.174-7.826-3.255-7.826-7.507      v-3.973c0-0.342,0.264-0.622,0.606-0.632c2.394-0.073,7.054-0.495,9.765-2.538c0.582-0.434,1.418-0.286,1.852,0.317l0,0      C174.356,135.411,174.612,136.197,174.612,137.005z"/>
			</g>
		</g>
	</g>
	<g>
		<g>
			<g>
				<g>
					<path style="fill:#FE7A30;" d="M425.511,341.206l2.942,5.928c0.362,0.73,0.127,1.615-0.55,2.069l-14.223,9.532       c-1.014,0.68-2.393,0.343-2.981-0.727l0,0c-0.371-0.676-0.337-1.501,0.087-2.145l7.801-11.834L425.511,341.206z"/>
					<path style="fill:#FFB49D;" d="M416.477,339.644l1.406,2.924l0.708,1.46c0,0,4.21,1.308,6.915-2.825l-0.775-1.725l-2.241-4.948       L416.477,339.644z"/>
					<path style="fill:#FF9682;" d="M416.477,339.644l1.406,2.924l0.092-0.039l6.097-2.656c0.24-0.1,0.464-0.237,0.659-0.395       l-2.241-4.948L416.477,339.644z"/>
				</g>
				<path style="fill:#002B6A;" d="M424.97,334.323l-11.542-26.084l3.665-31.669l-16.267-0.264l-0.447,27.486      c-1.196,1.81-1.479,4.169-0.536,6.3l0.418,0.946l-0.047,2.869c-0.043,2.666,1.592,4.964,3.927,5.901l8.782,19.846      c0.728,1.646,2.653,2.39,4.299,1.661l6.087-2.694C424.955,337.893,425.699,335.968,424.97,334.323z"/>
			</g>
			<g>
				<g>
					<path style="fill:#FE7A30;" d="M395.188,355.389l-0.747,6.575c-0.092,0.81-0.771,1.426-1.585,1.439l-17.119,0.283       c-1.221,0.02-2.196-1.011-2.108-2.229l0,0c0.056-0.769,0.532-1.444,1.237-1.754l12.977-5.702L395.188,355.389z"/>
					<path style="fill:#FFB49D;" d="M388.449,349.173l-0.407,3.219l-0.198,1.61c0,0,2.825,3.384,7.341,1.382l0.286-1.869       l0.804-5.372L388.449,349.173z"/>
					<path style="fill:#FF9682;" d="M388.449,349.173l-0.407,3.219l0.099,0.018l6.563,1.08c0.256,0.046,0.519,0.053,0.768,0.026       l0.804-5.372L388.449,349.173z"/>
				</g>
				<g>
					<path style="fill:#0054B2;" d="M404.035,314.882l12.636-35.788l-15.802-3.875l-8.956,36.524       c-0.072,0.293-0.114,0.586-0.143,0.877c-0.363,0.65-0.627,1.368-0.755,2.145l-5.217,31.903c-0.29,1.776,0.914,3.451,2.69,3.742       l6.569,1.074c1.776,0.29,3.451-0.914,3.742-2.69l5.217-31.902C404.129,316.208,404.13,315.532,404.035,314.882z"/>
					<path style="fill:#004CA1;" d="M404.04,314.88c0.09,0.65,0.09,1.33-0.02,2.01l-5.22,31.9c-0.29,1.78-1.97,2.98-3.74,2.69       l-1.39-0.23c0.78-0.47,1.35-1.27,1.51-2.24l5.21-31.9c0.11-0.68,0.11-1.36,0.02-2.01l12.64-35.79l-12.44-3.04l0.26-1.05       l15.8,3.87L404.04,314.88z"/>
				</g>
			</g>
		</g>
		<g>
			<g>
				<path style="fill:#FF9682;" d="M356.667,253.671c0.495-1.829,2.192-3.174,4.086-3.226c1.55-0.042,2.864,0.683,3.673,1.785      c0.649,0.885,1.7,1.387,2.792,1.498l17.394,1.762c1.259,0.127,2.526-0.14,3.625-0.765l18.294-10.401      c1.359-0.773,2.876-0.191,3.37,1.292v0c0.494,1.483-0.213,3.329-1.572,4.102l-19.638,11.165      c-0.19,0.108-0.387,0.185-0.588,0.244c-0.401,0.159-0.84,0.238-1.299,0.191l-23.079-2.337c-0.297-0.03-0.572-0.117-0.831-0.231      c-0.78,0.398-1.682,0.573-2.615,0.439C357.696,258.816,355.964,256.27,356.667,253.671z"/>
				<path style="fill:#7BDAFF;" d="M399.883,254.833l-3.27-4.366c-0.683-0.912-0.497-2.204,0.415-2.887l7.696-5.764      c2.117-1.586,5.12-1.155,6.706,0.963v0c1.586,2.118,1.155,5.12-0.963,6.706l-7.696,5.764      C401.858,255.931,400.565,255.745,399.883,254.833z"/>
			</g>
			<g>
				<path style="fill:#58C5FF;" d="M408.754,240.859L408.754,240.859c-4.615,0-7.639,2.623-8.292,7.192l-0.334,8.557      c-0.117,3.004-0.699,5.972-1.726,8.797l-1.528,4.208c-0.737,2.029-0.473,4.353,0.902,6.017c1.061,1.283,2.639,2.139,4.45,2.225      l11.247,0.532c3.714,0.176,6.733-2.959,6.419-6.664l-1.898-22.374C417.587,244.549,413.572,240.859,408.754,240.859z"/>
				<path style="fill:#4CBAF4;" d="M413.47,278.39l-3.03-0.14c3.17-0.43,5.57-3.3,5.29-6.61l-1.9-22.37      c-0.35-4.05-3.25-7.3-7.04-8.23c0.62-0.12,1.27-0.18,1.96-0.18c4.82,0,8.84,3.69,9.24,8.49l1.9,22.37      C420.21,275.43,417.19,278.56,413.47,278.39z"/>
			</g>
			<g>
				<path style="fill:#FFB49D;" d="M412.062,251.845c-0.363-1.532,0.495-3.355,1.907-4.052l0,0c1.411-0.697,2.862-0.014,3.225,1.518      l5.475,23.125c0.05,0.212,0.068,0.424,0.069,0.633c0.04,0.43-0.008,0.873-0.181,1.3l-7.654,18.864      c-0.533,1.314-0.796,2.707-1.027,4.106c-0.135,0.819-0.507,1.618-1.144,2.296c-1.204,1.283-3.133,1.726-4.768,1.075      c-2.689-1.07-3.591-4.236-2.09-6.518c0.396-0.603,0.916-1.072,1.503-1.401c1.533-0.858,2.63-2.329,3.291-3.957l5.625-13.865      c0.51-1.258,0.617-2.644,0.304-3.965L412.062,251.845z"/>
				<path style="fill:#7BDAFF;" d="M419.651,259.685l-5.297,1.305c-1.106,0.273-2.224-0.403-2.496-1.509l-2.3-9.336      c-0.633-2.569,0.937-5.164,3.505-5.797l0,0c2.569-0.633,5.164,0.936,5.797,3.505l2.3,9.336      C421.432,258.295,420.757,259.413,419.651,259.685z"/>
			</g>
		</g>
		<g>
			<path style="fill:#3F302B;" d="M416.184,216.55c-1.042,0-2.022,0.267-2.876,0.735c-3.068-3.59-8.007-5.637-12.784-3.105     c-11.17,5.921-1.49,13.727-1.49,13.727s-1.538,10.268,11.606,4.854c2.475-1.02,4.054-2.524,4.914-4.255     c0.207,0.022,0.417,0.033,0.629,0.033c3.311,0,5.994-2.684,5.994-5.994C422.179,219.234,419.495,216.55,416.184,216.55z"/>
			<g>
				<path style="fill:#FFAA82;" d="M410.641,232.761v7.59c0,1.41-1.14,2.56-2.55,2.56s-2.56-1.15-2.56-2.56v-7.59H410.641z"/>
				<path style="fill:#FF9682;" d="M410.641,232.761v3.36c-0.92,1.27-2.43,2.1-4.13,2.1c-0.33,0-0.66-0.02-0.98-0.08v-5.38H410.641z      "/>
				<path style="fill:#FFB49D;" d="M406.133,236.653L406.133,236.653c-3.92,0-7.099-3.178-7.099-7.099v-7.606h12.232v9.57      C411.267,234.354,408.969,236.653,406.133,236.653z"/>
				<path style="fill:#3F302B;" d="M398.168,225.202c0,0,7.102,0.281,10.659-2.396c0.554-0.417,1.347-0.268,1.754,0.293l1.531,2.111      l0.592-5.332c0,0-14.62,0.169-14.535,0.423C398.253,220.554,398.168,225.202,398.168,225.202z"/>
			</g>
		</g>
	</g>
	<g>
		<g>
			<g>
				<g>
					<path style="fill:#FC5C43;" d="M188.373,332.66l-5.475,3.717c-0.674,0.458-0.904,1.345-0.538,2.072l7.704,15.29       c0.549,1.091,1.916,1.475,2.953,0.831l0,0c0.655-0.406,1.031-1.142,0.978-1.911l-0.98-14.14L188.373,332.66z"/>
					<path style="fill:#FFB49D;" d="M197.008,335.739l-2.661,1.856l-1.334,0.924c0,0-4.309-0.929-4.635-5.858l1.522-1.121       l4.383-3.209L197.008,335.739z"/>
					<path style="fill:#FF9682;" d="M197.008,335.739l-2.661,1.856l-0.062-0.079l-4.005-5.309c-0.16-0.205-0.288-0.435-0.38-0.667       l4.383-3.209L197.008,335.739z"/>
				</g>
				<path style="fill:#9C7959;" d="M192.16,326.119l27.535-17.802c3.135-2.027,7.321-1.129,9.348,2.007v0      c2.027,3.135,1.129,7.321-2.007,9.348l-27.535,17.802c-1.568,1.014-3.66,0.564-4.674-1.003l-3.671-5.677      C190.143,329.225,190.593,327.133,192.16,326.119z"/>
				<path style="fill:#9C7959;" d="M215.726,314.883l-6.622-24.723c-1.494-5.578,2.132-11.232,7.824-12.202l0,0      c5.692-0.97,10.986,3.164,11.423,8.922l1.94,25.521c0.29,3.82-2.375,7.233-6.152,7.877l0,0      C220.363,320.922,216.717,318.584,215.726,314.883z"/>
			</g>
			<g>
				<g>
					<path style="fill:#FC5C43;" d="M217.36,348.503l-1.009,6.54c-0.124,0.805,0.368,1.578,1.151,1.805l16.441,4.777       c1.173,0.341,2.385-0.397,2.62-1.596l0,0c0.149-0.756-0.133-1.533-0.732-2.017l-11.019-8.915L217.36,348.503z"/>
					<path style="fill:#FFB49D;" d="M225.496,344.279l-0.455,3.212l-0.232,1.606c0,0-3.616,2.521-7.446-0.598l0.216-1.878       l0.637-5.395L225.496,344.279z"/>
					<path style="fill:#FF9682;" d="M225.496,344.279l-0.455,3.212l-0.1-0.009l-6.615-0.685c-0.259-0.023-0.514-0.086-0.747-0.176       l0.637-5.395L225.496,344.279z"/>
				</g>
				<g>
					<path style="fill:#BB9471;" d="M215.541,340.233l4.932-32.416c0.562-3.691,4.009-6.228,7.7-5.667l0,0       c3.691,0.562,6.228,4.009,5.667,7.701l-4.932,32.416c-0.281,1.846-2.005,3.114-3.85,2.833l-6.684-1.017       C216.529,343.803,215.26,342.079,215.541,340.233z"/>
					<path style="fill:#BB9471;" d="M219.509,311.909l-9.587-23.731c-2.163-5.354,0.746-11.408,6.277-13.065l0,0       c5.531-1.657,11.29,1.801,12.426,7.462l5.038,25.094c0.754,3.756-1.475,7.469-5.145,8.568l0,0       C224.848,317.337,220.944,315.461,219.509,311.909z"/>
					<path style="fill:#A98663;" d="M227.27,344.67c-0.64,0.38-1.42,0.55-2.21,0.43l-6.69-1.02c-1.84-0.28-3.11-2-2.83-3.85       l4.23-27.76c-0.1-0.19-0.18-0.37-0.26-0.56l-9.59-23.73c-2.16-5.36,0.75-11.41,6.28-13.07c1.81-0.54,3.64-0.53,5.33-0.08       c-0.11,0.02-0.22,0.05-0.33,0.08c-5.53,1.66-8.44,7.71-6.28,13.07l9.59,23.73c0.08,0.19,0.16,0.37,0.26,0.56l-4.23,27.76       c-0.28,1.85,0.99,3.57,2.83,3.85L227.27,344.67z"/>
				</g>
			</g>
		</g>
		<g>
			<path style="fill:#45446C;" d="M212.031,246.002L212.031,246.002c-3.571,0.532-6.245,3.549-6.347,7.157l-0.719,25.477     c-0.086,3.059,2.613,5.454,5.641,5.002l13.656-2.036c3.018-0.45,4.902-3.512,3.943-6.41l-8.003-24.165     C219.062,247.589,215.614,245.468,212.031,246.002z"/>
			<path style="fill:#403863;" d="M213.4,283.22l-2.79,0.42c-3.03,0.45-5.73-1.94-5.64-5l0.71-25.48c0.11-3.61,2.78-6.63,6.35-7.16     c1-0.15,1.99-0.09,2.92,0.15c-2.66,1.09-4.52,3.68-4.6,6.68l-0.72,25.47C209.56,280.71,211.21,282.7,213.4,283.22z"/>
		</g>
		<g>
			<g>
				<path style="fill:#FFB49D;" d="M262.603,257.05l-16.856,1.987c-1.529,0.18-2.764,1.486-2.664,3.022      c0.107,1.638,1.56,2.832,3.169,2.642l17.028-2.007c1.035-0.122,2.066,0.06,3.054,0.393c0.817,0.275,1.744,0.288,2.686-0.068      c1.306-0.495,2.272-1.703,2.467-3.086c0.372-2.636-1.772-4.765-4.257-4.554c-0.637,0.054-1.224,0.257-1.733,0.571      C264.606,256.5,263.644,256.927,262.603,257.05z"/>
				<path style="fill:#3B3B5F;" d="M260.775,264.383l-16.638,1.961c-2.386,0.281-4.548-1.425-4.83-3.811l0,0      c-0.281-2.386,1.425-4.548,3.811-4.83l16.638-1.961c2.386-0.281,4.548,1.425,4.83,3.811l0,0      C264.867,261.939,263.161,264.101,260.775,264.383z"/>
				<path style="fill:#3B3B5F;" d="M241.915,266.104l-25.062-8.542c-2.274-0.775-3.49-3.247-2.714-5.521l0,0      c0.775-2.274,3.247-3.489,5.521-2.714l25.062,8.542c2.274,0.775,3.49,3.247,2.714,5.521l0,0      C246.661,265.663,244.189,266.879,241.915,266.104z"/>
			</g>
			<g>
				<path style="fill:#FFB49D;" d="M188.329,293.97l4.53-16.357c0.411-1.483-0.332-3.12-1.792-3.608      c-1.557-0.52-3.212,0.374-3.644,1.936l-4.576,16.524c-0.278,1.004-0.836,1.89-1.518,2.679c-0.563,0.652-0.926,1.506-0.952,2.513      c-0.036,1.396,0.718,2.747,1.925,3.45c2.3,1.34,5.082,0.16,5.825-2.22c0.191-0.61,0.225-1.23,0.126-1.82      C188.082,296.033,188.049,294.98,188.329,293.97z"/>
				<path style="fill:#45446C;" d="M182.231,289.507l4.471-16.146c0.641-2.315,3.038-3.673,5.354-3.032l0,0      c2.315,0.641,3.673,3.038,3.032,5.354l-4.471,16.146c-0.641,2.315-3.038,3.673-5.354,3.032l0,0      C182.947,294.219,181.589,291.823,182.231,289.507z"/>
				<path style="fill:#45446C;" d="M187.764,271.395l17.378-19.977c1.577-1.813,4.325-2.004,6.138-0.427l0,0      c1.813,1.577,2.004,4.325,0.427,6.137l-17.378,19.977c-1.577,1.813-4.325,2.004-6.138,0.427h0      C186.378,275.956,186.187,273.208,187.764,271.395z"/>
			</g>
			<g>
				<path style="fill:#45446C;" d="M212.031,246.002L212.031,246.002c-3.571,0.532-6.245,3.549-6.347,7.157l-0.719,25.477      c-0.086,3.059,2.613,5.454,5.641,5.002l13.656-2.036c3.018-0.45,4.902-3.512,3.943-6.41l-8.003-24.165      C219.062,247.589,215.614,245.468,212.031,246.002z"/>
				<path style="fill:#403863;" d="M213.4,283.22l-2.79,0.42c-3.03,0.45-5.73-1.94-5.64-5l0.71-25.48c0.11-3.61,2.78-6.63,6.35-7.16      c1-0.15,1.99-0.09,2.92,0.15c-2.66,1.09-4.52,3.68-4.6,6.68l-0.72,25.47C209.56,280.71,211.21,282.7,213.4,283.22z"/>
			</g>
		</g>
		<g>
			<g>
				<path style="fill:#3B312E;" d="M206.548,242.529c-0.335-0.214-0.742-0.284-1.114-0.427c-0.531-0.204-0.999-0.567-1.324-1.029      c-0.123-0.175-0.23-0.374-0.229-0.587c0.001-0.429,0.415-0.737,0.581-1.134c0.219-0.525-0.025-1.127-0.348-1.598      c-0.323-0.471-0.734-0.902-0.899-1.446c-0.384-1.27,0.702-2.622,0.368-3.906c-0.217-0.835-1.017-1.551-0.856-2.398      c0.131-0.691,0.845-1.103,1.237-1.691c0.503-0.754,0.439-1.726,0.486-2.627c0.047-0.901,0.327-1.93,1.165-2.298      c1.38-0.607,3.064,1.06,4.39,0.346c0.664-0.358,1.004-1.236,1.748-1.376c0.633-0.12,1.197,0.36,1.764,0.661      c0.821,0.435,1.829,0.514,2.71,0.211c0.268-0.092,0.55-0.219,0.823-0.143c0.58,0.162,0.592,1.042,1.109,1.348      c0.502,0.297,1.142-0.11,1.723-0.037c0.659,0.083,1.089,0.912,0.77,1.486c-0.071,0.127-0.172,0.246-0.186,0.391      c-0.034,0.352,0.422,0.525,0.636,0.809c0.288,0.382,0.099,0.931-0.175,1.322c-0.274,0.391-0.638,0.757-0.703,1.228      c-0.057,0.413,0.13,0.817,0.2,1.228c0.217,1.277-0.721,2.487-1.812,3.211c-1.091,0.724-2.371,1.145-3.429,1.915      c-1.517,1.104-2.435,2.812-3.303,4.461c-0.529,1.006-1.18,3.571-2.22,4.011c-0.411,0.174-1.902,0.132-2.151-0.098      C207.036,243.923,207.271,242.992,206.548,242.529z"/>
				<path style="fill:#FFAA82;" d="M208.39,240.232l1.119,7.507c0.208,1.395,1.505,2.364,2.9,2.156s2.362-1.515,2.154-2.91      l-1.119-7.507L208.39,240.232z"/>
				<path style="fill:#FF9682;" d="M208.39,240.232l0.496,3.323c1.097,1.12,2.713,1.719,4.395,1.468      c0.326-0.049,0.65-0.117,0.957-0.224l-0.793-5.321L208.39,240.232z"/>
				<path style="fill:#FFB49D;" d="M213.422,243.417L213.422,243.417c3.878-0.578,6.552-4.19,5.974-8.068l-1.122-7.523      l-12.099,1.804l1.411,9.466C208.006,241.901,210.618,243.835,213.422,243.417z"/>
				<path style="fill:#3B312E;" d="M217.168,228.648c-0.586,0.162-1.208,0.087-1.816,0.079c-0.608-0.008-1.263,0.073-1.718,0.476      c-0.294,0.261-0.472,0.629-0.752,0.905c-0.625,0.617-1.597,0.652-2.473,0.718c-0.875,0.067-1.875,0.29-2.278,1.07      c-0.508,0.983,0.235,2.296-0.326,3.25c-0.152,0.258-0.39,0.463-0.516,0.735c-0.238,0.513-0.046,1.18-0.385,1.633      c-0.197,0.027-0.393,0.053-0.59,0.08c-0.294-1.52-0.589-3.04-0.883-4.561c-0.201-1.036-0.4-2.12-0.104-3.133      c0.36-1.236,1.42-2.17,2.596-2.693c1.176-0.523,2.474-0.694,3.75-0.859c0.837-0.108,1.678-0.217,2.521-0.187      c1.132,0.04,2.239,0.327,3.335,0.612C218.871,227.123,218.202,228.361,217.168,228.648z"/>
			</g>
			<g>
				<path style="fill:#3B312E;" d="M206.548,242.529c-0.335-0.214-0.742-0.284-1.114-0.427c-0.531-0.204-0.999-0.567-1.324-1.029      c-0.123-0.175-0.23-0.374-0.229-0.587c0.001-0.429,0.415-0.737,0.581-1.134c0.219-0.525-0.025-1.127-0.348-1.598      c-0.323-0.471-0.734-0.902-0.899-1.446c-0.384-1.27,0.702-2.622,0.368-3.906c-0.217-0.835-1.017-1.551-0.856-2.398      c0.131-0.691,0.845-1.103,1.237-1.691c0.503-0.754,0.439-1.726,0.486-2.627c0.047-0.901,0.327-1.93,1.165-2.298      c1.38-0.607,3.064,1.06,4.39,0.346c0.664-0.358,1.004-1.236,1.748-1.376c0.633-0.12,1.197,0.36,1.764,0.661      c0.821,0.435,1.829,0.514,2.71,0.211c0.268-0.092,0.55-0.219,0.823-0.143c0.58,0.162,0.592,1.042,1.109,1.348      c0.502,0.297,1.142-0.11,1.723-0.037c0.659,0.083,1.089,0.912,0.77,1.486c-0.071,0.127-0.172,0.246-0.186,0.391      c-0.034,0.352,0.422,0.525,0.636,0.809c0.288,0.382,0.099,0.931-0.175,1.322c-0.274,0.391-0.638,0.757-0.703,1.228      c-0.057,0.413,0.13,0.817,0.2,1.228c0.217,1.277-0.721,2.487-1.812,3.211c-1.091,0.724-2.371,1.145-3.429,1.915      c-1.517,1.104-2.435,2.812-3.303,4.461c-0.529,1.006-1.18,3.571-2.22,4.011c-0.411,0.174-1.902,0.132-2.151-0.098      C207.036,243.923,207.271,242.992,206.548,242.529z"/>
				<path style="fill:#FFAA82;" d="M208.39,240.232l1.119,7.507c0.208,1.395,1.505,2.364,2.9,2.156s2.362-1.515,2.154-2.91      l-1.119-7.507L208.39,240.232z"/>
				<path style="fill:#FF9682;" d="M208.39,240.232l0.496,3.323c1.097,1.12,2.713,1.719,4.395,1.468      c0.326-0.049,0.65-0.117,0.957-0.224l-0.793-5.321L208.39,240.232z"/>
				<path style="fill:#FFB49D;" d="M213.422,243.417L213.422,243.417c3.878-0.578,6.552-4.19,5.974-8.068l-1.122-7.523      l-12.099,1.804l1.411,9.466C208.006,241.901,210.618,243.835,213.422,243.417z"/>
				<path style="fill:#3B312E;" d="M217.168,228.648c-0.586,0.162-1.208,0.087-1.816,0.079c-0.608-0.008-1.263,0.073-1.718,0.476      c-0.294,0.261-0.472,0.629-0.752,0.905c-0.625,0.617-1.597,0.652-2.473,0.718c-0.875,0.067-1.875,0.29-2.278,1.07      c-0.508,0.983,0.235,2.296-0.326,3.25c-0.152,0.258-0.39,0.463-0.516,0.735c-0.238,0.513-0.046,1.18-0.385,1.633      c-0.197,0.027-0.393,0.053-0.59,0.08c-0.294-1.52-0.589-3.04-0.883-4.561c-0.201-1.036-0.4-2.12-0.104-3.133      c0.36-1.236,1.42-2.17,2.596-2.693c1.176-0.523,2.474-0.694,3.75-0.859c0.837-0.108,1.678-0.217,2.521-0.187      c1.132,0.04,2.239,0.327,3.335,0.612C218.871,227.123,218.202,228.361,217.168,228.648z"/>
			</g>
		</g>
	</g>
</g>
<g id="DESIGNED_BY_FREEPIK">
	<g>
		<g id="XMLID_319_">
			<g id="XMLID_338_">
				<path id="XMLID_346_" style="fill:#231F20;" d="M252.819,465.465c-0.433,0.443-0.804,0.932-1.109,1.453l-0.465-0.241      c-0.067-0.297-0.35-0.502-0.659-0.466c-0.331,0.039-0.567,0.339-0.529,0.67c0.039,0.331,0.339,0.567,0.67,0.528      c0.065-0.007,0.127-0.025,0.184-0.052l0.451,0.234c-0.251,0.554-0.433,1.139-0.539,1.743l0.747,0.132      c0.229-1.306,0.849-2.507,1.792-3.473L252.819,465.465z"/>
				<path id="XMLID_345_" style="fill:#231F20;" d="M258.306,463.164c-0.171,0-0.341,0.006-0.509,0.017l-0.074-0.626      c0.188-0.149,0.296-0.389,0.266-0.645c-0.046-0.393-0.402-0.674-0.795-0.628c-0.394,0.046-0.675,0.402-0.628,0.796      c0.03,0.254,0.19,0.461,0.404,0.563l0.073,0.624c-0.714,0.116-1.402,0.332-2.06,0.646l0.327,0.685      c0.935-0.447,1.941-0.674,2.995-0.674c0.497,0,0.993,0.053,1.476,0.158l0.16-0.741      C259.407,463.222,258.857,463.164,258.306,463.164z"/>
				<path id="XMLID_344_" style="fill:#231F20;" d="M264.909,465.711c0.331-0.04,0.566-0.341,0.525-0.672      c-0.04-0.331-0.341-0.566-0.672-0.525c-0.31,0.038-0.535,0.304-0.53,0.608l-0.416,0.363c-0.418-0.43-0.89-0.813-1.407-1.14      l-0.404,0.642c1.135,0.715,2.021,1.727,2.564,2.925l0.69-0.313c-0.251-0.554-0.567-1.071-0.942-1.545l0.402-0.351      C264.78,465.715,264.843,465.719,264.909,465.711z"/>
				<path id="XMLID_343_" style="fill:#231F20;" d="M257.759,473.372c-0.386,0.023-0.775,0.035-1.157,0.035      c-0.88,0-1.733-0.061-2.479-0.18c-0.391-0.062-0.846-0.154-1.27-0.292c1.047,1.861,3.069,3.125,5.389,3.125      c2.855,0,5.263-1.916,5.949-4.503c-0.682,0.449-1.505,0.825-2.458,1.122C260.553,473.047,259.178,473.287,257.759,473.372z"/>
				<path id="XMLID_339_" style="fill:#231F20;" d="M258.306,464.68c-3.352,0-6.079,2.666-6.079,5.943      c0,0.425,0.046,0.849,0.137,1.261c0.674,0.483,2.706,0.891,5.348,0.731c2.88-0.174,5.297-0.958,6.672-2.159      c-0.005-0.194-0.02-0.39-0.045-0.581C263.958,466.914,261.365,464.68,258.306,464.68z M256.147,471.195      c-1.02,0-1.85-0.83-1.85-1.85c0-1.021,0.83-1.851,1.85-1.851c1.02,0,1.85,0.83,1.85,1.851      C257.997,470.365,257.167,471.195,256.147,471.195z M260.884,470.287c-0.75,0-1.36-0.61-1.36-1.36s0.61-1.36,1.36-1.36      s1.36,0.61,1.36,1.36S261.634,470.287,260.884,470.287z"/>
			</g>
			<path id="XMLID_336_" style="fill:#231F20;" d="M274.31,466.547c-0.295-0.116-0.806-0.31-1.383-0.238     c-0.551,0.069-0.844,0.341-0.844,1.007v0.866h2.229v1.717h-2.229v5.455h-1.932v-5.455h-1.339v-1.717h1.339v-0.889     c0-1.68,0.896-2.782,2.568-2.782c0.643,0,1.157,0.121,1.59,0.308V466.547z"/>
			<path id="XMLID_334_" style="fill:#231F20;" d="M279.012,469.878c-0.177-0.029-0.357-0.046-0.525-0.046     c-0.896,0-1.51,0.548-1.51,1.613v3.908h-1.933v-7.172h1.873v0.784c0.451-0.673,1.14-0.977,2.021-0.977     c0.414,0,0.848,0.128,1.095,0.337L279.012,469.878z"/>
			<path id="XMLID_331_" style="fill:#231F20;" d="M286.68,471.757c0,0.222-0.016,0.488-0.037,0.651h-5.085     c0.207,1.036,0.933,1.487,1.843,1.487c0.622,0,1.295-0.252,1.813-0.689l1.133,1.243c-0.815,0.748-1.851,1.089-3.057,1.089     c-2.198,0-3.724-1.496-3.724-3.753c0-2.258,1.48-3.797,3.627-3.797C285.258,467.99,286.672,469.522,286.68,471.757z      M281.566,471.091h3.175c-0.178-0.918-0.732-1.437-1.561-1.437C282.269,469.655,281.736,470.203,281.566,471.091z"/>
			<path id="XMLID_328_" style="fill:#231F20;" d="M294.333,471.757c0,0.222-0.016,0.488-0.037,0.651h-5.085     c0.207,1.036,0.933,1.487,1.843,1.487c0.622,0,1.296-0.252,1.814-0.689l1.133,1.243c-0.814,0.748-1.851,1.089-3.058,1.089     c-2.198,0-3.723-1.496-3.723-3.753c0-2.258,1.48-3.797,3.627-3.797C292.912,467.99,294.326,469.522,294.333,471.757z      M289.219,471.091h3.175c-0.178-0.918-0.733-1.437-1.562-1.437C289.922,469.655,289.389,470.203,289.219,471.091z"/>
			<path id="XMLID_325_" style="fill:#231F20;" d="M302.679,471.764c0,2.154-1.495,3.775-3.472,3.775     c-0.962,0-1.643-0.378-2.109-0.933v3.708h-1.925v-10.133h1.888v0.792c0.467-0.585,1.154-0.984,2.139-0.984     C301.184,467.99,302.679,469.611,302.679,471.764z M297.001,471.764c0,1.133,0.748,1.977,1.844,1.977     c1.14,0,1.85-0.881,1.85-1.977c0-1.095-0.71-1.976-1.85-1.976C297.749,469.789,297.001,470.632,297.001,471.764z"/>
			<path id="XMLID_322_" style="fill:#231F20;" d="M305.783,465.836c0,0.696-0.541,1.229-1.236,1.229     c-0.696,0-1.228-0.533-1.228-1.229c0-0.695,0.532-1.243,1.228-1.243C305.242,464.592,305.783,465.14,305.783,465.836z      M305.523,475.354h-1.932v-7.172h1.932V475.354z"/>
			<path id="XMLID_320_" style="fill:#231F20;" d="M308.747,470.736l2.702-2.554h2.368l-3.479,3.375l3.501,3.797h-2.376     l-2.717-2.901v2.901h-1.932v-10.658h1.932V470.736z"/>
		</g>
		<g>
			<path style="fill:#231F20;" d="M177.127,475.29v-1.055c-0.527,0.718-1.391,1.23-2.387,1.23c-1.846,0-3.149-1.406-3.149-3.706     c0-2.256,1.289-3.721,3.149-3.721c0.952,0,1.816,0.469,2.387,1.245v-3.765h1.099v9.771H177.127z M177.127,473.371v-3.208     c-0.395-0.615-1.245-1.143-2.124-1.143c-1.42,0-2.27,1.172-2.27,2.739c0,1.567,0.85,2.725,2.27,2.725     C175.882,474.484,176.732,473.986,177.127,473.371z"/>
			<path style="fill:#231F20;" d="M179.646,471.745c0-2.051,1.465-3.706,3.486-3.706c2.139,0,3.398,1.67,3.398,3.794v0.278h-5.727     c0.088,1.333,1.025,2.446,2.549,2.446c0.806,0,1.626-0.322,2.182-0.894l0.527,0.718c-0.703,0.703-1.655,1.084-2.812,1.084     C181.155,475.465,179.646,473.957,179.646,471.745z M183.118,468.947c-1.509,0-2.256,1.274-2.314,2.358h4.644     C185.433,470.25,184.729,468.947,183.118,468.947z"/>
			<path style="fill:#231F20;" d="M187.322,474.352l0.571-0.791c0.469,0.542,1.362,1.011,2.329,1.011c1.084,0,1.67-0.513,1.67-1.216     c0-1.714-4.38-0.659-4.38-3.281c0-1.099,0.952-2.036,2.636-2.036c1.202,0,2.051,0.454,2.623,1.025l-0.513,0.762     c-0.424-0.513-1.201-0.894-2.109-0.894c-0.966,0-1.567,0.483-1.567,1.113c0,1.553,4.379,0.527,4.379,3.281     c0,1.187-0.952,2.139-2.783,2.139C189.021,475.465,188.039,475.114,187.322,474.352z"/>
			<path style="fill:#231F20;" d="M194.192,466.471c0-0.41,0.337-0.747,0.732-0.747c0.41,0,0.747,0.337,0.747,0.747     c0,0.41-0.337,0.732-0.747,0.732C194.529,467.204,194.192,466.881,194.192,466.471z M194.382,475.29v-7.075h1.099v7.075H194.382z     "/>
			<path style="fill:#231F20;" d="M197.297,477.106l0.556-0.82c0.586,0.703,1.289,0.967,2.3,0.967c1.172,0,2.27-0.571,2.27-2.124     v-1.011c-0.513,0.718-1.377,1.26-2.373,1.26c-1.846,0-3.149-1.377-3.149-3.662c0-2.271,1.289-3.677,3.149-3.677     c0.952,0,1.802,0.469,2.373,1.245v-1.069h1.099v6.87c0,2.344-1.641,3.076-3.369,3.076     C198.952,478.161,198.131,477.925,197.297,477.106z M202.423,473.253v-3.091c-0.381-0.615-1.23-1.143-2.109-1.143     c-1.421,0-2.27,1.128-2.27,2.695c0,1.553,0.849,2.695,2.27,2.695C201.193,474.411,202.042,473.869,202.423,473.253z"/>
			<path style="fill:#231F20;" d="M210.128,475.29v-4.629c0-1.245-0.63-1.641-1.582-1.641c-0.864,0-1.685,0.527-2.094,1.099v5.171     h-1.099v-7.075h1.099v1.025c0.497-0.586,1.464-1.201,2.519-1.201c1.48,0,2.256,0.747,2.256,2.285v4.966H210.128z"/>
			<path style="fill:#231F20;" d="M212.647,471.745c0-2.051,1.465-3.706,3.486-3.706c2.139,0,3.398,1.67,3.398,3.794v0.278h-5.727     c0.088,1.333,1.025,2.446,2.548,2.446c0.806,0,1.626-0.322,2.183-0.894l0.527,0.718c-0.703,0.703-1.655,1.084-2.813,1.084     C214.156,475.465,212.647,473.957,212.647,471.745z M216.119,468.947c-1.509,0-2.256,1.274-2.314,2.358h4.643     C218.433,470.25,217.73,468.947,216.119,468.947z"/>
			<path style="fill:#231F20;" d="M226.065,475.29v-1.055c-0.527,0.718-1.392,1.23-2.388,1.23c-1.845,0-3.149-1.406-3.149-3.706     c0-2.256,1.288-3.721,3.149-3.721c0.952,0,1.817,0.469,2.388,1.245v-3.765h1.098v9.771H226.065z M226.065,473.371v-3.208     c-0.396-0.615-1.245-1.143-2.124-1.143c-1.421,0-2.27,1.172-2.27,2.739c0,1.567,0.85,2.725,2.27,2.725     C224.82,474.484,225.669,473.986,226.065,473.371z"/>
			<path style="fill:#231F20;" d="M232.407,475.29v-9.771h1.099v3.765c0.571-0.776,1.421-1.245,2.388-1.245     c1.845,0,3.149,1.465,3.149,3.721c0,2.3-1.304,3.706-3.149,3.706c-0.996,0-1.86-0.513-2.388-1.23v1.055H232.407z      M235.615,474.484c1.436,0,2.285-1.157,2.285-2.725c0-1.567-0.85-2.739-2.285-2.739c-0.864,0-1.729,0.527-2.109,1.143v3.208     C233.886,473.986,234.75,474.484,235.615,474.484z"/>
			<path style="fill:#231F20;" d="M240.243,477.062c0.161,0.073,0.425,0.117,0.6,0.117c0.483,0,0.806-0.161,1.055-0.747l0.469-1.069     l-2.959-7.148h1.187l2.358,5.801l2.344-5.801h1.2l-3.544,8.511c-0.425,1.024-1.143,1.421-2.08,1.436     c-0.234,0-0.601-0.044-0.806-0.104L240.243,477.062z"/>
		</g>
	</g>
</g>
</svg>