<?xml version="1.0" encoding="UTF-8"?>
<svg xmlns="http://www.w3.org/2000/svg" xmlns:xlink="http://www.w3.org/1999/xlink" version="1.1" id="Layer_1" x="0px" y="0px" viewBox="0 0 4000 4000" style="background: transparent;" xml:space="preserve">
<g>
	<g>
		
	</g>
	<g>
		<g>
			<circle style="fill:#37DBFF;" cx="2000" cy="1979.201" r="1193.591"/>
		</g>
		<g>
			<g>
				<g>
					<path style="fill:#FFFFFF;" d="M2646.673,2968.192H1407.737c0,0,72.705-178.057,147.155-301.613       c74.504-123.501,308.862-165.304,308.862-165.304h326.958c0,0,74.666,13.298,153.095,47.198       c60.551,26.052,123.284,64.312,155.711,118.106C2574.022,2790.135,2646.673,2968.192,2646.673,2968.192z"/>
				</g>
				<g>
					<polyline style="fill:#36A0FF;" points="1996.554,2762.601 1937.447,2968.174 2116.998,2968.174 2057.891,2762.601      "/>
				</g>
				<g>
					<polyline style="fill:#FFC8A9;" points="1989.109,2607.553 2025.913,2664.78 2053.83,2611.641      "/>
				</g>
				<g>
					<polygon style="fill:#380076;" points="1682.536,2734.724 1647.873,2973.247 1605.469,2963.1 1682.536,2734.724      "/>
				</g>
				<g>
					<path style="fill:#380076;" d="M2646.688,2989.975H1407.755c-7.261,0-14.046-3.616-18.096-9.644       c-4.05-6.025-4.832-13.674-2.087-20.398c2.993-7.332,74.167-181.028,148.669-304.595       c78.686-130.505,313.718-173.75,323.686-175.527c11.846-2.109,23.164,5.779,25.283,17.627       c2.117,11.851-5.774,23.174-17.622,25.295c-2.249,0.403-225.547,41.572-294.009,155.12       c-54.675,90.681-109.046,212.751-132.976,268.518h1173.235c-23.928-55.767-78.298-177.837-132.974-268.518       c-68.464-113.547-291.763-154.717-294.011-155.12c-11.848-2.122-19.739-13.445-17.622-25.295       c2.119-11.848,13.45-19.734,25.283-17.627c9.968,1.777,245,45.022,323.689,175.527       c74.502,123.567,145.674,297.263,148.667,304.597c2.744,6.721,1.963,14.37-2.087,20.396       C2660.733,2986.359,2653.948,2989.975,2646.688,2989.975z"/>
				</g>
				<g>
					<path style="fill:#36A0FF;" d="M2094.123,2701.076c0,87.254-133.801,87.254-133.801,0l66.9-22.671L2094.123,2701.076z"/>
				</g>
				<g>
					<polygon style="fill:#380076;" points="2371.908,2734.724 2448.975,2963.1 2406.57,2973.247 2371.908,2734.724      "/>
				</g>
				<g>
					<path style="fill:#380076;" d="M1861.031,2756.525c-5.271,0-10.452-1.912-14.504-5.525c-5.859-5.22-8.459-13.184-6.812-20.854       c14.461-67.314,40.41-135.462,77.131-202.549c3.684-6.731,10.632-11.028,18.298-11.318c7.646-0.291,14.919,3.467,19.102,9.9       l91.252,140.342c3.669,5.645,4.526,12.666,2.322,19.026c-2.207,6.362-7.227,11.345-13.601,13.506l-166.194,56.318       C1865.738,2756.146,1863.375,2756.525,1861.031,2756.525z M1938.091,2581.32c-19.563,39.939-35.056,80.078-46.301,119.961       l101.858-34.517L1938.091,2581.32z"/>
				</g>
				<g>
					<path style="fill:#380076;" d="M2193.411,2756.525c-2.344,0-4.707-0.379-6.995-1.155l-166.191-56.318       c-6.375-2.161-11.394-7.144-13.601-13.506c-2.205-6.36-1.348-13.381,2.322-19.026l91.252-140.342       c4.182-6.433,11.504-10.178,19.102-9.9c7.666,0.291,14.614,4.587,18.298,11.318c36.721,67.09,62.673,135.237,77.129,202.549       c1.648,7.671-0.952,15.635-6.812,20.854C2203.863,2754.613,2198.68,2756.525,2193.411,2756.525z M2060.796,2666.764       l101.855,34.517c-11.245-39.885-26.731-80.017-46.299-119.961L2060.796,2666.764z"/>
				</g>
				<g>
					<path style="fill:#380076;" d="M2027.225,2788.317c-44.08,0-88.704-29.966-88.704-87.241c0-12.041,9.761-21.802,21.802-21.802       c12.041,0,21.802,9.761,21.802,21.802c0,34.448,28.347,43.64,45.1,43.64c16.75,0,45.098-9.192,45.098-43.64       c0-12.041,9.761-21.802,21.802-21.802s21.802,9.761,21.802,21.802C2115.926,2758.351,2071.302,2788.317,2027.225,2788.317z"/>
				</g>
				<g>
					<path style="fill:#380076;" d="M2116.998,2989.975h-179.551c-6.848,0-13.296-3.218-17.414-8.689       c-4.119-5.469-5.43-12.556-3.538-19.136l59.106-205.574c3.328-11.572,15.4-18.257,26.975-14.927       c11.572,3.328,18.257,15.405,14.929,26.975l-51.106,177.747h121.645l-51.106-177.747c-3.328-11.57,3.357-23.647,14.929-26.975       c11.589-3.333,23.647,3.362,26.975,14.927l59.106,205.574c1.892,6.58,0.581,13.667-3.538,19.136       C2130.293,2986.757,2123.846,2989.975,2116.998,2989.975z"/>
				</g>
				<g style="opacity:0.3;">
					<path style="fill:#380076;" d="M2412.647,2904.966l-54.743-226.56c-48.174,174.739-174.126,246.176-331.99,275.234       l380.135,5.45l6.599-14.534"/>
				</g>
				<g style="opacity:0.3;">
					<path style="fill:#380076;" d="M1678.309,2752.385c0,0,14.684,211.355,209.062,206.706l-245.978-8.175l0.004-29.976"/>
				</g>
				<g>
					<path style="fill:#380076;" d="M2112.773,2594.745c1.2-0.218,2.887-0.544,4.96-0.817L2112.773,2594.745z"/>
				</g>
				<g style="opacity:0.3;">
					<path style="fill:#380076;" d="M2646.673,2968.192h-99.846c0,0-52.65-194.408-146.993-303.412       c-80.662-93.307-235.284-77.883-278.231-71.506l165.467-28.396l56.737-16.405c60.551,26.052,123.284,64.312,155.711,118.106       C2574.022,2790.135,2646.673,2968.192,2646.673,2968.192z"/>
				</g>
			</g>
			<g>
				<g>
					<g>
						<path style="fill:#B157FF;" d="M2763.933,1783.86c-15.355,42.314-37.652,82.855-67.703,119.898l-1404.773,1.926        c-21.385-32.128-38.311-65.067-51.03-98.513c-195.708-514.051,594.068-1141.21,1126.21-582.869        C2662.126,1151.329,2864.675,1505.449,2763.933,1783.86z"/>
					</g>
					<g style="opacity:0.3;">
						<path style="fill:#380076;" d="M2755.599,1783.86c-15.355,42.314-37.651,82.855-67.703,119.898l-1404.773,1.926        c-21.385-32.128-38.311-65.067-51.031-98.513l0.051-0.051c0,0,143.919,39.628,81.385-150.405        c334.204,38.462,684.902-16.267,896.421-297.718c-1.115,3.75-86.577,167.33,30.078,268.985        c118.276,103.074,337.853,98.006,342.92,101.351c5.067,3.396,121.57,181.519,172.296,55.287        C2755.345,1784.367,2755.447,1784.114,2755.599,1783.86z"/>
					</g>
					<g style="opacity:0.6;">
						<path style="fill:#FFFFFF;" d="M2789.524,1609.08c-27.67-214.306-197.28-400.842-419.44-345.961        c-143.665-150.708-306.131-215.066-462.921-218.512c-89.391,82.601-186.232,88.226-286.316,60.811        c-240.911,109.966-418.478,352.65-406.924,596.754c-63.952-488.156,656.399-998.61,1152.714-477.869        C2602.127,1166.127,2778.578,1379.217,2789.524,1609.08z"/>
					</g>
					<g>
						<path style="fill:#380076;" d="M1395.85,1730.503c-29.16-24.751-54.984-52.331-78.902-81.727        c31.977,17.235,65.563,32.513,99.885,43.506c11.802,3.518,18.516,15.937,14.998,27.739        C1427.648,1735.338,1407.548,1741.068,1395.85,1730.503L1395.85,1730.503z"/>
					</g>
					<g>
						<path style="fill:#380076;" d="M2102.531,1554.488c29.536-40.02,54.644-84.04,74.84-129.872        c-6.689,51.386-18.766,101.93-36.674,150.955C2140.696,1575.571,2102.531,1554.488,2102.531,1554.488L2102.531,1554.488z"/>
					</g>
					<g>
						<path style="fill:#380076;" d="M1291.478,1927.487c-7.046,0-13.96-3.411-18.161-9.714        c-83.342-125.071-106.189-269.307-66.072-417.109c36.284-133.669,122.195-260.012,241.909-355.757        c243.926-195.09,623.071-252.341,924.599,55.388c142.151-29.912,276.738,31.421,362.056,165.798        c89.797,141.436,121.013,374.314-22.644,551.401c-7.59,9.348-21.318,10.774-30.667,3.196        c-9.351-7.585-10.781-21.316-3.196-30.667c130.083-160.349,101.396-371.88,19.697-500.561        c-77.261-121.69-199.57-175.53-327.151-144.011c-7.588,1.877-15.608-0.459-21.008-6.123        c-283.84-297.808-643.718-244.907-874.453-60.371c-202.021,161.57-340.386,454.121-166.787,714.636        c6.677,10.02,3.967,23.555-6.052,30.232C1299.832,1926.301,1295.633,1927.487,1291.478,1927.487z"/>
					</g>
					<g>
						<path style="fill:#FFC8A9;" d="M2666.718,2172.166c0,570.979-1333.418,570.979-1333.418,0        c-240.448,63.261-292.065-327.041,0-263.834c0,0,3.687-2.819,9.351-8.565h0.054c21.266-21.412,70.692-82.993,63.638-188.375        c0,0,455.944,110.206,716.001-146.363c0,0,7.801,28.026,37.403,65.105c5.076,6.396,10.847,13.064,17.366,19.949v0.054        c60.326,63.749,183.115,142.406,426.128,157.042c0,0,26.717,58.274,63.478,101.153        C2958.783,1845.125,2907.166,2235.427,2666.718,2172.166z"/>
					</g>
					<g style="opacity:0.6;">
						<ellipse style="fill:#FFFFFF;" cx="1702.307" cy="2032.685" rx="120.799" ry="144.326"/>
					</g>
					<g style="opacity:0.6;">
						<ellipse style="fill:#FFFFFF;" cx="2333.988" cy="2032.685" rx="120.799" ry="144.326"/>
					</g>
					<g style="opacity:0.3;">
						<path style="fill:#380076;" d="M2666.718,2172.166c0,570.979-1333.418,570.979-1333.418,0        c-140.261,36.916-216.244-80.5-197.275-172.221c12.248,62.623,63.228,120.385,144.097,121.338        c28.568,0.337,52.969,20.872,57.785,49.442c41.17,244.212,351.65,342.955,662.129,342.955        c310.43,0,620.906-98.743,662.076-342.955c4.816-28.57,29.217-49.105,57.785-49.442        c80.869-0.954,131.849-58.716,144.097-121.338C2882.962,2091.666,2806.979,2209.082,2666.718,2172.166z"/>
					</g>
					<g>
						<path style="fill:#380076;" d="M2000.01,2622.216c-178.389,0-345.005-39.041-469.163-109.932        c-134.397-76.738-209.451-184.768-218.42-313.667c-68.464,9.766-129.841-14.233-167.644-66.741        c-40.642-56.45-44.597-133.159-9.622-186.543c21.25-32.427,74.089-82.361,191.758-60.505        c18.049-17.795,64.231-73.45,57.668-171.987c-0.462-6.919,2.402-13.643,7.705-18.113c5.303-4.475,12.412-6.145,19.163-4.529        c4.446,1.077,447.373,104.219,695.576-140.688c5.496-5.422,13.433-7.534,20.916-5.552c7.461,1.985,13.318,7.769,15.393,15.205        c0.11,0.366,15.417,50.632,78.767,103.201c59.285,49.197,173.76,110.476,382.441,123.037        c8.027,0.481,15.142,5.354,18.501,12.659c0.237,0.513,22.08,47.671,52.261,86.365        c116.123-20.835,168.435,28.682,189.548,60.908c34.976,53.384,31.021,130.093-9.619,186.543        c-37.805,52.507-99.187,76.487-167.646,66.741c-8.97,128.899-84.023,236.929-218.42,313.667        C2345.015,2583.176,2178.399,2622.216,2000.01,2622.216z M1333.316,2150.365c4.766,0,9.455,1.565,13.31,4.536        c5.354,4.128,8.491,10.505,8.491,17.266c0,156.682,107.319,250.847,197.351,302.253        c117.676,67.19,276.616,104.192,447.542,104.192s329.866-37.002,447.542-104.192        c90.032-51.406,197.351-145.571,197.351-302.253c0-6.76,3.137-13.137,8.491-17.266c5.354-4.126,12.329-5.535,18.855-3.818        c61.675,16.223,115.479-0.063,147.605-44.683c29.854-41.467,33.442-99.155,8.535-137.171        c-27.229-41.555-83.013-55.608-157.07-39.573c-7.839,1.697-15.964-1.04-21.179-7.131        c-28.472-33.274-50.879-74.492-60.952-94.434c-329.399-23.174-440.679-162.773-474.543-226.194        c-109.37,95.437-263.167,148.65-447.146,154.324c-106.746,3.284-195.764-9.912-238.74-17.927        c-2.612,124.434-78.652,184.636-82.122,187.314c-5.086,3.928-11.643,5.41-17.935,4.048        c-74.053-16.023-129.841-1.98-157.068,39.573c-24.91,38.015-21.318,95.703,8.535,137.171        c32.124,44.619,85.916,60.906,147.603,44.683C1329.6,2150.602,1331.463,2150.365,1333.316,2150.365z"/>
					</g>
					<g>
						<path style="fill:#380076;" d="M1227.33,2115.395c-2.432,0-4.9-0.527-7.241-1.643c-8.406-4.006-11.97-14.068-7.966-22.473        c13.831-29.019,37.498-41.58,55.374-47.017c-14.517-22.9-37.268-24.128-40.305-24.187        c-9.241-0.181-16.702-7.771-16.616-17.014c0.085-9.243,7.507-16.694,16.75-16.702c0.017,0,0.032,0,0.046,0        c21.003,0,64.736,13.743,80.246,65.798c1.511,5.073,0.552,10.562-2.59,14.822c-3.142,4.26-8.103,6.797-13.396,6.851        c-1.284,0.034-34.414,1.206-49.07,31.956C1239.671,2111.85,1233.629,2115.395,1227.33,2115.395z"/>
					</g>
					<g>
						<path style="fill:#380076;" d="M2772.691,2115.395c-6.299,0-12.341-3.545-15.232-9.609        c-14.653-30.75-47.786-31.921-49.189-31.958c-5.249-0.129-10.2-2.698-13.286-6.946s-4.08-9.692-2.581-14.724        c15.51-52.051,59.243-65.798,80.247-65.798c0.017,0,0.029,0,0.046,0c9.309,0.007,16.851,7.563,16.841,16.875        c-0.007,9.263-7.488,16.775-16.736,16.841c-3.142,0.066-25.803,1.355-40.276,24.187c17.878,5.435,41.543,17.996,55.374,47.017        c4.004,8.406,0.437,18.467-7.966,22.473C2777.591,2114.867,2775.12,2115.395,2772.691,2115.395z"/>
					</g>
					<g>
						<path style="fill:#380076;" d="M2441.058,1840.193c-33.122-8.184-61.865-16.256-93.998-18.743        c-22.422-2.114-45.396-1.43-68.611-0.221c-8.601,0.268-17.371,1.553-27.509,0.864c-1.876-0.118-3.302-1.734-3.185-3.61        c35.026-57.183,123.426-59.691,171.304-17.346c11.045,9.73,20.556,20.59,26.244,34.63        C2446.408,1838.368,2443.687,1841.158,2441.058,1840.193L2441.058,1840.193z"/>
					</g>
					<g>
						<path style="fill:#380076;" d="M1588.135,1835.767c24.57-54.841,97.943-78.136,151.906-54.899        c18.278,7.17,33.994,19.744,45.056,35.908c1.06,1.552,0.661,3.671-0.891,4.731c-0.645,0.454-1.377,0.597-2.12,0.613        c-18.263,0.583-34.147-1.935-51.29-1.811c-48.618-2.311-90.605,7.38-138.414,19.886        C1589.762,1841.161,1587.004,1838.349,1588.135,1835.767L1588.135,1835.767z"/>
					</g>
					<g>
						<ellipse style="fill:#380076;" cx="1686.925" cy="2021.676" rx="120.799" ry="144.326"/>
					</g>
					<g>
						<ellipse style="fill:#FFFFFF;" cx="1739.973" cy="1988.026" rx="32.877" ry="38.909"/>
					</g>
					<g>
						<ellipse style="fill:#380076;" cx="2318.605" cy="2021.676" rx="120.799" ry="144.326"/>
					</g>
					<g>
						<ellipse style="fill:#FFFFFF;" cx="2265.557" cy="1988.026" rx="32.877" ry="38.909"/>
					</g>
					<g style="opacity:0.3;">
						<path style="fill:#380076;" d="M1406.962,1736.425c256.907,84.06,495.57,94.22,690.125-74.282        c0,0,132.766,118.414,326.407,133.406c-126.446-43.206-233.747-114.056-309.464-230.52        C1925.944,1729.353,1675.173,1752.525,1406.962,1736.425z"/>
					</g>
				</g>
				<g>
					<path style="fill:#380076;" d="M2169.726,2370.306c-30.902,71.18-111.239,114.563-189.721,91.563c0-0.054,0-0.054,0-0.054       c-7.246-2.071-14.442-4.796-21.636-8.066c-60.335-27.633-103.609-92.163-85.242-194.082       c97.34,39.023,196.643,46.49,302.485-51.777l6.813,85.187C2184.66,2320.873,2179.865,2347.088,2169.726,2370.306z"/>
				</g>
				<g>
					<path style="fill:#F73C69;" d="M2165.638,2361.45c-30.902,71.18-111.239,114.563-189.721,91.563c0-0.055,0-0.055,0-0.055       S2038.541,2333.98,2165.638,2361.45z"/>
				</g>
				<g>
					<path style="fill:#380076;" d="M2023.021,2485.798c-15.955,0-32.09-2.234-48.005-6.899c-0.427-0.125-0.847-0.264-1.257-0.417       c-7.449-2.205-14.9-5.017-22.732-8.577c-77.422-35.459-113.054-115.222-95.361-213.384c0.945-5.249,4.202-9.795,8.87-12.378       c4.663-2.585,10.247-2.932,15.198-0.947c80.044,32.087,176.36,51.445,283.806-48.311c4.988-4.624,12.178-5.989,18.516-3.53       c6.338,2.468,10.706,8.342,11.25,15.122l6.812,85.188c2.405,29.905-2.344,58.748-14.116,85.715       C2156.897,2444.416,2091.68,2485.798,2023.021,2485.798z M1986.209,2445.19c66.929,18.948,138.65-16.106,167.239-81.951       c0.005-0.01,0.01-0.022,0.015-0.034c9.414-21.558,13.208-44.673,11.274-68.704l-4.048-50.603       c-102.483,79.629-197.339,67.07-273.042,40.237c-6.807,72.031,21.006,127.324,78.113,153.479       c6.65,3.025,12.92,5.366,19.124,7.139C1985.335,2444.882,1985.777,2445.029,1986.209,2445.19z"/>
				</g>
				<g>
					<path style="fill:#380076;" d="M2042.979,2199.299c-3.53,0-7.087-1.104-10.125-3.389l-35.42-26.653l-32.932,26.345       c-7.263,5.82-17.876,4.646-23.696-2.632c-5.818-7.271-4.639-17.881,2.632-23.696l34.031-27.224       c11.384-9.104,27.471-9.346,39.114-0.581l36.545,27.498c7.439,5.598,8.933,16.169,3.335,23.608       C2053.15,2196.977,2048.094,2199.299,2042.979,2199.299z"/>
				</g>
			</g>
			<g>
				<g>
					<path style="fill:#6D6D6D;" d="M3243.524,1322.344l-8.777,4.142l-456.56,216.318h-0.545       c-17.333-95.161-39.788-185.089-71.126-265.806c-7.084-18.313-18.802-34.609-33.955-47.362       c-297.906-250.763-768.149-314.366-1142.796-145.52c-82.841,37.334-160.996,86.004-231.577,146.556       c-14.28,12.208-25.452,27.632-32.427,44.964c-34.774,86.058-51.777,172.88-58.864,260.137L756.44,1322.344l1243.569-757.685       l43.003,26.161c0.053,0.054,0.109,0.109,0.162,0.164l4.905,2.943L3243.524,1322.344z"/>
				</g>
				<g>
					<polygon style="fill:#6D6D6D;" points="3243.542,1193.502 3243.542,1322.344 2000.027,564.659 756.458,1322.344        756.458,1193.502 2000.027,435.817      "/>
				</g>
				<g style="opacity:0.6;">
					<polygon style="fill:#FFFFFF;" points="3243.524,1193.502 3243.524,1322.344 3237.366,1318.584 3237.366,1246.205        2000.009,476.53 756.44,1242.445 756.44,1193.502 2000.009,435.817      "/>
				</g>
				<g>
					<path style="fill:#380076;" d="M2778.23,1564.604c-8.162,0-15.989-4.607-19.717-12.473       c-5.154-10.879-0.513-23.879,10.369-29.036l428.833-203.174L2000.008,590.199L802.303,1319.921l428.833,203.174       c10.881,5.156,15.523,18.157,10.369,29.036c-5.154,10.884-18.147,15.525-29.036,10.369l-465.344-220.474       c-7.241-3.433-12.017-10.559-12.436-18.562c-0.42-8,3.584-15.588,10.427-19.758l1243.55-757.651       c6.968-4.243,15.718-4.243,22.686,0l1243.552,757.651c6.843,4.17,10.847,11.758,10.427,19.758       c-0.417,8.003-5.195,15.129-12.437,18.562l-465.344,220.474C2784.537,1563.927,2781.358,1564.604,2778.23,1564.604z"/>
				</g>
				<g>
					<path style="fill:#380076;" d="M3243.56,1344.125c-12.041,0-21.802-9.761-21.802-21.802v-116.589l-1221.75-744.372       L778.26,1205.734v116.589c0,12.041-9.761,21.802-21.802,21.802c-12.041,0-21.802-9.761-21.802-21.802v-128.835       c0-7.605,3.965-14.661,10.459-18.618l1243.55-757.654c6.968-4.243,15.718-4.243,22.686,0l1243.552,757.654       c6.494,3.958,10.459,11.013,10.459,18.618v128.835C3265.362,1334.364,3255.601,1344.125,3243.56,1344.125z"/>
				</g>
				<g>
					<path style="fill:#6D6D6D;" d="M2795.683,1654.806c-124.157-46.49-246.948-84.151-368.215-112.001       c-174.406-40.113-345.76-60.007-513.627-56.955c-81.479,1.472-162.087,8.393-241.879,21.038       c-56.9,8.992-113.365,20.929-169.336,35.917c-101.539,27.142-201.604,64.203-299.979,112.001       c-0.165-39.732,1.035-79.409,4.25-119.032c7.087-87.258,24.089-174.079,58.864-260.137       c6.975-17.332,18.147-32.756,32.427-44.964c281.065-241.062,682.146-294.201,1020.439-190.375h0.053       c130.917,40.223,252.401,103.935,353.882,189.339c15.153,12.754,26.87,29.05,33.955,47.362       c31.338,80.717,53.794,170.645,71.126,265.806C2784.346,1579.43,2790.286,1616.818,2795.683,1654.806z"/>
				</g>
				<g>
					<path style="fill:#380076;" d="M2795.674,1676.596c-2.571,0-5.159-0.454-7.639-1.384       c-599.448-224.373-1114.907-224.636-1575.84-0.806c-6.738,3.271-14.692,2.857-21.055-1.108       c-6.36-3.965-10.239-10.918-10.269-18.413c-0.652-155.603,19.292-275.09,64.663-387.427       c8.23-20.374,21.528-38.818,38.462-53.342c189.063-162.141,441.824-249.387,711.423-245.962       c258.406,3.384,510.325,92.612,691.164,244.81c17.974,15.125,31.902,34.536,40.278,56.135       c38.799,100.015,67.524,221.599,90.398,382.629c1.082,7.617-1.931,15.242-7.93,20.061       C2805.401,1674.948,2800.567,1676.596,2795.674,1676.596z M1948.101,1463.744c8.535,0,17.044,0.059,25.603,0.178       c247.632,3.408,514.927,56.455,795.041,157.734c-21.462-139.807-47.903-247.522-82.532-336.789       c-5.737-14.792-15.317-28.12-27.705-38.545c-374.329-315.039-978.205-314.643-1346.128,0.889       c-11.655,9.998-20.791,22.646-26.416,36.575c-39.783,98.496-59.009,203.416-61.279,336.477       C1450.208,1516.352,1693.316,1463.744,1948.101,1463.744z"/>
				</g>
				<g>
					<path style="fill:#380076;" d="M2000.008,586.474c-12.041,0-21.802-9.761-21.802-21.802V435.834       c0-12.041,9.761-21.802,21.802-21.802s21.802,9.761,21.802,21.802v128.838C2021.81,576.713,2012.049,586.474,2000.008,586.474z       "/>
				</g>
				<g style="opacity:0.3;">
					<path style="fill:#380076;" d="M2795.683,1654.806c-124.157-46.49-246.948-84.151-368.215-112.001       c-174.406-40.113-345.76-60.007-513.627-56.955c276.052-34.99,486.922-122.357,404.786-445.553h0.053       c130.917,40.223,252.401,103.935,353.882,189.339c15.153,12.754,26.87,29.05,33.955,47.362       c31.338,80.717,53.794,170.645,71.126,265.806C2784.346,1579.43,2790.286,1616.818,2795.683,1654.806z"/>
				</g>
				<g style="opacity:0.3;">
					<path style="fill:#380076;" d="M3234.748,1326.486l-456.56,216.318h-0.545c-17.333-95.161-39.788-185.089-71.126-265.806       c-7.084-18.313-18.802-34.609-33.955-47.362c-297.906-250.763-768.149-314.366-1142.796-145.52l-3.923-1.69       c501.308-308.807,1052.485-48.343,517.331-491.443c-0.053-0.055-0.109-0.109-0.162-0.164l5.067,3.107L3234.748,1326.486z"/>
				</g>
				<g>
					<path style="fill:#380076;" d="M2487.049,1362.187c-5.105,0-10.232-1.785-14.373-5.417       c-109.622-96.221-92.302-299.534-90.354-319.084V682.05c0-12.041,9.761-21.802,21.802-21.802s21.802,9.761,21.802,21.802       v356.758c0,0.784-0.044,1.568-0.127,2.346c-0.21,1.965-20.059,198.848,75.642,282.847c9.048,7.942,9.944,21.716,2.002,30.767       C2499.134,1359.675,2493.106,1362.187,2487.049,1362.187z"/>
				</g>
				<g>
					<path style="fill:#380076;" d="M2580.303,1387.939l-27.096,33.316c-9.958,12.244-28.492,12.715-39.06,0.994l-58.867-65.295       c-8.49-9.417-8.851-23.617-0.851-33.453l9.556-11.75c7.947-9.771,21.801-12.351,32.732-6.095l76.407,43.729       C2586.9,1357.269,2590.317,1375.625,2580.303,1387.939z"/>
				</g>
			</g>
			<g>
				<g>
					<path style="fill:#6D6D6D;" d="M1737.418,2533.812l-65.729,48.616c-25.178,18.64-60.604,14.225-80.39-10.083l-36.733-45.073       l-48.126-58.971c-20.22-24.799-16.896-61.26,7.577-81.917l63.984-54.12c24.092-20.384,53.576-30.413,82.953-30.413       c28.832,0,57.498,9.701,80.88,28.614c5.123,4.142,9.974,8.775,14.552,13.789       C1807.344,2400.61,1798.517,2488.63,1737.418,2533.812z"/>
				</g>
				<g style="opacity:0.6;">
					<path style="fill:#FFFFFF;" d="M1773.118,2367.527c-24.635-23.599-56.628-35.699-88.84-35.699       c-29.375,0-58.861,10.029-82.95,30.412l-63.987,54.12c-21.801,18.368-26.814,49.324-13.407,73.36l-17.495-21.42       c-20.22-24.799-16.896-61.26,7.577-81.917l63.984-54.12c24.092-20.384,53.576-30.413,82.953-30.413       c35.155,0,70.089,14.389,95.432,42.403C1762.979,2351.558,1768.541,2359.351,1773.118,2367.527z"/>
				</g>
				<g>
					<path style="fill:#36A0FF;" d="M1600.402,2581.283l-2.126,1.091l-130.041,66.002c-12.755,6.485-28.286,3.651-37.936-6.922       l-8.119-8.884l-15.26-16.677c-11.284-12.372-11.119-31.339,0.434-43.492l99.085-104.099l62.786,75.54l29.595,35.535       L1600.402,2581.283z"/>
				</g>
				<g style="opacity:0.6;">
					<path style="fill:#FFFFFF;" d="M1600.402,2581.283l-3.925,2.017l-72.979-87.749l-99.083,104.099       c-6.869,7.249-9.703,16.895-8.503,26.106l-8.992-9.865c-11.284-12.372-11.119-31.339,0.434-43.492l99.085-104.099       L1600.402,2581.283z"/>
				</g>
				<g>
					<path style="fill:#380076;" d="M1636.797,2615.788c-23.386,0-46.511-10.178-62.402-29.661l-84.863-104.048l0,0       c-27.561-33.794-22.893-84.197,10.405-112.356l63.975-54.099c62.312-52.693,153.972-46.533,208.674,14.016       c28.394,31.428,42.261,73.625,38.044,115.771c-4.214,42.144-26.164,80.757-60.222,105.94l-65.764,48.625       C1670.247,2610.622,1653.455,2615.788,1636.797,2615.788z M1523.321,2454.521l84.863,104.048       c12.471,15.29,34.673,18.083,50.537,6.35l65.764-48.625c24.182-17.881,39.768-45.298,42.761-75.222       c2.993-29.925-6.853-59.885-27.014-82.202c-38.843-42.988-103.921-47.358-148.167-9.951l-63.975,54.099       C1512.828,2415.925,1510.689,2439.03,1523.321,2454.521L1523.321,2454.521z"/>
				</g>
				<g>
					<path style="fill:#380076;" d="M1453.902,2673.586c-14.746,0-29.289-6.045-39.688-17.419l-23.384-25.569       c-18.943-20.715-18.623-52.871,0.728-73.206l99.075-104.119c4.287-4.509,10.237-6.963,16.521-6.763       c6.218,0.208,12.053,3.064,16.033,7.847l93.975,112.969c4.241,5.1,5.93,11.853,4.59,18.35       c-1.34,6.497-5.566,12.029-11.482,15.032l-132.161,67.097C1470.435,2671.701,1462.137,2673.586,1453.902,2673.586z        M1505.333,2501.076l-82.188,86.372c-3.628,3.813-3.689,9.841-0.137,13.726l23.384,25.571c3.035,3.32,7.957,4.221,11.98,2.183       l107.793-54.727L1505.333,2501.076z"/>
				</g>
				<g>
					<path style="fill:#380076;" d="M1506.915,2683.09c-18.523,0-35.635-9.758-47.368-27.549       c-6.628-10.051-3.853-23.574,6.199-30.203c10.046-6.628,23.572-3.857,30.203,6.199c6.174,9.367,11.56,8.101,13.584,7.625       c9.756-2.29,21.54-16.27,24.17-37.674c1.47-11.95,12.31-20.456,24.297-18.979c11.951,1.467,20.447,12.346,18.979,24.297       c-4.639,37.766-27.744,67.827-57.49,74.805C1515.257,2682.602,1511.05,2683.09,1506.915,2683.09z"/>
				</g>
				<g>
					<path style="fill:#380076;" d="M1520.806,2989.975c-12.041,0-21.802-9.761-21.802-21.802v-309.902       c0-12.041,9.761-21.802,21.802-21.802c12.041,0,21.802,9.761,21.802,21.802v309.902       C1542.608,2980.214,1532.847,2989.975,1520.806,2989.975z"/>
				</g>
				<g style="opacity:0.3;">
					<path style="fill:#380076;" d="M1737.418,2533.812l-65.729,48.616c-25.178,18.64-60.604,14.225-80.39-10.083l-36.733-45.073       c0.218-0.055,0.49-0.109,0.764-0.164c190.264-38.206,173.315-187.378,173.315-187.378l13.189-9.266       c5.123,4.142,9.974,8.775,14.552,13.789C1807.344,2400.61,1798.517,2488.63,1737.418,2533.812z"/>
				</g>
				<g style="opacity:0.3;">
					<path style="fill:#380076;" d="M1598.821,2579.375c0,0.218-0.056,0.381-0.056,0.599c-0.109,0.6-0.271,1.417-0.49,2.398       l-130.041,66.002c-12.755,6.485-28.286,3.651-37.936-6.922l-8.119-8.884l122.738-98.594l24.308,9.865l29.54,11.936       C1598.765,2555.776,1600.019,2570.165,1598.821,2579.375z"/>
				</g>
			</g>
			<g>
				<g>
					<polygon style="fill:#FF752E;" points="3062.635,3333.3 989.166,3333.3 1087.269,2968.192 2964.531,2968.192      "/>
				</g>
				<g style="opacity:0.6;">
					<polygon style="fill:#FFFFFF;" points="2974.396,3004.98 1120.625,3004.98 1032.387,3333.3 989.166,3333.3 1087.269,2968.192        2964.531,2968.192      "/>
				</g>
				<g>
					<path style="fill:#380076;" d="M3062.645,3355.085c-9.619,0-18.423-6.416-21.04-16.147l-93.765-348.943H1103.985       l-93.765,348.943c-3.13,11.626-15.093,18.501-26.711,15.396c-11.629-3.125-18.521-15.083-15.398-26.714l98.103-365.083       c2.559-9.524,11.194-16.145,21.055-16.145h1877.288c9.861,0,18.494,6.621,21.055,16.145l98.103,365.083       c3.125,11.631-3.77,23.589-15.398,26.714C3066.421,3354.841,3064.517,3355.085,3062.645,3355.085z"/>
				</g>
				<g style="opacity:0.3;">
					<path style="fill:#380076;" d="M3062.635,3333.3H1294.376c631.187-40.931,1325.322-45.672,1471.332-365.108h198.823       L3062.635,3333.3z"/>
				</g>
			</g>
		</g>
	</g>
</g>
</svg>