<?xml version="1.0" encoding="utf-8"?>
<!-- Generator: Adobe Illustrator 27.5.0, SVG Export Plug-In . SVG Version: 6.00 Build 0)  -->
<svg version="1.1" xmlns="http://www.w3.org/2000/svg" xmlns:xlink="http://www.w3.org/1999/xlink" x="0px" y="0px"
	 viewBox="0 0 500 500" style="enable-background:new 0 0 500 500;" xml:space="preserve">
<g id="BACKGROUND">
	<rect style="fill:#FEEAE3;" width="500" height="500"/>
</g>
<g id="OBJECTS">
	<path style="fill:#FEDACF;" d="M445.481,103.997c18.083,19.307,23.205,48.177,20.667,74.508
		c-1.399,14.518-5.416,28.965-13.198,41.301c-6.874,10.896-16.42,19.794-25.738,28.69c-14.186,13.543-28.269,27.603-38.055,44.6
		s-14.253,37.332-10.017,56.482c13.701,61.945-39.199,89.725-72.919,77.663c-22.4-8.013-47.834-8.557-64.17-25.852
		c-12.506-13.24-20.907-30.811-36.437-40.326c-16.442-10.073-37.086-8.872-56.041-12.413c-38.028-7.104-70.088-34.292-90.718-67.019
		c-9.541-15.135-17.122-31.999-18.388-49.846s4.551-36.808,18.116-48.475c6.031-5.188,13.27-8.739,20.481-12.098
		c12.503-5.825,25.242-11.267,38.54-14.933c38.307-10.562,79.74-6.023,117.593-18.111c15.997-5.108,31.053-13.145,44.2-23.592
		c8.333-6.621,15.908-14.201,24.64-20.286C322.366,81.517,395.555,50.691,445.481,103.997z"/>
	<g>
		<rect x="73.483" y="67.167" style="fill:#FFFFFF;" width="216.677" height="291.646"/>
		<g>
			
				<line style="fill:none;stroke:#3C3C3B;stroke-width:0.541;stroke-linecap:round;stroke-linejoin:round;stroke-miterlimit:10;" x1="96.734" y1="167.192" x2="269.451" y2="167.192"/>
			
				<line style="fill:none;stroke:#3C3C3B;stroke-width:0.541;stroke-linecap:round;stroke-linejoin:round;stroke-miterlimit:10;" x1="96.734" y1="182.414" x2="269.451" y2="182.414"/>
			
				<line style="fill:none;stroke:#3C3C3B;stroke-width:0.541;stroke-linecap:round;stroke-linejoin:round;stroke-miterlimit:10;" x1="96.734" y1="197.206" x2="269.451" y2="197.206"/>
			
				<line style="fill:none;stroke:#3C3C3B;stroke-width:0.541;stroke-linecap:round;stroke-linejoin:round;stroke-miterlimit:10;" x1="96.734" y1="212.428" x2="269.451" y2="212.428"/>
			
				<line style="fill:none;stroke:#3C3C3B;stroke-width:0.541;stroke-linecap:round;stroke-linejoin:round;stroke-miterlimit:10;" x1="96.734" y1="236.237" x2="269.451" y2="236.237"/>
			
				<line style="fill:none;stroke:#3C3C3B;stroke-width:0.541;stroke-linecap:round;stroke-linejoin:round;stroke-miterlimit:10;" x1="96.734" y1="251.458" x2="269.451" y2="251.458"/>
			
				<line style="fill:none;stroke:#3C3C3B;stroke-width:0.541;stroke-linecap:round;stroke-linejoin:round;stroke-miterlimit:10;" x1="96.734" y1="266.25" x2="269.451" y2="266.25"/>
			
				<line style="fill:none;stroke:#3C3C3B;stroke-width:0.541;stroke-linecap:round;stroke-linejoin:round;stroke-miterlimit:10;" x1="96.734" y1="281.472" x2="269.451" y2="281.472"/>
			
				<line style="fill:none;stroke:#3C3C3B;stroke-width:0.541;stroke-linecap:round;stroke-linejoin:round;stroke-miterlimit:10;" x1="95.463" y1="296.26" x2="268.18" y2="296.26"/>
			
				<line style="fill:none;stroke:#3C3C3B;stroke-width:0.541;stroke-linecap:round;stroke-linejoin:round;stroke-miterlimit:10;" x1="95.463" y1="311.482" x2="268.18" y2="311.482"/>
			
				<line style="fill:none;stroke:#3C3C3B;stroke-width:0.541;stroke-linecap:round;stroke-linejoin:round;stroke-miterlimit:10;" x1="95.463" y1="326.274" x2="268.18" y2="326.274"/>
			
				<line style="fill:none;stroke:#3C3C3B;stroke-width:0.541;stroke-linecap:round;stroke-linejoin:round;stroke-miterlimit:10;" x1="145.886" y1="104.728" x2="269.451" y2="104.728"/>
			
				<line style="fill:none;stroke:#3C3C3B;stroke-width:0.541;stroke-linecap:round;stroke-linejoin:round;stroke-miterlimit:10;" x1="145.886" y1="119.949" x2="269.451" y2="119.949"/>
			
				<line style="fill:none;stroke:#3C3C3B;stroke-width:0.541;stroke-linecap:round;stroke-linejoin:round;stroke-miterlimit:10;" x1="145.886" y1="134.741" x2="269.451" y2="134.741"/>
			
				<line style="fill:none;stroke:#3C3C3B;stroke-width:0.541;stroke-linecap:round;stroke-linejoin:round;stroke-miterlimit:10;" x1="145.886" y1="149.963" x2="269.451" y2="149.963"/>
		</g>
		<rect x="73.483" y="62.071" style="fill:#99B1FF;" width="216.677" height="15.424"/>
		<path style="fill:#FFFFFF;" d="M85.508,69.783c0,1.577-1.279,2.856-2.856,2.856c-1.577,0-2.856-1.279-2.856-2.856
			c0-1.577,1.279-2.856,2.856-2.856C84.229,66.927,85.508,68.206,85.508,69.783z"/>
		<circle style="fill:#FFFFFF;" cx="92.531" cy="69.783" r="2.856"/>
		<circle style="fill:#FFFFFF;" cx="102.735" cy="69.783" r="2.856"/>
		<g>
			<path style="fill:#3C3C3B;" d="M102.429,154.293v-1.25h7.049v-45.564h-6.408c-1.88,0-3.402,0.305-4.566,0.913
				c-1.165,0.609-2.062,1.485-2.691,2.627c-0.631,1.144-1.058,2.526-1.282,4.15c-0.224,1.623-0.337,3.449-0.337,5.479h-1.282
				v-14.419h39.22v14.419h-1.25c0-2.03-0.117-3.856-0.352-5.479c-0.236-1.624-0.668-3.007-1.298-4.15
				c-0.631-1.143-1.527-2.018-2.691-2.627c-1.164-0.608-2.687-0.913-4.566-0.913h-6.408v45.564h7.049v1.25H102.429z"/>
		</g>
	</g>
	<g>
		<path style="fill:#FEE415;" d="M210.583,444.605c-1.405,0.176-3.033,0.163-3.979-0.89c-0.434-0.483-0.654-1.126-0.742-1.768
			c-0.296-2.176,0.808-4.273,1.913-6.17c3.158-5.423,6.621-10.669,10.369-15.703c0.58-0.779,1.189-1.573,2.024-2.07
			c0.646-0.385,1.39-0.568,2.124-0.735c2.023-0.46,4.064-0.838,6.118-1.132c1.511,5.14,2.666,10.385,3.455,15.685
			c0.055,0.366,0.1,0.77-0.1,1.082c-0.692,1.074-3.397,2.142-4.505,3.235c-1.517,1.496-3.067,2.889-4.852,4.066
			C218.887,442.525,214.782,444.12,210.583,444.605z"/>
		<path style="fill:#FF8490;" d="M291.782,374.419c8.463,0.092,16.776-3.886,20.393-9.76c2.537-4.12,2.823-8.83,2.678-13.385
			c-0.326-10.249-2.602-20.4-5.203-30.455c-1.914-7.399-4.006-14.771-6.276-22.111c-1.462-4.727-3.062-9.553-6.633-13.564
			s-12.386-10.971-28.145-10.541h-38.425c-16.053-0.43-24.574,6.531-28.145,10.541c-3.571,4.011-5.171,8.837-6.633,13.564
			c-2.27,7.34-4.362,14.712-6.276,22.111c-2.6,10.055-4.877,20.207-5.203,30.455c-0.145,4.555,0.141,9.266,2.678,13.385
			c3.617,5.875,11.93,9.853,20.393,9.76H291.782z"/>
		<path style="fill:#F9C29B;" d="M223.418,274.875c2.086-0.236,4.334-0.339,6.754-0.274h38.425c2.455-0.067,4.741,0.045,6.865,0.298
			c0,0-5.94,10.574-26.022,10.618C228.282,285.563,223.418,274.875,223.418,274.875z"/>
		<path style="fill:#32379E;" d="M250.177,435.944c-26.924-0.811-53.882-3.26-78.647-13.428
			c-6.924-2.843-13.795-6.413-18.651-12.108c-4.856-5.695-7.326-13.927-4.526-20.868c1.877-4.654,5.89-8.222,10.417-10.388
			c4.527-2.166,9.558-3.057,14.553-3.536c10.646-1.022,20.627-1.33,31.322-1.33h91.064c10.695,0,20.676,0.308,31.322,1.33
			c4.996,0.479,10.026,1.37,14.553,3.536c4.527,2.166,8.54,5.734,10.417,10.388c2.799,6.941,0.33,15.173-4.526,20.868
			c-4.856,5.695-11.728,9.265-18.651,12.108c-23.1,9.484-39.063,12.95-58.468,13.825
			C263.749,436.639,258.677,435.826,250.177,435.944"/>
		<path style="fill:#FEE415;" d="M290.758,444.261c1.411,0.12,3.037,0.043,3.941-1.047c0.414-0.5,0.609-1.15,0.671-1.796
			c0.21-2.185-0.977-4.237-2.156-6.089c-3.37-5.294-7.039-10.398-10.984-15.279c-0.611-0.756-1.25-1.525-2.104-1.988
			c-0.661-0.359-1.411-0.512-2.151-0.65c-2.039-0.38-4.094-0.676-6.158-0.888c-1.306,5.196-2.252,10.483-2.83,15.81
			c-0.04,0.368-0.069,0.773,0.143,1.077c0.734,1.046,3.479,2.006,4.629,3.054c1.575,1.435,3.179,2.765,5.009,3.87
			C282.378,442.513,286.543,443.944,290.758,444.261z"/>
		
			<path style="fill:#32379E;stroke:#8DA9FD;stroke-width:0.8684;stroke-linecap:round;stroke-linejoin:round;stroke-miterlimit:10;" d="
			M251.349,407.171c19.965-6.186,43.303-13.512,56.195-15.404"/>
		
			<path style="fill:#32379E;stroke:#8DA9FD;stroke-width:0.8684;stroke-linecap:round;stroke-linejoin:round;stroke-miterlimit:10;" d="
			M250.177,435.944c6.74,0.203,13.478,0.304,20.178,0.397c1.401-7.024,3.868-14.307,5.269-21.331
			c-19.256-4.855-63.111-23.378-82.76-26.262"/>
		<path id="XMLID_63_" style="fill:#F9C29B;" d="M222.773,209.162c-2.183,12.261,0.152,30.763,2.841,40.484
			c1.093,3.951,2.268,8.036,4.837,11.231c12.695,15.782,29.45,10.661,34.945,6.999c4.311-2.874,7.735-6.805,9.7-11.599
			c5.016-12.235,7.02-25.692,5.787-38.858c0,0-0.952-29.868-32.015-27.543C248.868,189.876,226.418,188.689,222.773,209.162z"/>
		<g>
			<g>
				<path style="fill:#3C3C3B;" d="M265.114,234.019c1.689-0.581,3.491-0.503,5.178-0.154c1.68,0.382,3.353,1.07,4.638,2.323
					c0.243,0.237,0.248,0.627,0.011,0.87c-0.181,0.186-0.451,0.232-0.676,0.139l-0.031-0.013c-2.827-1.183-5.848-1.919-8.935-2.067
					l-0.028-0.001c-0.311-0.015-0.551-0.279-0.536-0.59C264.745,234.288,264.903,234.092,265.114,234.019z"/>
			</g>
			<g>
				<path style="fill:#3C3C3B;" d="M250.377,240.945c0.315-0.221,0.701-0.489,1.228-0.477c0.512,0.01,0.962,0.297,1.26,0.681
					c0.297,0.399,0.388,0.947,0.269,1.402c-0.116,0.46-0.399,0.861-0.789,1.096c-0.112,0.068-0.258,0.031-0.326-0.081
					c-0.054-0.09-0.042-0.201,0.023-0.276l0.009-0.01c0.434-0.507,0.561-1.241,0.206-1.687c-0.159-0.243-0.431-0.41-0.702-0.456
					c-0.266-0.05-0.613,0.058-0.98,0.191c-0.113,0.041-0.237-0.018-0.278-0.131C250.264,241.103,250.299,241,250.377,240.945z"/>
			</g>
			<path style="fill:#E29C8C;" d="M272.299,245.726c0.023,1.362-1.624,2.494-3.679,2.529c-2.054,0.034-3.738-1.042-3.761-2.404
				c-0.023-1.362,1.624-2.494,3.679-2.529C270.592,243.288,272.276,244.364,272.299,245.726z"/>
			<path style="fill:#E29C8C;" d="M239.492,246.308c0.023,1.362-1.624,2.494-3.678,2.529c-2.054,0.034-3.738-1.042-3.761-2.404
				c-0.023-1.362,1.624-2.494,3.679-2.529C237.785,243.87,239.469,244.946,239.492,246.308z"/>
			<g>
				<path style="fill:#3C3C3B;" d="M238.029,235.117c-3.087,0.148-6.108,0.884-8.936,2.067l-0.029,0.012
					c-0.313,0.131-0.674-0.017-0.805-0.33c-0.1-0.239-0.037-0.507,0.138-0.678c1.285-1.254,2.958-1.942,4.638-2.323
					c1.687-0.349,3.489-0.427,5.178,0.154c0.294,0.101,0.451,0.422,0.35,0.717c-0.077,0.224-0.282,0.368-0.505,0.38L238.029,235.117
					z"/>
			</g>
			<g>
				<path style="fill:#3C3C3B;" d="M233.939,242.636c-0.321-0.894-0.188-1.799,0.118-2.644c0.159-0.42,0.407-0.851,0.834-1.169
					c0.405-0.301,0.894-0.45,1.382-0.477c0.49-0.015,0.991,0.106,1.419,0.384c0.434,0.276,0.746,0.713,0.901,1.161
					c0.311,0.912,0.205,1.768,0.21,2.564c0.001,0.15-0.12,0.272-0.27,0.273c-0.135,0.001-0.247-0.098-0.269-0.227
					c-0.142-0.835-0.135-1.672-0.418-2.318c-0.258-0.648-0.856-1.005-1.543-0.974c-0.331,0.009-0.668,0.1-0.931,0.287
					c-0.246,0.164-0.445,0.468-0.607,0.799c-0.305,0.665-0.483,1.483-0.355,2.186l0.005,0.028c0.024,0.134-0.065,0.263-0.199,0.287
					C234.095,242.818,233.979,242.748,233.939,242.636z"/>
			</g>
			<g>
				<path style="fill:#3C3C3B;" d="M263.666,242.633c-0.307-0.881-0.19-1.77,0.096-2.609c0.149-0.418,0.375-0.843,0.788-1.178
					c0.394-0.31,0.88-0.475,1.369-0.501c0.489-0.015,0.993,0.113,1.409,0.406c0.423,0.292,0.71,0.731,0.853,1.175
					c0.281,0.9,0.184,1.74,0.183,2.529c0,0.15-0.122,0.271-0.272,0.271c-0.134,0-0.246-0.098-0.267-0.227
					c-0.138-0.824-0.135-1.649-0.398-2.299c-0.241-0.653-0.809-1.022-1.476-0.992c-0.322,0.007-0.645,0.107-0.897,0.294
					c-0.232,0.169-0.423,0.479-0.577,0.809c-0.291,0.665-0.456,1.472-0.338,2.17l0.005,0.028c0.023,0.134-0.068,0.262-0.203,0.284
					C263.819,242.816,263.704,242.745,263.666,242.633z"/>
			</g>
			<path style="fill:#FFFFFF;" d="M251.969,245.607c0.693-0.064,1.374-0.283,2.07-0.252s1.453,0.408,1.612,1.086
				c0.181,0.778-0.487,1.487-1.153,1.928c-1.132,0.749-2.503,1.235-3.844,1.027c-1.341-0.208-2.601-1.238-2.785-2.583
				c-0.072-0.523,0.034-1.098,0.401-1.478c0.507-0.525,0.973-0.31,1.51-0.073C250.467,245.566,251.217,245.677,251.969,245.607z"/>
		</g>
		<rect x="238.533" y="266.439" style="fill:#F9C29B;" width="23.642" height="15.409"/>
		<path style="fill:#222221;" d="M261.071,269.995c0,0-12.471,4.473-20.975-1.052c0,0,2.94,5.514,10.784,5.307
			C258.725,274.042,261.071,269.995,261.071,269.995z"/>
		<path style="fill:none;stroke:#3C3C3B;stroke-width:0.6717;stroke-miterlimit:10;" d="M285.725,295.566c0,7.938,0,15.876,0,23.814
			"/>
		<path style="fill:none;stroke:#3C3C3B;stroke-width:0.6717;stroke-miterlimit:10;" d="M212.52,295.566c0,7.938,0,15.876,0,23.814"
			/>
		<polygon style="fill:#99B1FF;" points="299.132,392.684 202.629,392.684 198.28,319.134 302.832,319.134 		"/>
		<path style="opacity:0.33;fill:#99B1FF;" d="M299.132,392.684h-96.503l-4.349-73.549c4.413,16.245,9.036,32.952,20.086,45.651
			c8.909,10.239,21.281,16.925,34.085,21.427c3.53,1.241,7.116,2.335,10.773,3.125c4.66,1.007,9.41,1.518,14.15,2.027
			C285.276,392.213,291.23,391.835,299.132,392.684z"/>
		<path style="fill:#3C3C3B;" d="M281.331,232.831c-5.17-6.221-7.631-14.618-6.639-22.646c-4.134,6.489-10.75,11.161-17.955,13.857
			c-7.206,2.696-14.993,3.532-22.686,3.48c-1.707-0.012-3.959-0.573-3.999-2.279c-0.012-0.513,0.208-1,0.423-1.467
			c1.022-2.213,2.044-4.426,3.066-6.64c-2.887,1.791-6.709,1.963-9.745,0.438c-0.188,5.529-0.557,11.701-0.745,17.231
			c-5.689-5.223-3.587-22.492-2.941-25.768c5.772-29.247,65.138-31.428,63.177,12.707
			C283.065,226.745,283.486,229.415,281.331,232.831z"/>
		<g>
			<g id="XMLID_56_">
				<path id="XMLID_62_" style="fill:#F9C29B;" d="M279.942,239.639c0.802,1.01,2.276,1.429,3.491,0.992
					c0.949-0.341,1.671-1.117,2.268-1.927c1.576-2.135,2.563-4.898,1.866-7.457c-0.173-0.635-0.463-1.266-0.972-1.685
					c-0.847-0.697-2.129-0.64-3.11-0.147c-0.98,0.493-2.662,2.394-3.586,3.435L279.942,239.639z"/>
				<g id="XMLID_57_">
					<g id="XMLID_60_">
						<path style="fill:#DA806C;" d="M285.304,231.893c-2.11,1.029-3.778,2.8-4.697,4.952c-0.035,0.082-0.13,0.121-0.212,0.086
							c-0.076-0.032-0.115-0.116-0.092-0.193c0.672-2.352,2.581-4.333,4.889-5.118c0.078-0.026,0.162,0.015,0.188,0.093
							C285.404,231.784,285.37,231.861,285.304,231.893z"/>
					</g>
					<g id="XMLID_58_">
						<path style="fill:#DA806C;" d="M282.152,234.099c1.15,1.185,1.644,3.018,1.216,4.622c-0.023,0.087-0.112,0.138-0.199,0.115
							c-0.077-0.021-0.125-0.094-0.12-0.17c0.114-1.548-0.269-3.078-1.128-4.381c-0.045-0.068-0.027-0.161,0.041-0.206
							C282.023,234.039,282.103,234.049,282.152,234.099z"/>
					</g>
				</g>
			</g>
		</g>
		<g>
			<g id="XMLID_33_">
				<path id="XMLID_55_" style="fill:#F9C29B;" d="M224.016,239.66c-0.802,1.01-2.276,1.429-3.491,0.992
					c-0.949-0.341-1.671-1.117-2.268-1.927c-1.576-2.135-2.563-4.898-1.866-7.457c0.173-0.635,0.462-1.266,0.972-1.685
					c0.847-0.696,2.129-0.64,3.11-0.147c0.98,0.493,2.662,2.394,3.586,3.435L224.016,239.66z"/>
				<g id="XMLID_48_">
					<g id="XMLID_53_">
						<path style="fill:#DA806C;" d="M218.766,231.64c2.308,0.785,4.218,2.766,4.889,5.118c0.024,0.086-0.025,0.176-0.111,0.2
							c-0.079,0.022-0.162-0.019-0.194-0.093c-0.919-2.152-2.587-3.923-4.697-4.952c-0.074-0.036-0.105-0.124-0.069-0.198
							C218.618,231.648,218.696,231.617,218.766,231.64z"/>
					</g>
					<g id="XMLID_51_">
						<path style="fill:#DA806C;" d="M222.036,234.306c-0.858,1.303-1.242,2.833-1.127,4.381c0.007,0.089-0.06,0.167-0.149,0.175
							c-0.079,0.006-0.149-0.046-0.17-0.12c-0.428-1.603,0.066-3.436,1.216-4.622c0.057-0.059,0.151-0.061,0.21-0.003
							C222.068,234.167,222.074,234.247,222.036,234.306z"/>
					</g>
				</g>
			</g>
		</g>
		<circle style="fill:#FFFFFF;" cx="249.769" cy="354.532" r="5.912"/>
		<path style="opacity:0.26;fill:#FFFFFF;" d="M291.089,369.135c-0.278,1.377-0.672,2.862-1.797,3.704
			c-1.722,1.288-4.368,0.317-5.582-1.458c-1.214-1.775-1.37-4.046-1.439-6.195c-0.166-5.161-2.313-32.803,7.098-29.399
			c5.127,1.854,3.535,9.028,3.474,13.255C292.746,355.77,292.424,362.524,291.089,369.135z"/>
	</g>
	<g>
		<ellipse style="fill:#FEEAE3;" cx="88.437" cy="377.027" rx="68.583" ry="3.401"/>
		<g>
			<rect x="31.787" y="354.557" style="fill:#99B1FF;" width="115.916" height="22.47"/>
			<path style="opacity:0.6;fill:#99B1FF;" d="M130.764,365.04c0.296,1.703-0.729,3.43-2.161,4.399
				c-1.432,0.968-3.19,1.313-4.906,1.522c-2.958,0.361-5.945,0.385-8.925,0.408c-14.478,0.113-28.957,0.226-43.436,0.118
				c-6.405-0.048-12.878-0.147-19.089-1.713c-1.592-0.401-3.458-1.25-3.57-2.887c-0.057-0.832,0.397-1.624,0.972-2.228
				c1.815-1.909,4.661-2.319,7.281-2.591c19.427-2.022,39.012-2.524,58.517-1.498C118.758,360.745,129.892,360.022,130.764,365.04z"
				/>
			
				<line style="fill:none;stroke:#3C3C3B;stroke-width:0.7589;stroke-miterlimit:10;" x1="142.891" y1="356.142" x2="142.891" y2="375.442"/>
			
				<line style="fill:none;stroke:#3C3C3B;stroke-width:1.1298;stroke-miterlimit:10;" x1="138.016" y1="356.058" x2="138.016" y2="375.566"/>
			
				<line style="fill:none;stroke:#3C3C3B;stroke-width:0.7589;stroke-miterlimit:10;" x1="41.104" y1="356.122" x2="41.104" y2="375.422"/>
			
				<line style="fill:none;stroke:#3C3C3B;stroke-width:1.1298;stroke-miterlimit:10;" x1="36.229" y1="356.038" x2="36.229" y2="375.546"/>
		</g>
		<g>
			<rect x="20.671" y="339.518" style="fill:#FEE415;" width="115.916" height="15.348"/>
			
				<line style="fill:none;stroke:#3C3C3B;stroke-width:0.6272;stroke-miterlimit:10;" x1="131.775" y1="340.6" x2="131.775" y2="353.783"/>
			
				<line style="fill:none;stroke:#3C3C3B;stroke-width:0.9337;stroke-miterlimit:10;" x1="126.901" y1="340.543" x2="126.901" y2="353.868"/>
			
				<line style="fill:none;stroke:#3C3C3B;stroke-width:0.6272;stroke-miterlimit:10;" x1="29.989" y1="340.587" x2="29.989" y2="353.77"/>
			
				<line style="fill:none;stroke:#3C3C3B;stroke-width:0.9337;stroke-miterlimit:10;" x1="25.114" y1="340.529" x2="25.114" y2="353.854"/>
			<path style="fill:#E6CC0B;" d="M99.862,352.197c-17.288-0.178-34.573-0.592-51.849-1.242c-2.24-0.084-4.838-0.367-6.042-2.259
				c-0.379-0.595-0.572-1.325-0.447-2.02c0.273-1.518,1.871-2.386,3.338-2.861c3.412-1.104,7.046-1.27,10.63-1.385
				c11.198-0.36,22.409-0.313,33.603,0.14c5.67,0.229,11.336,0.563,16.993,1.001c2.275,0.176,10.053-0.041,8.458,4.182
				C112.715,352.601,103.934,352.239,99.862,352.197z"/>
		</g>
		<g>
			<rect x="41.104" y="324.14" style="fill:#FF8490;" width="115.916" height="15.348"/>
			
				<line style="fill:none;stroke:#3C3C3B;stroke-width:0.6272;stroke-miterlimit:10;" x1="152.208" y1="325.223" x2="152.208" y2="338.405"/>
			
				<line style="fill:none;stroke:#3C3C3B;stroke-width:0.9337;stroke-miterlimit:10;" x1="147.333" y1="325.165" x2="147.333" y2="338.49"/>
			
				<line style="fill:none;stroke:#3C3C3B;stroke-width:0.6272;stroke-miterlimit:10;" x1="50.421" y1="325.209" x2="50.421" y2="338.392"/>
			
				<line style="fill:none;stroke:#3C3C3B;stroke-width:0.9337;stroke-miterlimit:10;" x1="45.546" y1="325.152" x2="45.546" y2="338.476"/>
			<path style="opacity:0.47;fill:#FF8490;" d="M120.294,336.819c-17.288-0.178-34.573-0.592-51.849-1.242
				c-2.24-0.084-4.839-0.367-6.042-2.259c-0.379-0.595-0.572-1.325-0.447-2.02c0.273-1.518,1.871-2.386,3.338-2.861
				c3.412-1.104,7.046-1.27,10.63-1.385c11.198-0.36,22.409-0.314,33.603,0.14c5.67,0.229,11.336,0.563,16.993,1.001
				c2.275,0.176,10.053-0.041,8.458,4.181C133.148,337.224,124.367,336.861,120.294,336.819z"/>
		</g>
	</g>
	<g>
		<path style="fill:#FFFFFF;" d="M391.456,144.735c5.852,5.275,6.519,15.313,1.417,21.317c-0.873,1.028-1.899,1.965-2.465,3.189
			c-0.629,1.361-0.618,2.915-0.824,4.399c-0.677,4.885-3.979,9.326-8.463,11.381c-4.484,2.054-10.004,1.655-14.145-1.023
			c-2.968,4.313-7.879,7.23-13.086,7.775c-5.207,0.544-10.615-1.295-14.411-4.9c-5.487,3.274-12.46,3.934-18.463,1.747
			c-3.926-1.43-7.799-4.82-7.39-8.979c-4.535-0.573-8.703-3.52-10.755-7.605c-2.052-4.085-1.927-9.188,0.322-13.168
			c-5.53-5.917-4.437-16.663,2.171-21.345c-1.067-4.514,0.557-9.56,4.057-12.604c3.5-3.045,8.721-3.954,13.044-2.273
			c5.291-6.717,16.277-7.924,22.9-2.516c5.542-6.331,16.954-5.95,22.062,0.737C396.31,119.276,391.444,144.725,391.456,144.735z"/>
		<g>
			
				<line style="fill:none;stroke:#3C3C3B;stroke-width:0.5;stroke-linecap:round;stroke-linejoin:round;stroke-miterlimit:10;" x1="313.377" y1="137.11" x2="382.693" y2="137.11"/>
			
				<line style="fill:none;stroke:#3C3C3B;stroke-width:0.5;stroke-linecap:round;stroke-linejoin:round;stroke-miterlimit:10;" x1="313.377" y1="143.249" x2="382.693" y2="143.249"/>
			
				<line style="fill:none;stroke:#3C3C3B;stroke-width:0.5;stroke-linecap:round;stroke-linejoin:round;stroke-miterlimit:10;" x1="313.377" y1="149.213" x2="382.693" y2="149.213"/>
			
				<line style="fill:none;stroke:#3C3C3B;stroke-width:0.5;stroke-linecap:round;stroke-linejoin:round;stroke-miterlimit:10;" x1="313.377" y1="155.352" x2="382.693" y2="155.352"/>
			
				<line style="fill:none;stroke:#3C3C3B;stroke-width:0.5;stroke-linecap:round;stroke-linejoin:round;stroke-miterlimit:10;" x1="313.377" y1="161.49" x2="382.693" y2="161.49"/>
			
				<line style="fill:none;stroke:#3C3C3B;stroke-width:0.5;stroke-linecap:round;stroke-linejoin:round;stroke-miterlimit:10;" x1="313.377" y1="167.628" x2="382.693" y2="167.628"/>
		</g>
		<path style="fill:#FFFFFF;" d="M327.612,195.978c1.994,1.994,1.994,5.228,0,7.222c-1.994,1.994-5.228,1.994-7.222,0
			c-1.994-1.994-1.994-5.228,0-7.222C322.384,193.984,325.618,193.984,327.612,195.978z"/>
		<circle style="fill:#FFFFFF;" cx="313.377" cy="213.268" r="3.426"/>
		<path style="fill:#FFFFFF;" d="M300.636,217.639c0,1.541-1.249,2.79-2.79,2.79c-1.541,0-2.79-1.249-2.79-2.79
			c0-1.541,1.249-2.79,2.79-2.79C299.387,214.85,300.636,216.099,300.636,217.639z"/>
	</g>
	<g>
		
			<ellipse transform="matrix(0.1602 -0.9871 0.9871 0.1602 256.0781 480.595)" style="fill:#FF8490;" cx="410.475" cy="89.806" rx="50.443" ry="50.443"/>
		
			<ellipse transform="matrix(0.9239 -0.3827 0.3827 0.9239 -3.1216 163.9179)" style="fill:#FFFFFF;" cx="410.475" cy="89.806" rx="41.559" ry="41.559"/>
		<g>
			<g>
				<path id="XMLID_240_" style="fill:#FF8490;" d="M375.859,90.276c0-1.158,0.939-2.098,2.098-2.098
					c1.158,0,2.097,0.939,2.097,2.098c0,1.159-0.939,2.098-2.097,2.098C376.798,92.373,375.859,91.434,375.859,90.276z"/>
				<path id="XMLID_239_" style="fill:#FF8490;" d="M408.123,122.272c0-1.158,0.939-2.098,2.098-2.098
					c1.158,0,2.098,0.939,2.098,2.098c0,1.158-0.939,2.098-2.098,2.098C409.062,124.37,408.123,123.43,408.123,122.272z"/>
				<path id="XMLID_238_" style="fill:#FF8490;" d="M440.558,89.469c0-1.159,0.939-2.098,2.098-2.098
					c1.158,0,2.098,0.939,2.098,2.098c0,1.158-0.939,2.098-2.098,2.098C441.497,91.567,440.558,90.628,440.558,89.469z"/>
				<path id="XMLID_237_" style="fill:#FF8490;" d="M408.123,57.999c0-1.159,0.939-2.097,2.098-2.097
					c1.159,0,2.098,0.939,2.098,2.097s-0.939,2.097-2.098,2.097S408.123,59.158,408.123,57.999z"/>
			</g>
			<path id="XMLID_236_" style="fill:#FF8490;" d="M379.734,106.342c0-1.159,0.939-2.097,2.098-2.097
				c1.158,0,2.097,0.939,2.097,2.097s-0.939,2.098-2.097,2.098C380.674,108.439,379.734,107.5,379.734,106.342z"/>
			<path id="XMLID_235_" style="fill:#FF8490;" d="M391.87,118.201c0-1.158,0.939-2.098,2.097-2.098
				c1.159,0,2.098,0.939,2.098,2.098c0,1.159-0.939,2.098-2.098,2.098C392.809,120.298,391.87,119.359,391.87,118.201z"/>
			<path id="XMLID_234_" style="fill:#FF8490;" d="M424.11,118.201c0-1.158,0.939-2.098,2.098-2.098
				c1.158,0,2.097,0.939,2.097,2.098c0,1.159-0.939,2.098-2.097,2.098C425.049,120.298,424.11,119.359,424.11,118.201z"/>
			<path id="XMLID_233_" style="fill:#FF8490;" d="M436.008,106.342c0-1.159,0.939-2.097,2.098-2.097s2.097,0.939,2.097,2.097
				s-0.939,2.098-2.097,2.098S436.008,107.5,436.008,106.342z"/>
			<path id="XMLID_232_" style="fill:#FF8490;" d="M436.008,73.929c0-1.159,0.939-2.098,2.098-2.098
				c1.159,0,2.097,0.939,2.097,2.098c0,1.158-0.939,2.098-2.097,2.098C436.947,76.027,436.008,75.088,436.008,73.929z"/>
			<path id="XMLID_231_" style="fill:#FF8490;" d="M424.109,62.071c0-1.158,0.939-2.097,2.098-2.097
				c1.158,0,2.097,0.939,2.097,2.097c0,1.159-0.939,2.098-2.097,2.098C425.048,64.169,424.109,63.229,424.109,62.071z"/>
			<path id="XMLID_229_" style="fill:#FF8490;" d="M379.734,73.929c0-1.159,0.939-2.097,2.098-2.097
				c1.159,0,2.098,0.939,2.098,2.097s-0.939,2.098-2.098,2.098C380.674,76.027,379.734,75.088,379.734,73.929z"/>
			<path id="XMLID_228_" style="fill:#FF8490;" d="M391.87,62.071c0-1.158,0.939-2.097,2.097-2.097c1.159,0,2.098,0.939,2.098,2.097
				c0,1.159-0.939,2.098-2.098,2.098C392.809,64.168,391.87,63.229,391.87,62.071z"/>
			<path style="fill:#FF8490;" d="M419.133,101.283c-0.185-0.154-0.46-0.128-0.614,0.057c-0.188,0.227-0.344,0.469-0.492,0.714
				c-1.018-2.001-2.128-3.964-3.211-5.868l-0.335-0.575c-1.012-1.707-2.071-3.448-3.182-5.151c0.281-0.285,0.474-0.661,0.509-1.091
				c0.059-0.708-0.311-1.349-0.889-1.679c0.014-0.037,0.038-0.068,0.047-0.107c0.313-1.437,0.464-2.898,0.61-4.312l0.034-0.407
				c0.078-1.095,0.155-2.22,0.149-3.354c0.306,0.143,0.617,0.278,0.951,0.376c0.129,0.037,0.273,0.01,0.38-0.087
				c0.164-0.148,0.177-0.4,0.029-0.564c-0.281-0.312-0.594-0.574-0.912-0.828c-0.314-0.26-0.651-0.484-0.988-0.707
				c-0.192-0.127-0.446-0.147-0.663-0.031l-0.011,0.006c-0.345,0.185-0.689,0.373-1.013,0.597c-0.327,0.22-0.65,0.446-0.944,0.727
				c-0.105,0.101-0.158,0.254-0.125,0.407c0.051,0.235,0.283,0.385,0.518,0.335c0.332-0.072,0.643-0.184,0.95-0.303
				c-0.185,1.098-0.29,2.201-0.391,3.276l-0.03,0.375c-0.088,1.422-0.179,2.893-0.106,4.366c0.002,0.041,0.017,0.077,0.025,0.116
				c-0.623,0.232-1.091,0.803-1.149,1.509c-0.069,0.841,0.463,1.592,1.237,1.833c0.998,1.958,2.093,3.874,3.163,5.732l0.366,0.626
				c1.175,1.957,2.398,3.967,3.7,5.908c-0.021,0.005-0.043,0.007-0.064,0.012c-0.397,0.088-0.794,0.186-1.184,0.342
				c-0.124,0.05-0.221,0.161-0.245,0.303c-0.038,0.217,0.108,0.424,0.326,0.461c0.414,0.071,0.822,0.084,1.229,0.088
				c0.408,0.01,0.811-0.022,1.214-0.055c0.229-0.019,0.442-0.16,0.54-0.385l0.005-0.011c0.157-0.359,0.311-0.719,0.428-1.095
				c0.121-0.375,0.235-0.752,0.293-1.155C419.307,101.536,419.254,101.383,419.133,101.283z"/>
		</g>
	</g>
	<g>
		<g>
			<path style="fill:#FEE415;" d="M328.681,285.612c6.759-8.032,10.974-18.173,11.9-28.629c0.329-3.713,0.255-7.459,0.735-11.156
				c2.131-16.386,16.342-30.414,32.755-32.332c16.413-1.918,33.475,8.456,39.326,23.91c5.851,15.454-0.062,34.527-13.63,43.96
				c-7.139,4.964-15.724,7.272-23.873,10.304c-8.149,3.032-16.406,7.202-21.13,14.501"/>
			<g>
				<path style="fill:#3C3C3B;" d="M333.701,292.106c1.545-2.962,3.15-5.889,4.757-8.813l4.86-8.749l9.784-17.446
					c0.135-0.241,0.439-0.326,0.68-0.192c0.228,0.128,0.316,0.411,0.21,0.645c-1.402,3.04-2.925,6.017-4.477,8.977
					c-1.561,2.955-3.179,5.879-4.804,8.797c-1.663,2.897-3.308,5.803-5.016,8.673c-1.702,2.872-3.423,5.734-5.2,8.562
					c-0.134,0.214-0.417,0.279-0.631,0.144C333.66,292.577,333.593,292.315,333.701,292.106z"/>
			</g>
			<g>
				<path style="fill:#3C3C3B;" d="M346.126,300.596c2.504-2.795,5.098-5.506,7.73-8.178c2.628-2.677,5.333-5.276,8.04-7.873
					c2.737-2.565,5.497-5.106,8.31-7.587c2.819-2.475,5.672-4.913,8.609-7.249c0.216-0.172,0.53-0.136,0.701,0.08
					c0.164,0.206,0.138,0.503-0.053,0.679l-8.266,7.59c-2.749,2.535-5.494,5.075-8.207,7.649c-2.742,2.544-5.431,5.142-8.137,7.724
					l-8.07,7.799c-0.181,0.176-0.471,0.171-0.647-0.01C345.97,301.046,345.968,300.773,346.126,300.596z"/>
			</g>
			<g>
				<path style="fill:#3C3C3B;" d="M367.496,280.476c-2.381-2.127-3.929-5.27-3.9-8.555c0.025-3.262,1.479-6.468,3.934-8.655
					c0.303-0.278,0.632-0.526,0.963-0.771c0.344-0.24,0.744-0.511,1.328-0.62c0.587-0.13,1.354,0.139,1.727,0.656
					c0.379,0.5,0.475,1.009,0.523,1.469c0.066,0.964-0.104,1.696-0.239,2.507c-0.159,0.794-0.381,1.576-0.671,2.337
					c-0.579,1.519-1.437,2.96-2.598,4.15c-1.155,1.199-2.641,2.099-4.245,2.57c-1.603,0.476-3.368,0.522-5.009,0.002
					c-1.655-0.504-3.089-1.684-3.969-3.139c-0.891-1.451-1.318-3.251-0.934-4.993c0.173-0.842,0.601-1.764,1.275-2.385
					c0.654-0.624,1.528-1.156,2.629-1.105c0.546,0.031,1.081,0.269,1.485,0.626c0.408,0.366,0.66,0.845,0.796,1.316
					c0.269,0.952,0.102,1.94-0.31,2.749c-0.854,1.656-2.493,2.564-4.12,2.927c-1.672,0.325-3.377,0.099-4.891-0.589
					c-1.505-0.679-2.827-1.881-3.496-3.425l-0.003-0.005c-0.109-0.253,0.007-0.547,0.26-0.656c0.247-0.107,0.534,0.002,0.649,0.244
					c1.227,2.581,4.51,3.791,7.194,3.153c1.337-0.313,2.615-1.124,3.152-2.261c0.276-0.561,0.35-1.2,0.185-1.733
					c-0.157-0.538-0.546-0.851-0.992-0.868c-0.457-0.028-1.039,0.273-1.469,0.709c-0.461,0.44-0.703,0.974-0.846,1.632
					c-0.28,1.279,0.043,2.693,0.763,3.847c0.723,1.165,1.82,2.058,3.12,2.448c1.3,0.41,2.743,0.361,4.086-0.025
					c2.738-0.747,4.838-3.033,5.864-5.737c0.263-0.675,0.468-1.375,0.616-2.089c0.131-0.697,0.28-1.495,0.232-2.07
					c-0.021-0.3-0.109-0.573-0.204-0.687c-0.092-0.102-0.149-0.14-0.321-0.124c-0.374,0.044-1.07,0.571-1.591,1.013
					c-2.188,1.861-3.552,4.711-3.638,7.607c-0.132,2.898,1.158,5.822,3.288,7.859c0.183,0.174,0.19,0.463,0.017,0.646
					C367.962,280.629,367.68,280.638,367.496,280.476z"/>
			</g>
			<path style="fill:#99B1FF;" d="M327.133,283.937c2.067,0.55,3.81,1.905,5.49,3.228c6.828,5.376,13.657,10.751,20.485,16.127
				c1.283,1.01,2.625,2.1,3.178,3.636c1.122,3.118-1.432,6.251-3.783,8.585c-1.847,1.834-3.694,3.668-5.541,5.502
				c-0.909,0.902-1.885,1.843-3.132,2.135c-1.96,0.459-3.871-0.807-5.471-2.029c-6.523-4.98-12.749-10.349-18.635-16.067
				c-2.032-1.974-4.117-4.16-4.672-6.939C313.958,292.62,321.034,282.313,327.133,283.937z"/>
			<g>
				<path style="fill:#FFFFFF;" d="M354.174,310.033c-2.418-1.863-4.824-3.743-7.209-5.649l-7.177-5.691l-7.112-5.772
					c-2.377-1.916-4.735-3.855-7.075-5.816c-0.106-0.089-0.119-0.246-0.031-0.351c0.086-0.103,0.237-0.119,0.343-0.038l0.005,0.004
					c2.42,1.862,4.821,3.747,7.203,5.654l7.165,5.699l7.101,5.779c2.375,1.917,4.728,3.861,7.069,5.822l0.004,0.004
					c0.097,0.081,0.11,0.225,0.029,0.322C354.41,310.093,354.27,310.107,354.174,310.033z"/>
			</g>
			<g>
				<path style="fill:#FFFFFF;" d="M349.047,314.563c-2.393-1.782-4.764-3.596-7.102-5.449l-7.006-5.574
					c-2.308-1.892-4.593-3.811-6.874-5.736c-2.287-1.917-4.543-3.871-6.768-5.86c-0.103-0.091-0.113-0.249-0.021-0.352
					c0.089-0.101,0.242-0.111,0.345-0.027l6.896,5.697l6.924,5.66l6.926,5.659l6.96,5.62c0.098,0.079,0.113,0.223,0.034,0.321
					C349.284,314.62,349.145,314.636,349.047,314.563z"/>
			</g>
			<g>
				<path style="fill:#FFFFFF;" d="M343.98,318.544c-2.375-1.673-4.713-3.397-7.005-5.181c-2.299-1.775-4.573-3.584-6.82-5.425
					c-2.233-1.859-4.438-3.751-6.604-5.686c-2.166-1.936-4.291-3.917-6.372-5.943c-0.099-0.096-0.101-0.254-0.005-0.353
					c0.093-0.096,0.246-0.1,0.345-0.012c2.159,1.935,4.333,3.852,6.521,5.752c2.188,1.9,4.392,3.781,6.623,5.63
					c2.216,1.866,4.46,3.701,6.73,5.502l6.857,5.348c0.1,0.077,0.119,0.22,0.042,0.321
					C344.218,318.593,344.079,318.613,343.98,318.544z"/>
			</g>
			<g>
				<path style="fill:#FFFFFF;" d="M407.655,237.207c2.515,5.742,2.987,12.341,1.765,18.523c-0.621,3.098-1.663,6.116-3.135,8.91
					c-1.454,2.801-3.36,5.366-5.626,7.528c-0.4,0.382-1.034,0.367-1.415-0.033c-0.342-0.359-0.366-0.906-0.078-1.29l0.005-0.006
					c3.518-4.705,5.951-10.071,7.116-15.742c1.177-5.668,1.053-11.578-0.362-17.297c-0.124-0.491,0.174-0.99,0.665-1.114
					C407.03,236.575,407.478,236.806,407.655,237.207z"/>
			</g>
			<path style="opacity:0.72;fill:#E6CC0B;" d="M383.69,235.036c-2.77,0.049-5.59-0.338-8.283,0.314
				c-2.49,0.602-4.752,2.109-6.267,4.174c-1.554,2.118-2.293,4.706-3.408,7.084c-1.115,2.378-2.827,4.724-5.352,5.449
				c-3.453,0.992-7.188-1.637-8.396-5.02c-1.208-3.384-0.407-7.179,1.045-10.466c2.668-6.04,7.543-11.075,13.494-13.936
				c5.461-2.626,17.002-5.114,22.698-1.418C396.647,226.038,391.185,234.904,383.69,235.036z"/>
		</g>
		<g>
			<g>
				<path style="fill:#3C3C3B;" d="M417.007,203.95c-0.758,1.245-1.568,2.447-2.387,3.642c-0.814,1.199-1.681,2.357-2.518,3.538
					c-0.872,1.155-1.738,2.314-2.634,3.452c-0.903,1.133-1.813,2.261-2.785,3.346l-0.015,0.017c-0.184,0.206-0.5,0.223-0.706,0.039
					c-0.182-0.163-0.216-0.43-0.094-0.632c0.756-1.243,1.575-2.443,2.4-3.639c0.833-1.191,1.695-2.36,2.552-3.534
					c0.891-1.148,1.753-2.318,2.667-3.447c0.909-1.134,1.828-2.259,2.798-3.343c0.169-0.189,0.458-0.204,0.647-0.036
					c0.167,0.15,0.199,0.394,0.086,0.579L417.007,203.95z"/>
			</g>
			<g>
				<path style="fill:#3C3C3B;" d="M398.931,199.694c-0.191,1.927-0.565,3.811-0.986,5.683c-0.435,1.869-0.926,3.726-1.611,5.536
					c-0.098,0.26-0.389,0.391-0.649,0.292c-0.218-0.082-0.345-0.3-0.323-0.521c0.194-1.926,0.583-3.807,1.027-5.674
					c0.458-1.864,0.964-3.717,1.652-5.527c0.09-0.238,0.357-0.357,0.595-0.267C398.834,199.293,398.95,199.492,398.931,199.694z"/>
			</g>
			<g>
				<path style="fill:#3C3C3B;" d="M382.685,198.254c0.106,1.96,0.025,3.898-0.104,5.833c-0.144,1.934-0.344,3.862-0.745,5.783
					l-0.004,0.02c-0.057,0.271-0.322,0.445-0.594,0.389c-0.228-0.048-0.387-0.243-0.398-0.465c-0.104-1.957-0.006-3.906,0.148-5.849
					c0.168-1.943,0.385-3.882,0.788-5.799c0.052-0.248,0.296-0.408,0.544-0.355c0.208,0.044,0.353,0.222,0.364,0.425
					L382.685,198.254z"/>
			</g>
			<g>
				<path style="fill:#3C3C3B;" d="M366.326,201.198c0.248,1.704,0.308,3.408,0.32,5.111c-0.003,1.703-0.063,3.406-0.323,5.108
					c-0.042,0.275-0.299,0.465-0.575,0.422c-0.225-0.034-0.392-0.213-0.423-0.427c-0.245-1.704-0.29-3.408-0.278-5.111
					c0.027-1.703,0.102-3.406,0.365-5.108c0.039-0.252,0.275-0.425,0.527-0.386C366.144,200.84,366.297,201.003,366.326,201.198z"/>
			</g>
			<g>
				<path style="fill:#3C3C3B;" d="M416.623,227.178c1.921-1.184,3.956-2.15,6.03-3.016c2.079-0.853,4.204-1.6,6.405-2.1
					c0.271-0.061,0.539,0.108,0.601,0.379c0.053,0.233-0.066,0.465-0.272,0.564c-2.018,0.971-4.072,1.803-6.13,2.637
					c-2.064,0.821-4.122,1.649-6.245,2.363c-0.241,0.081-0.502-0.048-0.583-0.289C416.359,227.51,416.445,227.288,416.623,227.178z"
					/>
			</g>
			<g>
				<path style="fill:#3C3C3B;" d="M420.839,242.728c1.963-0.094,3.893-0.146,5.823-0.29c1.931-0.13,3.846-0.343,5.802-0.505
					c0.277-0.024,0.52,0.181,0.544,0.458c0.02,0.233-0.124,0.443-0.334,0.518c-1.9,0.668-3.903,1-5.909,1.125
					c-2.007,0.112-4.033,0.026-6.001-0.394c-0.249-0.053-0.408-0.298-0.354-0.547C420.454,242.883,420.635,242.738,420.839,242.728z
					"/>
			</g>
			<g>
				<path style="fill:#3C3C3B;" d="M419.748,260.903c1.893-0.091,3.762-0.054,5.634-0.025c1.871,0.043,3.739,0.086,5.623,0.272
					c0.277,0.027,0.479,0.273,0.452,0.55c-0.023,0.231-0.199,0.41-0.417,0.448c-1.888,0.32-3.798,0.382-5.7,0.328
					c-1.902-0.068-3.804-0.243-5.672-0.662c-0.249-0.056-0.405-0.302-0.349-0.551C419.366,261.055,419.546,260.912,419.748,260.903z
					"/>
			</g>
		</g>
	</g>
	<g>
		<ellipse style="fill:#FEEAE3;" cx="423.446" cy="429.502" rx="29.143" ry="3.242"/>
		<g>
			<g>
				<path style="fill:#99B1FF;" d="M406.799,309.685c-0.926-1.03-2.607-2.044-3.512-0.995c-0.343,0.398-0.401,0.961-0.431,1.486
					c-0.449,7.831,1.823,15.651,5.492,22.584c3.574,6.754,8.443,13.248,13.899,18.583
					C424.481,336.429,416.588,320.573,406.799,309.685z"/>
				<path style="fill:#99B1FF;" d="M424.421,285.778c-0.36-0.832-0.868-1.757-1.76-1.925c-1.119-0.212-2.021,0.887-2.563,1.889
					c-4.02,7.427-3.764,16.38-2.825,24.773c0.983,8.784,7.214,17.961,10.028,4.458C429.327,305.25,428.37,294.904,424.421,285.778z"
					/>
				<path style="fill:#99B1FF;" d="M431.195,324.733c1.8-3.014,3.788-6.026,6.633-8.083c0.382-0.276,0.797-0.541,1.266-0.594
					c0.975-0.11,1.818,0.737,2.194,1.643c0.723,1.742,0.307,3.728-0.191,5.547c-3.288,12.024-9.77,23.158-18.602,31.954
					C420.591,344.846,426.029,333.381,431.195,324.733z"/>
				<path style="fill:#99B1FF;" d="M401.527,340.615c-1.646-0.806-3.382-1.504-5.208-1.655c-1.455,2.178-0.576,5.127,0.645,7.444
					c5.216,9.805,15.726,17.005,25.472,21.825C422.306,356.766,411.153,345.326,401.527,340.615z"/>
				<path style="fill:#99B1FF;" d="M424.449,359.931c3.632-7.173,9.425-13.233,16.427-17.185c0.616-0.348,1.403-0.676,1.991-0.281
					c0.284,0.191,0.448,0.516,0.56,0.839c0.675,1.95-0.155,4.073-1.044,5.935c-4.154,8.694-10.701,17.496-20.316,20.421
					C422.524,366.146,422.766,363.254,424.449,359.931z"/>
				<g>
					<path style="fill:#3C3C3B;" d="M421.834,383.35l-0.121-22.706l-0.03-22.709c0.041-7.57,0.126-15.14,0.256-22.71
						c0.122-7.57,0.323-15.141,0.716-22.705c0.008-0.159,0.144-0.281,0.303-0.273c0.157,0.008,0.278,0.141,0.273,0.298
						c-0.123,3.78-0.222,7.562-0.283,11.344l-0.193,11.348c-0.096,7.566-0.125,15.134-0.151,22.702l-0.105,22.705
						c-0.009,7.569-0.048,15.138-0.136,22.708c-0.001,0.146-0.121,0.263-0.267,0.261
						C421.951,383.612,421.835,383.494,421.834,383.35z"/>
				</g>
				<g>
					<path style="fill:#3C3C3B;" d="M406.751,316.674c1.02,2.534,2.169,5.014,3.342,7.48c1.199,2.454,2.485,4.865,3.81,7.25
						c1.336,2.38,2.713,4.735,4.112,7.075c1.383,2.351,2.818,4.668,4.131,7.073c0.052,0.095,0.017,0.215-0.078,0.267
						c-0.085,0.047-0.19,0.023-0.249-0.051c-1.705-2.156-3.179-4.472-4.593-6.819c-1.398-2.358-2.708-4.768-3.945-7.214
						c-1.247-2.44-2.42-4.917-3.563-7.404c-1.168-2.476-2.244-4.993-3.329-7.507c-0.043-0.099,0.003-0.215,0.102-0.258
						c0.1-0.043,0.215,0.003,0.258,0.102C406.75,316.67,406.751,316.672,406.751,316.674z"/>
				</g>
				<g>
					<path style="fill:#3C3C3B;" d="M400.386,343.79c1.684,2.029,3.453,3.986,5.221,5.941c1.789,1.937,3.629,3.827,5.481,5.702
						l5.607,5.572c1.86,1.866,3.742,3.707,5.504,5.681c0.072,0.081,0.065,0.206-0.016,0.278c-0.072,0.065-0.179,0.066-0.253,0.008
						c-2.084-1.638-3.998-3.464-5.883-5.315c-1.872-1.866-3.691-3.784-5.47-5.737c-1.788-1.945-3.535-3.927-5.279-5.91
						c-1.764-1.965-3.473-3.977-5.212-5.965c-0.071-0.082-0.063-0.205,0.018-0.277c0.082-0.071,0.205-0.063,0.277,0.018
						C400.383,343.787,400.385,343.789,400.386,343.79z"/>
				</g>
				<g>
					<path style="fill:#3C3C3B;" d="M440.418,347.607l-8.686,9.825c-1.449,1.638-2.923,3.254-4.435,4.833
						c-1.527,1.565-3.068,3.118-4.773,4.505c-0.084,0.069-0.209,0.056-0.277-0.028c-0.06-0.073-0.058-0.177-0.001-0.248
						c1.373-1.713,2.886-3.284,4.389-4.866l4.582-4.677c1.524-1.563,3.05-3.125,4.539-4.722c1.469-1.615,2.952-3.218,4.368-4.881
						c0.07-0.082,0.194-0.092,0.276-0.022c0.083,0.07,0.092,0.194,0.022,0.276C440.422,347.603,440.419,347.606,440.418,347.607z"/>
				</g>
				<g>
					<path style="fill:#3C3C3B;" d="M438.486,322.27c-1.389,2.395-2.714,4.826-4.07,7.24l-3.953,7.305
						c-1.308,2.441-2.631,4.873-3.986,7.286c-0.678,1.207-1.38,2.4-2.082,3.593l-1.088,1.77l-0.564,0.874
						c-0.109,0.151-0.15,0.272-0.336,0.476c-0.104,0.069-0.275,0.261-0.567,0.015c-0.085-0.125-0.073-0.218-0.051-0.313
						c0.018-0.048,0.035-0.107,0.12-0.168c0.095-0.072,0.244-0.033,0.285,0.009l0.243,0.247c0.112,0.114,0.11,0.297-0.004,0.409
						c-0.114,0.112-0.297,0.11-0.409-0.004c-0.088-0.09-0.105-0.223-0.053-0.33l0.757-1.541l0.951-1.847
						c0.658-1.218,1.316-2.436,1.997-3.641c1.365-2.409,2.761-4.799,4.173-7.181l4.206-7.163c1.363-2.409,2.759-4.8,4.089-7.228
						c0.052-0.095,0.171-0.13,0.266-0.078c0.095,0.052,0.13,0.171,0.078,0.266C438.488,322.267,438.486,322.268,438.486,322.27z"/>
				</g>
			</g>
			<path style="fill:#FF8490;" d="M421.106,430c39.336,0.034,31.203-56.407,31.203-56.407h-56.892
				C395.417,373.593,388.061,429.971,421.106,430z"/>
			<path style="fill:none;stroke:#FFFFFF;stroke-width:1.0662;stroke-miterlimit:10;" d="M450.228,386.261
				c-3.419,2.934-9.292,2.267-11.968-1.357c-0.661-0.896-1.149-2.005-0.967-3.103c0.182-1.098,1.234-2.09,2.329-1.889
				c1.281,0.234,1.825,1.764,1.956,3.06c0.497,4.932-1.685,10.091-5.674,13.035c-3.988,2.944-9.662,3.487-14.062,1.204
				c-4.4-2.283-7.243-7.343-6.741-12.275c0.122-1.197,0.561-2.542,1.678-2.987c1.398-0.558,2.982,0.803,3.159,2.297
				c0.177,1.494-0.633,2.928-1.574,4.102c-2.479,3.096-6.246,5.286-10.212,5.308c-3.966,0.022-7.988-2.394-9.327-6.127"/>
			<path style="fill:none;stroke:#FFFFFF;stroke-width:1.0662;stroke-miterlimit:10;" d="M444.485,412.496
				c-3.371,0.121-6.355-3.42-5.664-6.722c0.179-0.857,0.818-1.818,1.681-1.669c0.799,0.138,1.118,1.105,1.2,1.912
				c0.589,5.783-3.293,11.716-8.828,13.491c-5.536,1.775-12.144-0.793-15.028-5.84c-1.425-2.494-1.862-5.917,0.048-8.062
				c0.264-0.297,0.579-0.567,0.96-0.678c0.803-0.233,1.678,0.351,1.991,1.127c0.313,0.775,0.172,1.665-0.126,2.446
				c-1.343,3.523-5.58,5.223-9.332,4.858c-5.42-0.528-10.266-4.811-11.455-10.125"/>
			<g>
				<g>
					<path style="fill:#FFFFFF;" d="M427.235,387.998c0,0.096,0,0.192,0,0.288c-0.01,0.275,0.047,0.532,0.172,0.77
						c0.081,0.248,0.218,0.462,0.413,0.643c0.181,0.195,0.396,0.333,0.643,0.413c0.238,0.125,0.495,0.183,0.77,0.172
						c0.177-0.024,0.354-0.048,0.531-0.071c0.339-0.095,0.633-0.266,0.882-0.514c0.104-0.135,0.208-0.27,0.313-0.405
						c0.181-0.312,0.272-0.648,0.273-1.009c0-0.096,0-0.192,0-0.288c0.01-0.275-0.047-0.532-0.172-0.77
						c-0.081-0.248-0.218-0.462-0.413-0.643c-0.181-0.195-0.396-0.333-0.643-0.413c-0.238-0.125-0.495-0.183-0.77-0.172
						c-0.177,0.024-0.354,0.048-0.531,0.071c-0.339,0.095-0.633,0.266-0.882,0.514c-0.104,0.135-0.208,0.27-0.313,0.405
						C427.327,387.301,427.236,387.637,427.235,387.998L427.235,387.998z"/>
				</g>
			</g>
			<g>
				<g>
					<path style="fill:#FFFFFF;" d="M403.956,384.236c0.096,0.096,0.192,0.192,0.288,0.288c0.181,0.195,0.396,0.333,0.643,0.413
						c0.238,0.125,0.495,0.182,0.77,0.172c0.275,0.01,0.532-0.047,0.77-0.172c0.248-0.081,0.462-0.218,0.643-0.413
						c0.104-0.135,0.208-0.27,0.313-0.405c0.181-0.312,0.272-0.648,0.273-1.009c-0.024-0.177-0.048-0.354-0.071-0.531
						c-0.095-0.339-0.266-0.633-0.514-0.882c-0.096-0.096-0.192-0.192-0.288-0.288c-0.181-0.195-0.396-0.333-0.643-0.413
						c-0.238-0.125-0.495-0.182-0.77-0.172c-0.275-0.01-0.532,0.047-0.77,0.172c-0.248,0.081-0.462,0.219-0.643,0.413
						c-0.104,0.135-0.208,0.27-0.313,0.405c-0.181,0.312-0.272,0.648-0.273,1.009c0.024,0.177,0.048,0.354,0.072,0.531
						C403.536,383.693,403.708,383.987,403.956,384.236L403.956,384.236z"/>
				</g>
			</g>
			<g>
				<g>
					<path style="fill:#FFFFFF;" d="M445.359,400.912c0.096,0.096,0.192,0.192,0.288,0.288c0.181,0.195,0.396,0.333,0.643,0.413
						c0.238,0.125,0.495,0.183,0.77,0.172c0.275,0.01,0.532-0.047,0.77-0.172c0.248-0.081,0.462-0.218,0.643-0.413
						c0.104-0.135,0.208-0.27,0.313-0.405c0.181-0.312,0.272-0.648,0.273-1.009c-0.024-0.177-0.048-0.354-0.071-0.531
						c-0.095-0.339-0.266-0.633-0.514-0.882c-0.096-0.096-0.192-0.192-0.287-0.287c-0.181-0.195-0.396-0.333-0.643-0.413
						c-0.238-0.125-0.495-0.183-0.77-0.172c-0.275-0.01-0.532,0.047-0.77,0.172c-0.248,0.081-0.462,0.218-0.643,0.413
						c-0.104,0.135-0.208,0.27-0.313,0.405c-0.181,0.312-0.272,0.648-0.273,1.009c0.024,0.177,0.048,0.354,0.071,0.531
						C444.94,400.369,445.111,400.663,445.359,400.912L445.359,400.912z"/>
				</g>
			</g>
			<g>
				<g>
					<path style="fill:#FFFFFF;" d="M429.521,411.849c0.096,0,0.192,0,0.288,0c0.275,0.01,0.532-0.047,0.77-0.172
						c0.248-0.081,0.462-0.218,0.643-0.413c0.195-0.181,0.333-0.396,0.413-0.643c0.125-0.238,0.183-0.495,0.172-0.77
						c-0.024-0.177-0.048-0.354-0.071-0.531c-0.095-0.339-0.266-0.633-0.514-0.882c-0.135-0.104-0.27-0.208-0.405-0.313
						c-0.312-0.181-0.648-0.272-1.009-0.273c-0.096,0-0.192,0-0.288,0c-0.275-0.01-0.532,0.047-0.77,0.172
						c-0.248,0.081-0.462,0.218-0.643,0.413c-0.195,0.181-0.333,0.395-0.413,0.643c-0.125,0.238-0.183,0.495-0.172,0.77
						c0.024,0.177,0.048,0.354,0.071,0.532c0.095,0.339,0.266,0.633,0.514,0.882c0.135,0.104,0.27,0.208,0.405,0.313
						C428.824,411.757,429.16,411.848,429.521,411.849L429.521,411.849z"/>
				</g>
			</g>
			<g>
				<g>
					<path style="fill:#FFFFFF;" d="M409.682,404.373c0.096,0,0.192,0,0.288,0c0.275,0.01,0.532-0.047,0.77-0.172
						c0.248-0.081,0.462-0.218,0.643-0.413c0.195-0.181,0.333-0.396,0.413-0.643c0.125-0.238,0.183-0.495,0.172-0.77
						c-0.024-0.177-0.048-0.354-0.071-0.531c-0.095-0.339-0.266-0.633-0.514-0.882c-0.135-0.104-0.27-0.208-0.405-0.313
						c-0.312-0.181-0.648-0.272-1.009-0.273c-0.096,0-0.192,0-0.288,0c-0.275-0.01-0.532,0.047-0.77,0.172
						c-0.248,0.081-0.462,0.218-0.643,0.413c-0.195,0.181-0.333,0.396-0.413,0.643c-0.125,0.238-0.183,0.495-0.172,0.77
						c0.024,0.177,0.048,0.354,0.071,0.531c0.095,0.339,0.266,0.633,0.514,0.882c0.135,0.104,0.27,0.208,0.405,0.313
						C408.985,404.281,409.321,404.372,409.682,404.373L409.682,404.373z"/>
				</g>
			</g>
			<path style="opacity:0.36;fill:#FF8490;" d="M417.026,404.055c0.455,4.93,2.306,9.87,5.882,13.294
				c1.232,1.18,2.667,2.187,3.594,3.619c0.927,1.432,1.19,3.499,0.026,4.746c-0.945,1.012-2.487,1.161-3.87,1.081
				c-2.713-0.157-5.378-0.945-7.788-2.202c-6.293-3.281-10.595-9.604-12.783-16.355c-2.189-6.752-2.485-13.961-2.436-21.058
				c0.015-2.167,0.088-4.437,1.161-6.32c2.826-4.958,13.597-5.505,17.284-1.124c2.386,2.835,0.979,7.096,0.286,10.267
				C417.375,394.621,416.588,399.312,417.026,404.055z"/>
		</g>
	</g>
	<g>
		<g>
			<path style="fill:#FFFFFF;" d="M348.703,356.122c-0.509,0.171-0.952,0.182-1.382,0.161c-0.424-0.034-0.824-0.126-1.203-0.27
				c-0.38-0.141-0.737-0.337-1.066-0.601c-0.327-0.268-0.636-0.583-0.875-1.063c-0.426-0.854-0.082-1.891,0.768-2.317
				c0.072-0.036,0.155-0.069,0.229-0.094c0.508-0.168,0.947-0.17,1.367-0.126c0.418,0.048,0.808,0.165,1.176,0.336
				c0.368,0.169,0.716,0.389,1.039,0.667c0.318,0.292,0.622,0.614,0.861,1.098c0.388,0.787,0.067,1.74-0.717,2.128
				C348.837,356.072,348.766,356.1,348.703,356.122z"/>
			<path style="fill:#FFFFFF;" d="M336.927,350.824c-0.367,0.268-0.69,0.369-1.003,0.437c-0.31,0.054-0.604,0.046-0.883-0.014
				c-0.281-0.059-0.546-0.175-0.792-0.361c-0.245-0.192-0.477-0.431-0.664-0.844c-0.411-0.911-0.108-1.962,0.668-2.524
				c0.366-0.265,0.686-0.357,0.993-0.4c0.306-0.038,0.594-0.006,0.865,0.083c0.273,0.088,0.532,0.228,0.774,0.431
				c0.239,0.216,0.469,0.465,0.654,0.882C337.911,349.347,337.634,350.307,336.927,350.824z"/>
			<path style="fill:#FFFFFF;" d="M341.963,346.59c-0.526,0.13-0.973,0.104-1.405,0.049c-0.426-0.068-0.823-0.194-1.195-0.367
				c-0.374-0.172-0.72-0.397-1.034-0.688c-0.312-0.295-0.601-0.634-0.809-1.134c-0.365-0.876,0.047-1.881,0.919-2.245
				c0.081-0.034,0.173-0.063,0.256-0.084c0.524-0.126,0.967-0.093,1.388-0.015c0.419,0.083,0.804,0.23,1.163,0.431
				c0.36,0.199,0.695,0.447,1.001,0.752c0.3,0.317,0.585,0.665,0.792,1.168c0.331,0.807-0.052,1.73-0.856,2.061
				C342.114,346.547,342.034,346.572,341.963,346.59z"/>
		</g>
		<g>
			<path style="fill:#FFFFFF;" d="M63.327,223.8c0.164,0.419,0.191,0.789,0.191,1.149c-0.011,0.356-0.072,0.694-0.177,1.017
				c-0.103,0.323-0.252,0.63-0.46,0.916c-0.211,0.284-0.461,0.555-0.854,0.775c-0.697,0.391-1.578,0.145-1.968-0.549
				c-0.033-0.059-0.064-0.127-0.088-0.188c-0.161-0.418-0.181-0.785-0.161-1.138c0.024-0.352,0.105-0.683,0.233-0.997
				c0.126-0.315,0.296-0.615,0.516-0.896c0.231-0.277,0.489-0.545,0.883-0.764c0.643-0.357,1.452-0.127,1.808,0.513
				C63.279,223.69,63.306,223.748,63.327,223.8z"/>
			<path style="fill:#FFFFFF;" d="M59.373,233.862c0.239,0.296,0.336,0.562,0.406,0.821c0.058,0.257,0.063,0.503,0.024,0.739
				c-0.038,0.237-0.124,0.463-0.27,0.677c-0.15,0.213-0.341,0.417-0.679,0.589c-0.745,0.38-1.636,0.17-2.137-0.456
				c-0.236-0.295-0.326-0.559-0.375-0.814c-0.045-0.255-0.029-0.496,0.035-0.727c0.062-0.232,0.169-0.454,0.329-0.664
				c0.171-0.208,0.37-0.411,0.711-0.583C58.098,233.099,58.912,233.292,59.373,233.862z"/>
			<path style="fill:#FFFFFF;" d="M55.629,229.822c0.13,0.435,0.126,0.81,0.098,1.173c-0.04,0.359-0.129,0.696-0.259,1.014
				c-0.129,0.319-0.303,0.618-0.533,0.892c-0.234,0.273-0.506,0.528-0.915,0.722c-0.718,0.341-1.575,0.037-1.915-0.678
				c-0.032-0.067-0.06-0.142-0.081-0.211c-0.127-0.433-0.117-0.805-0.069-1.16c0.052-0.354,0.16-0.682,0.314-0.99
				c0.152-0.309,0.346-0.599,0.588-0.868c0.253-0.264,0.532-0.516,0.944-0.709c0.661-0.31,1.449-0.027,1.758,0.632
				C55.586,229.698,55.611,229.764,55.629,229.822z"/>
		</g>
		<g>
			<path style="fill:#FFFFFF;" d="M433.722,169.659c-0.492,0.165-0.919,0.176-1.334,0.156c-0.41-0.033-0.796-0.122-1.162-0.26
				c-0.367-0.136-0.712-0.326-1.03-0.58c-0.316-0.259-0.614-0.563-0.845-1.026c-0.411-0.824-0.079-1.826,0.742-2.237
				c0.07-0.035,0.15-0.067,0.221-0.091c0.49-0.162,0.914-0.165,1.32-0.122c0.404,0.047,0.781,0.159,1.135,0.324
				c0.356,0.163,0.691,0.375,1.003,0.644c0.307,0.282,0.601,0.593,0.831,1.06c0.375,0.76,0.065,1.68-0.692,2.054
				C433.851,169.61,433.782,169.638,433.722,169.659z"/>
			<path style="fill:#FFFFFF;" d="M422.353,164.544c-0.354,0.259-0.666,0.356-0.969,0.421c-0.299,0.052-0.583,0.045-0.853-0.014
				c-0.271-0.057-0.527-0.169-0.764-0.349c-0.237-0.185-0.461-0.416-0.641-0.815c-0.396-0.879-0.104-1.894,0.645-2.436
				c0.353-0.256,0.662-0.344,0.959-0.386c0.296-0.037,0.573-0.006,0.836,0.081c0.263,0.085,0.513,0.22,0.747,0.416
				c0.23,0.209,0.453,0.449,0.632,0.851C423.303,163.118,423.035,164.045,422.353,164.544z"/>
			<path style="fill:#FFFFFF;" d="M427.215,160.457c-0.508,0.125-0.939,0.101-1.357,0.047c-0.411-0.066-0.795-0.187-1.154-0.355
				c-0.361-0.167-0.695-0.383-0.998-0.664c-0.301-0.285-0.58-0.612-0.78-1.094c-0.352-0.846,0.045-1.816,0.887-2.168
				c0.079-0.033,0.167-0.061,0.247-0.081c0.506-0.122,0.934-0.09,1.34-0.014c0.404,0.08,0.776,0.223,1.123,0.416
				c0.347,0.192,0.671,0.432,0.967,0.726c0.29,0.306,0.564,0.642,0.764,1.127c0.32,0.779-0.05,1.67-0.826,1.99
				C427.36,160.415,427.284,160.439,427.215,160.457z"/>
		</g>
	</g>
</g>
</svg>
